<svg width="634" height="150" viewBox="0 0 634 150" fill="none" xmlns="http://www.w3.org/2000/svg">
<path d="M158.261 80.8802L164.118 95.6119H169.443L175.14 80.9689V95.6119H181.37V67.5684H175.069L166.887 86.2936L158.509 67.5684H152.049V95.6119H158.261V80.8802Z" fill="white"/>
<path d="M203.077 82.4776H198.498L196.137 88.4235H205.562L208.579 95.6119H215.679L203.538 67.5684H197.166L185.257 95.6119H192.126L200.237 75.6974L203.077 82.4776Z" fill="white"/>
<path d="M227.216 84.5007H231.298C233.801 84.5007 234.138 85.5479 234.138 86.5773C234.138 87.447 234.138 89.7367 228.991 89.7367C225.814 89.7367 222.938 89.2752 220.418 88.3345L219.282 87.9085V94.1207L219.868 94.2982C222.548 95.1679 225.618 95.6116 228.991 95.6116C238.628 95.6116 240.67 90.6951 240.67 86.5596C240.67 82.85 239.037 78.4305 231.316 78.4305H227.234C225.583 78.4305 224.908 77.827 224.908 76.3539C224.908 75.6084 224.908 73.372 230.624 73.372C233.428 73.372 236.126 73.8512 238.628 74.7742L239.764 75.2002V68.988L239.179 68.8105C236.499 67.923 233.605 67.4971 230.624 67.4971C222.495 67.4971 218.395 70.4789 218.395 76.3716C218.395 81.6963 221.465 84.5007 227.234 84.5007H227.216Z" fill="white"/>
<path d="M258.152 95.6119V73.5143H265.695V67.5684H244.023V73.5143H251.567V95.6119H258.152Z" fill="white"/>
<path d="M290.259 89.666H276.77V84.4655H289.371V78.3953H276.823V73.4966H289.993V67.5684H270.273V95.6119H290.259V89.666Z" fill="white"/>
<path d="M301.406 73.5675H307.228C309.358 73.5675 309.642 74.5615 309.642 75.6264C309.642 76.4961 309.642 79.1408 303.359 80.2057L302.649 80.3299V83.5425L311.062 95.5941H319.333L310.583 83.6668C314.47 81.5014 316.44 78.7503 316.44 75.4667C316.44 71.8636 314.896 67.5684 307.53 67.5684H294.715V95.5586H301.406V73.5675Z" fill="white"/>
<path d="M151.693 100.475C141.842 100.475 136.837 105.072 136.837 114.142C136.837 123.691 141.824 128.536 151.693 128.536C154.639 128.536 157.302 128.093 159.627 127.205L160.177 126.992V120.762L159.006 121.277C156.876 122.2 154.55 122.661 152.066 122.661C146.244 122.661 143.546 119.964 143.546 114.142C143.546 108.817 146.262 106.35 152.066 106.35C154.533 106.35 156.876 106.812 159.006 107.734L160.177 108.249V102.019L159.627 101.806C157.302 100.937 154.639 100.493 151.693 100.493V100.475Z" fill="white"/>
<path d="M177.659 100.492C168.447 100.492 163.779 105.213 163.779 114.567C164.188 123.814 168.856 128.5 177.659 128.5C186.463 128.5 191.344 123.797 191.344 114.532C191.344 105.267 186.747 100.492 177.659 100.492ZM177.659 122.643C172.743 122.643 170.453 120.034 170.453 114.425C170.453 108.817 172.743 106.349 177.659 106.349C182.576 106.349 184.652 108.923 184.652 114.425C184.652 119.927 182.434 122.643 177.659 122.643Z" fill="white"/>
<path d="M214.011 117.851L201.409 100.457H195.232V128.483H201.64V110.734L214.242 128.483H220.418V100.457H214.011V117.851Z" fill="white"/>
<path d="M239.178 100.475C229.328 100.475 224.322 105.072 224.322 114.142C224.322 123.691 229.328 128.536 239.178 128.536C242.125 128.536 244.787 128.093 247.13 127.205L247.68 126.992V120.744L246.491 121.259C244.361 122.182 242.036 122.644 239.551 122.644C233.729 122.644 231.031 119.928 231.031 114.124C231.031 108.799 233.747 106.314 239.551 106.314C242.036 106.314 244.361 106.776 246.491 107.699L247.68 108.214V101.966L247.13 101.753C244.805 100.883 242.125 100.439 239.178 100.439V100.475Z" fill="white"/>
<path d="M258.188 117.354H270.807V111.284H258.259V106.367H271.428V100.457H251.691V128.483H271.677V122.555H258.188V117.354Z" fill="white"/>
<path d="M296.667 106.03C295.762 102.374 292.834 100.457 288.059 100.457H275.422V128.501H282.007V106.456H287.74C289.461 106.456 290.171 107.166 290.171 108.888C290.171 109.722 290.171 112.225 284.243 113.307L283.409 113.449L284.367 119.466L285.202 119.342C292.993 118.135 296.951 114.585 296.951 108.764C296.951 107.929 296.863 107.148 296.721 106.438L296.65 106.083L296.667 106.03Z" fill="white"/>
<path d="M297.643 106.03C297.643 106.03 297.643 106.368 297.643 106.385H305.204V128.483H311.789V106.385H319.332V100.439H297.643V106.03Z" fill="white"/>
<path d="M145.393 21.6692C145.393 21.6692 106.505 20.7995 68.8588 53.4223C31.1952 86.0451 31 128.554 31 128.554H121.875L142.074 67.4086H104.463C105.741 47.8136 117.704 28.0766 145.393 21.6692Z" fill="white"/>
<path d="M151.817 25.8405C151.817 25.8405 138.861 25.5565 126.312 36.419C113.763 47.2991 113.692 61.4629 113.692 61.4629H143.99L150.717 41.0692H138.186C138.612 34.5375 142.606 27.9526 151.835 25.8228L151.817 25.8405Z" fill="white"/>
<path d="M347.733 107.451C345.958 114.746 343.456 121.047 340.243 126.372L334.262 122.626C337.545 117.426 339.853 111.924 341.237 106.067L347.751 107.451H347.733ZM386.249 69.3438V101.487H343.26V69.3438H386.249ZM361.471 82.4071V75.7689H350.041V82.4071H361.471ZM361.471 88.4595H350.041V94.9024H361.471V88.4595ZM357.602 127.436C352.543 127.436 350.041 124.881 350.041 119.804V105.676H356.874V118.367C356.874 120.071 357.797 120.923 359.696 120.923H373.7C374.623 120.923 375.28 120.532 375.67 119.804C376.203 119.023 376.522 116.716 376.717 112.9L383.285 115.065C382.752 121.118 381.829 124.668 380.516 125.786C379.327 126.833 377.427 127.436 374.925 127.436H357.566H357.602ZM373.239 113.823L366.938 116.645C365.092 112.101 363.122 108.108 360.885 104.611L367.062 102.57C369.423 106.049 371.535 109.794 373.239 113.805V113.823ZM367.914 82.4071H379.486V75.7689H367.914V82.4071ZM379.486 88.4595H367.914V94.9024H379.486V88.4595ZM395.194 121.189L388.822 124.011C386.125 117.444 383.178 111.587 379.877 106.457L386.444 104.363C389.728 109.616 392.692 115.207 395.177 121.189H395.194Z" fill="white"/>
<path d="M421.497 104.239H414.593V89.3294C412.09 93.6069 409.144 97.6182 405.718 101.292L403.216 94.7961C407.813 90.8558 411.558 86.312 414.327 81.1293H404.529V74.8284H414.593V68.2612H421.497V74.8284H429.254V81.1293H421.497V83.0995C424.728 85.1406 427.94 87.4302 431.224 90.0038L427.355 95.79C425.118 93.0922 423.148 90.8558 421.497 89.1519V104.274V104.239ZM416.173 108.907C414.593 115.208 412.428 120.745 409.659 125.395L403.748 121.65C406.446 117.178 408.345 112.456 409.392 107.398L416.155 108.907H416.173ZM426.414 126.851C421.426 126.851 418.995 124.295 418.995 119.29V106.794H425.97V117.834C425.97 119.414 426.822 120.195 428.526 120.195H442.264C443.187 120.195 443.843 119.876 444.358 119.201C444.891 118.544 445.281 116.45 445.476 112.953L451.99 115.19C451.458 120.834 450.553 124.26 449.168 125.307C447.926 126.301 446.009 126.815 443.453 126.815H426.432L426.414 126.851ZM441.412 113.362L435.963 117.178C434.259 114.551 432.023 111.658 429.254 108.498L434.578 105.144C437.543 108.303 439.832 111.054 441.412 113.362ZM459.871 69.3972V103.777H432.591V69.3972H459.871ZM453.233 79.2657V75.4496H439.3V79.2657H453.233ZM453.233 88.4597V84.7856H439.3V88.4597H453.233ZM453.233 93.9796H439.3V97.8667H453.233V93.9796ZM464.805 119.609L458.948 123.692C456.587 119.219 453.357 114.285 449.346 108.765L454.937 105.286C459.214 110.735 462.498 115.545 464.787 119.609H464.805Z" fill="white"/>
<path d="M484.01 84.3947V76.8336C481.188 77.2241 478.294 77.5613 475.33 77.8275L473.946 71.3846C482.43 70.7279 489.973 69.4855 496.682 67.4976L499.114 73.9405C496.487 74.5972 493.789 75.2539 490.896 75.7864V84.3947H499.043V91.0328H490.896V93.2692C494.322 95.8961 497.801 98.7892 501.351 102.002L497.481 107.788C494.925 104.575 492.742 101.931 490.914 99.9606V128.022H484.01V100.546C481.649 106.066 478.561 111.196 474.869 115.793L471.852 108.107C476.981 103.102 480.726 97.387 483.158 91.0151H473.964V84.3769H484.01V84.3947ZM533.618 108.959L527.566 109.953V128.093H520.662V111.072L501.138 114.16L500.09 107.451L520.662 104.167V67.6218H527.566V103.049L532.5 102.25L533.618 108.959ZM517.325 95.8251L512.39 100.759C509.764 97.742 505.948 94.3874 501.084 90.8376L505.948 86.0986C510.42 89.3822 514.165 92.5947 517.325 95.8251ZM519.029 80.3124L514.29 85.1046C511.663 82.1405 507.918 78.999 503.054 75.6976L507.918 70.9586C512.248 74.118 515.993 77.2063 519.029 80.2946V80.3124Z" fill="white"/>
<path d="M544.02 127.507L542.564 121.135C544.215 121.402 545.777 121.526 547.356 121.526C548.794 121.526 549.522 120.674 549.522 118.97V105.765C547.285 106.617 544.996 107.415 542.759 108.196L540.984 101.434C543.877 100.777 546.7 99.9253 549.522 99.0023V85.4065H542.298V78.7684H549.522V67.5332H556.231V78.7684H562.408V85.4065H556.231V96.3222C558.325 95.3283 560.437 94.2811 562.532 93.1096V99.8188C560.437 100.937 558.325 101.984 556.231 102.978V120.727C556.231 125.271 553.994 127.561 549.664 127.561H544.02V127.507ZM579.251 76.2302V67.6219H585.961V76.2302H601.136V82.7442H585.961V91.6187H598.651V97.6711C596.681 104.434 593.255 110.22 588.534 115.083C592.474 117.905 597.338 120.408 603 122.644L599.45 128.359C593.202 125.608 587.948 122.573 583.742 119.29C578.808 123.035 572.826 126.123 565.798 128.555L562.585 122.768C568.957 120.798 574.424 118.225 578.879 115.012C573.891 109.953 570.537 104.309 568.815 98.0616H565.389V91.6187H579.251V82.7442H564.076V76.2302H579.251ZM583.529 111.001C587.203 107.327 590.043 102.978 591.942 98.0439H575.24C576.749 102.836 579.518 107.185 583.529 111.001Z" fill="white"/>
</svg>
