<svg width="299" height="150" viewBox="0 0 299 150" fill="none" xmlns="http://www.w3.org/2000/svg">
<g clip-path="url(#clip0_206_160)">
<path d="M31.8304 103.504V95.2783H34.3054L35.7872 100.887L37.2608 95.2783H39.744V103.504H38.2052V97.028L36.5769 103.504H34.9812L33.361 97.028V103.504H31.8223H31.8304Z" fill="white"/>
<path d="M41.3887 103.504V95.2783H47.4623V96.6683H43.0414V98.4916H47.1529V99.8816H43.0414V102.122H47.6169V103.512H41.3887V103.504Z" fill="white"/>
<path d="M49.0091 95.2783H52.0296C52.7135 95.2783 53.2346 95.3355 53.5847 95.4337C54.065 95.5727 54.4802 95.8261 54.8222 96.1941C55.1641 96.562 55.4246 97.0035 55.6038 97.5268C55.7829 98.0501 55.8724 98.7042 55.8724 99.4727C55.8724 100.151 55.791 100.732 55.62 101.222C55.4165 101.819 55.1234 102.31 54.7408 102.678C54.4558 102.964 54.065 103.177 53.5765 103.34C53.2101 103.455 52.7217 103.512 52.111 103.512H49.001V95.2865L49.0091 95.2783ZM50.67 96.6683V102.114H51.8994C52.3634 102.114 52.6972 102.089 52.9008 102.04C53.1694 101.966 53.3893 101.86 53.5684 101.697C53.7475 101.533 53.8859 101.272 53.9999 100.904C54.1139 100.536 54.1708 100.029 54.1708 99.3991C54.1708 98.7696 54.1139 98.279 53.9999 97.9356C53.8859 97.6004 53.7312 97.3306 53.5277 97.1425C53.3241 96.9463 53.0717 96.8236 52.7624 96.75C52.5344 96.701 52.0785 96.6765 51.4027 96.6765H50.6618L50.67 96.6683Z" fill="white"/>
<path d="M57.2319 103.504V95.2783H58.8847V103.504H57.2319Z" fill="white"/>
<path d="M67.8403 103.504H66.041L65.3246 101.639H62.0517L61.3759 103.504H59.6255L62.817 95.2783H64.5674L67.8484 103.504H67.8403ZM64.7954 100.249L63.6718 97.1997L62.5646 100.249H64.7954Z" fill="white"/>
<path d="M71.4795 95.2783H74.7524C75.4037 95.2783 75.8841 95.3028 76.2016 95.3601C76.5191 95.4173 76.8041 95.5236 77.0564 95.6953C77.3088 95.867 77.5205 96.0959 77.6833 96.3821C77.8462 96.6683 77.9357 96.9872 77.9357 97.3469C77.9357 97.7312 77.8299 98.0828 77.6263 98.4098C77.4228 98.7287 77.1379 98.974 76.7878 99.1293C77.2844 99.2765 77.6671 99.5218 77.9357 99.8734C78.2044 100.225 78.3347 100.642 78.3347 101.116C78.3347 101.492 78.2451 101.852 78.0741 102.204C77.9032 102.555 77.6671 102.841 77.3658 103.054C77.0646 103.267 76.6982 103.397 76.2586 103.446C75.9818 103.479 75.3223 103.495 74.2639 103.504H71.4795V95.2783ZM73.1322 96.6438V98.5488H74.215C74.8582 98.5488 75.2572 98.5406 75.42 98.5161C75.7049 98.4834 75.9248 98.3853 76.0876 98.2218C76.2504 98.0582 76.3318 97.8457 76.3318 97.584C76.3318 97.3224 76.2586 97.118 76.1202 96.9626C75.9818 96.7991 75.7701 96.7092 75.5014 96.6765C75.3386 96.6601 74.8664 96.6519 74.0848 96.6519H73.1322V96.6438ZM73.1322 99.9143V102.114H74.6628C75.2572 102.114 75.6398 102.097 75.7945 102.065C76.0387 102.016 76.2423 101.909 76.397 101.738C76.5517 101.566 76.6249 101.329 76.6249 101.043C76.6249 100.797 76.5679 100.585 76.4458 100.413C76.3237 100.241 76.1527 100.119 75.9329 100.037C75.7131 99.9551 75.2165 99.9224 74.4674 99.9224H73.1322V99.9143Z" fill="white"/>
<path d="M79.7191 95.2786H81.3718V99.7346C81.3718 100.446 81.3881 100.896 81.4369 101.108C81.5102 101.443 81.673 101.713 81.9417 101.918C82.2104 102.122 82.5686 102.22 83.0327 102.22C83.4967 102.22 83.855 102.122 84.0911 101.934C84.3272 101.746 84.4737 101.509 84.5226 101.223C84.5714 100.937 84.5959 100.479 84.5959 99.8246V95.2704H86.2486V99.5874C86.2486 100.577 86.2079 101.272 86.1183 101.681C86.0288 102.089 85.8659 102.433 85.6217 102.711C85.3856 102.997 85.0599 103.218 84.661 103.381C84.2621 103.545 83.7329 103.627 83.0815 103.627C82.2999 103.627 81.7056 103.537 81.2985 103.357C80.8915 103.177 80.5739 102.94 80.3378 102.654C80.1017 102.367 79.947 102.057 79.8738 101.738C79.7679 101.272 79.7109 100.569 79.7109 99.6529V95.2622L79.7191 95.2786Z" fill="white"/>
<path d="M87.5757 100.822L89.1877 100.667C89.2854 101.206 89.4808 101.607 89.7739 101.86C90.067 102.114 90.4659 102.245 90.9707 102.245C91.4999 102.245 91.907 102.13 92.1757 101.909C92.4443 101.689 92.5827 101.419 92.5827 101.116C92.5827 100.92 92.5257 100.757 92.4118 100.618C92.2978 100.479 92.1024 100.364 91.8174 100.258C91.622 100.184 91.1824 100.07 90.4985 99.8981C89.6111 99.6773 88.9923 99.4075 88.6341 99.0805C88.1293 98.6308 87.8851 98.0748 87.8851 97.4289C87.8851 97.0119 87.999 96.6194 88.2433 96.2515C88.4794 95.8836 88.8213 95.6056 89.2691 95.4175C89.7088 95.2295 90.2543 95.1313 90.8811 95.1313C91.907 95.1313 92.6804 95.3603 93.2015 95.81C93.7225 96.2597 93.9912 96.8647 94.0156 97.6251L92.3629 97.6987C92.2896 97.2735 92.1431 96.971 91.907 96.7911C91.6709 96.6112 91.3208 96.5131 90.8567 96.5131C90.3927 96.5131 90.0019 96.6112 89.725 96.8157C89.5541 96.9383 89.4645 97.11 89.4645 97.3226C89.4645 97.5188 89.5459 97.6823 89.7088 97.8213C89.9204 97.993 90.4252 98.1811 91.2312 98.3691C92.0372 98.5572 92.6316 98.7616 93.0142 98.9578C93.3969 99.1622 93.6981 99.4402 93.9179 99.7918C94.1378 100.152 94.2436 100.585 94.2436 101.1C94.2436 101.574 94.1133 102.016 93.8528 102.425C93.5923 102.833 93.2259 103.136 92.7456 103.34C92.2652 103.537 91.6709 103.643 90.9626 103.643C89.9286 103.643 89.1307 103.406 88.5771 102.923C88.0235 102.441 87.6897 101.746 87.5838 100.822H87.5757Z" fill="white"/>
<path d="M95.5786 103.504V95.2783H97.2313V103.504H95.5786Z" fill="white"/>
<path d="M98.8188 103.504V95.2783H100.431L103.785 100.773V95.2783H105.324V103.504H103.663L100.358 98.14V103.504H98.8188Z" fill="white"/>
<path d="M107.066 103.504V95.2783H113.14V96.6683H108.719V98.4916H112.831V99.8816H108.719V102.122H113.295V103.512H107.066V103.504Z" fill="white"/>
<path d="M114.28 100.822L115.892 100.667C115.99 101.206 116.185 101.607 116.478 101.86C116.771 102.114 117.17 102.245 117.675 102.245C118.204 102.245 118.611 102.13 118.88 101.909C119.148 101.689 119.287 101.419 119.287 101.116C119.287 100.92 119.23 100.757 119.116 100.618C119.002 100.479 118.806 100.364 118.522 100.258C118.326 100.184 117.886 100.07 117.203 99.8981C116.315 99.6773 115.696 99.4075 115.338 99.0805C114.833 98.6308 114.589 98.0748 114.589 97.4289C114.589 97.0119 114.703 96.6194 114.947 96.2515C115.183 95.8836 115.525 95.6056 115.973 95.4175C116.413 95.2295 116.958 95.1313 117.585 95.1313C118.611 95.1313 119.385 95.3603 119.906 95.81C120.427 96.2597 120.695 96.8647 120.72 97.6251L119.067 97.6987C118.994 97.2735 118.847 96.971 118.611 96.7911C118.375 96.6112 118.025 96.5131 117.561 96.5131C117.097 96.5131 116.706 96.6112 116.429 96.8157C116.258 96.9383 116.169 97.11 116.169 97.3226C116.169 97.5188 116.25 97.6823 116.413 97.8213C116.625 97.993 117.129 98.1811 117.935 98.3691C118.741 98.5572 119.336 98.7616 119.718 98.9578C120.101 99.1622 120.402 99.4402 120.622 99.7918C120.842 100.152 120.948 100.585 120.948 101.1C120.948 101.574 120.817 102.016 120.557 102.425C120.296 102.833 119.93 103.136 119.45 103.34C118.969 103.537 118.375 103.643 117.667 103.643C116.633 103.643 115.835 103.406 115.281 102.923C114.728 102.441 114.394 101.746 114.288 100.822H114.28Z" fill="white"/>
<path d="M121.908 100.822L123.52 100.667C123.618 101.206 123.813 101.607 124.106 101.86C124.4 102.114 124.798 102.245 125.303 102.245C125.832 102.245 126.239 102.13 126.508 101.909C126.777 101.689 126.915 101.419 126.915 101.116C126.915 100.92 126.858 100.757 126.744 100.618C126.63 100.479 126.435 100.364 126.15 100.258C125.955 100.184 125.515 100.07 124.831 99.8981C123.944 99.6773 123.325 99.4075 122.967 99.0805C122.462 98.6308 122.218 98.0748 122.218 97.4289C122.218 97.0119 122.332 96.6194 122.576 96.2515C122.812 95.8836 123.154 95.6056 123.602 95.4175C124.041 95.2295 124.587 95.1313 125.214 95.1313C126.239 95.1313 127.013 95.3603 127.534 95.81C128.055 96.2597 128.324 96.8647 128.348 97.6251L126.695 97.6987C126.622 97.2735 126.476 96.971 126.239 96.7911C126.003 96.6112 125.653 96.5131 125.189 96.5131C124.725 96.5131 124.334 96.6112 124.058 96.8157C123.887 96.9383 123.797 97.11 123.797 97.3226C123.797 97.5188 123.878 97.6823 124.041 97.8213C124.253 97.993 124.758 98.1811 125.564 98.3691C126.37 98.5572 126.964 98.7616 127.347 98.9578C127.729 99.1622 128.031 99.4402 128.25 99.7918C128.47 100.152 128.576 100.585 128.576 101.1C128.576 101.574 128.446 102.016 128.185 102.425C127.925 102.833 127.558 103.136 127.078 103.34C126.598 103.537 126.003 103.643 125.295 103.643C124.261 103.643 123.463 103.406 122.91 102.923C122.356 102.441 122.022 101.746 121.916 100.822H121.908Z" fill="white"/>
<path d="M140.097 103.504H138.297L137.581 101.639H134.308L133.632 103.504H131.882L135.073 95.2783H136.824L140.105 103.504H140.097ZM137.052 100.249L135.928 97.1997L134.821 100.249H137.052Z" fill="white"/>
<path d="M140.552 100.822L142.164 100.667C142.262 101.206 142.457 101.607 142.75 101.86C143.044 102.114 143.442 102.245 143.947 102.245C144.476 102.245 144.884 102.13 145.152 101.909C145.421 101.689 145.559 101.419 145.559 101.116C145.559 100.92 145.502 100.757 145.388 100.618C145.274 100.479 145.079 100.364 144.794 100.258C144.599 100.184 144.159 100.07 143.475 99.8981C142.588 99.6773 141.969 99.4075 141.611 99.0805C141.106 98.6308 140.862 98.0748 140.862 97.4289C140.862 97.0119 140.976 96.6194 141.22 96.2515C141.456 95.8836 141.798 95.6056 142.246 95.4175C142.685 95.2295 143.231 95.1313 143.858 95.1313C144.884 95.1313 145.657 95.3603 146.178 95.81C146.699 96.2597 146.968 96.8647 146.992 97.6251L145.339 97.6987C145.266 97.2735 145.12 96.971 144.884 96.7911C144.647 96.6112 144.297 96.5131 143.833 96.5131C143.369 96.5131 142.978 96.6112 142.702 96.8157C142.531 96.9383 142.441 97.11 142.441 97.3226C142.441 97.5188 142.522 97.6823 142.685 97.8213C142.897 97.993 143.402 98.1811 144.208 98.3691C145.014 98.5572 145.608 98.7616 145.991 98.9578C146.373 99.1622 146.675 99.4402 146.895 99.7918C147.114 100.152 147.22 100.585 147.22 101.1C147.22 101.574 147.09 102.016 146.829 102.425C146.569 102.833 146.202 103.136 145.722 103.34C145.242 103.537 144.647 103.643 143.939 103.643C142.905 103.643 142.107 103.406 141.554 102.923C141 102.441 140.666 101.746 140.56 100.822H140.552Z" fill="white"/>
<path d="M148.189 100.822L149.801 100.667C149.899 101.206 150.094 101.607 150.387 101.86C150.68 102.114 151.079 102.245 151.584 102.245C152.113 102.245 152.52 102.13 152.789 101.909C153.058 101.689 153.196 101.419 153.196 101.116C153.196 100.92 153.139 100.757 153.025 100.618C152.911 100.479 152.716 100.364 152.431 100.258C152.235 100.184 151.796 100.07 151.112 99.8981C150.224 99.6773 149.606 99.4075 149.247 99.0805C148.743 98.6308 148.498 98.0748 148.498 97.4289C148.498 97.0119 148.612 96.6194 148.857 96.2515C149.093 95.8836 149.435 95.6056 149.882 95.4175C150.322 95.2295 150.868 95.1313 151.494 95.1313C152.52 95.1313 153.294 95.3603 153.815 95.81C154.336 96.2597 154.604 96.8647 154.629 97.6251L152.976 97.6987C152.903 97.2735 152.756 96.971 152.52 96.7911C152.284 96.6112 151.934 96.5131 151.47 96.5131C151.006 96.5131 150.615 96.6112 150.338 96.8157C150.167 96.9383 150.078 97.11 150.078 97.3226C150.078 97.5188 150.159 97.6823 150.322 97.8213C150.534 97.993 151.038 98.1811 151.845 98.3691C152.651 98.5572 153.245 98.7616 153.628 98.9578C154.01 99.1622 154.311 99.4402 154.531 99.7918C154.751 100.152 154.857 100.585 154.857 101.1C154.857 101.574 154.727 102.016 154.466 102.425C154.206 102.833 153.839 103.136 153.359 103.34C152.878 103.537 152.284 103.643 151.576 103.643C150.542 103.643 149.744 103.406 149.19 102.923C148.637 102.441 148.303 101.746 148.197 100.822H148.189Z" fill="white"/>
<path d="M155.899 99.4402C155.899 98.6063 156.022 97.9031 156.274 97.3308C156.461 96.9138 156.714 96.5377 157.039 96.2024C157.365 95.8672 157.715 95.6219 158.098 95.4584C158.611 95.2458 159.197 95.1313 159.864 95.1313C161.069 95.1313 162.038 95.5075 162.763 96.2597C163.487 97.0119 163.854 98.0584 163.854 99.3912C163.854 100.724 163.495 101.754 162.771 102.506C162.054 103.25 161.094 103.626 159.889 103.626C158.684 103.626 157.699 103.25 156.982 102.506C156.266 101.762 155.899 100.732 155.899 99.4239V99.4402ZM157.601 99.383C157.601 100.315 157.813 101.018 158.244 101.501C158.676 101.983 159.213 102.22 159.872 102.22C160.532 102.22 161.069 101.983 161.493 101.509C161.916 101.035 162.128 100.315 162.128 99.3666C162.128 98.4182 161.924 97.7232 161.509 97.2572C161.094 96.7911 160.548 96.5622 159.872 96.5622C159.197 96.5622 158.643 96.7911 158.228 97.2654C157.813 97.7314 157.601 98.4427 157.601 99.383Z" fill="white"/>
<path d="M170.375 100.478L171.979 100.993C171.734 101.893 171.327 102.555 170.749 102.997C170.179 103.43 169.455 103.651 168.576 103.651C167.485 103.651 166.597 103.275 165.897 102.531C165.197 101.787 164.847 100.765 164.847 99.4727C164.847 98.0991 165.197 97.0362 165.905 96.284C166.613 95.5236 167.533 95.1475 168.681 95.1475C169.683 95.1475 170.497 95.4418 171.124 96.0387C171.498 96.3903 171.775 96.8972 171.962 97.5513L170.326 97.9437C170.228 97.5186 170.025 97.1752 169.723 96.9299C169.414 96.6846 169.04 96.562 168.6 96.562C167.989 96.562 167.501 96.7827 167.118 97.2161C166.744 97.6576 166.548 98.3607 166.548 99.3419C166.548 100.38 166.736 101.124 167.11 101.566C167.485 102.007 167.965 102.228 168.559 102.228C168.999 102.228 169.373 102.089 169.691 101.811C170.008 101.525 170.236 101.092 170.375 100.487V100.478Z" fill="white"/>
<path d="M173.347 103.504V95.2783H174.999V103.504H173.347Z" fill="white"/>
<path d="M183.955 103.504H182.156L181.439 101.639H178.166L177.491 103.504H175.74L178.932 95.2783H180.682L183.963 103.504H183.955ZM180.91 100.249L179.787 97.1997L178.679 100.249H180.91Z" fill="white"/>
<path d="M185.828 103.504V96.6683H183.401V95.2783H189.906V96.6683H187.48V103.504H185.828Z" fill="white"/>
<path d="M190.924 103.504V95.2783H192.577V103.504H190.924Z" fill="white"/>
<path d="M193.814 99.4402C193.814 98.6063 193.937 97.9031 194.189 97.3308C194.376 96.9138 194.629 96.5377 194.954 96.2024C195.28 95.8672 195.63 95.6219 196.013 95.4584C196.526 95.2458 197.112 95.1313 197.779 95.1313C198.984 95.1313 199.953 95.5075 200.678 96.2597C201.402 97.0119 201.769 98.0584 201.769 99.3912C201.769 100.724 201.411 101.754 200.686 102.506C199.969 103.25 199.009 103.626 197.804 103.626C196.599 103.626 195.614 103.25 194.897 102.506C194.181 101.762 193.814 100.732 193.814 99.4239V99.4402ZM195.524 99.383C195.524 100.315 195.736 101.018 196.167 101.501C196.599 101.983 197.136 102.22 197.796 102.22C198.455 102.22 198.992 101.983 199.416 101.509C199.839 101.035 200.051 100.315 200.051 99.3666C200.051 98.4182 199.847 97.7232 199.432 97.2572C199.017 96.7911 198.471 96.5622 197.796 96.5622C197.12 96.5622 196.566 96.7911 196.151 97.2654C195.736 97.7314 195.524 98.4427 195.524 99.383Z" fill="white"/>
<path d="M203.071 103.504V95.2783H204.683L208.038 100.773V95.2783H209.576V103.504H207.915L204.61 98.14V103.504H203.071Z" fill="white"/>
<path d="M214.152 99.4402C214.152 98.6063 214.274 97.9031 214.526 97.3308C214.714 96.9138 214.966 96.5377 215.292 96.2024C215.617 95.8672 215.967 95.6219 216.35 95.4584C216.863 95.2458 217.449 95.1313 218.117 95.1313C219.322 95.1313 220.291 95.5075 221.015 96.2597C221.74 97.0119 222.106 98.0584 222.106 99.3912C222.106 100.724 221.748 101.754 221.023 102.506C220.307 103.25 219.346 103.626 218.141 103.626C216.936 103.626 215.951 103.25 215.235 102.506C214.518 101.762 214.152 100.732 214.152 99.4239V99.4402ZM215.862 99.383C215.862 100.315 216.073 101.018 216.505 101.501C216.936 101.983 217.474 102.22 218.133 102.22C218.793 102.22 219.33 101.983 219.753 101.509C220.177 101.035 220.388 100.315 220.388 99.3666C220.388 98.4182 220.185 97.7232 219.77 97.2572C219.354 96.7911 218.809 96.5622 218.133 96.5622C217.457 96.5622 216.904 96.7911 216.488 97.2654C216.073 97.7314 215.862 98.4427 215.862 99.383Z" fill="white"/>
<path d="M223.401 103.504V95.2783H229.019V96.6683H225.062V98.6142H228.481V100.004H225.062V103.495H223.409L223.401 103.504Z" fill="white"/>
<path d="M235.401 103.504V96.6683H232.975V95.2783H239.48V96.6683H237.054V103.504H235.401Z" fill="white"/>
<path d="M247.076 103.504H245.277L244.56 101.639H241.288L240.612 103.504H238.861L242.053 95.2783H243.803L247.084 103.504H247.076ZM244.031 100.249L242.908 97.1997L241.8 100.249H244.031Z" fill="white"/>
<path d="M247.907 103.504V95.2783H249.559V103.504H247.907Z" fill="white"/>
<path d="M251.131 103.504V95.2783H253.785C254.795 95.2783 255.446 95.3192 255.755 95.401C256.227 95.5236 256.618 95.7934 256.936 96.2022C257.253 96.6192 257.408 97.1507 257.408 97.8048C257.408 98.3117 257.318 98.7369 257.131 99.0803C256.944 99.4237 256.716 99.6935 256.431 99.8897C256.154 100.086 255.861 100.217 255.576 100.282C255.185 100.364 254.607 100.405 253.858 100.405H252.784V103.504H251.131ZM252.792 96.6683V98.9985H253.695C254.347 98.9985 254.786 98.9576 254.998 98.8677C255.218 98.7778 255.389 98.6469 255.519 98.4589C255.641 98.279 255.706 98.0664 255.706 97.8211C255.706 97.5186 255.617 97.2733 255.446 97.0771C255.267 96.8809 255.047 96.7582 254.778 96.7092C254.583 96.6765 254.184 96.6519 253.59 96.6519H252.792V96.6683Z" fill="white"/>
<path d="M258.768 103.504V95.2783H264.841V96.6683H260.42V98.4916H264.532V99.8816H260.42V102.122H264.996V103.512H258.768V103.504Z" fill="white"/>
<path d="M266.347 103.504V95.2783H268V103.504H266.347Z" fill="white"/>
<path d="M232.576 75.6553C233.382 76.5629 233.586 77.3724 233.586 78.2799C233.586 80.5039 231.77 82.319 229.564 82.319C228.456 82.319 227.154 81.6158 226.445 80.8064L180.079 25.1506V55.9587H198.186C200.401 55.9587 202.11 57.782 202.11 59.9978C202.11 62.2136 200.401 63.9388 198.186 63.9388H180.079V77.9774C180.079 80.2995 178.166 82.319 175.756 82.319C173.346 82.319 171.531 80.2995 171.531 77.9774V14.3416C171.531 11.9132 173.444 10 175.756 10C176.961 10 178.174 10.5069 179.273 11.717L232.584 75.6553H232.576Z" fill="white"/>
<path d="M239.838 18.7891H224.149C221.935 18.7891 220.127 16.974 220.127 14.75C220.127 12.5261 221.935 10.8091 224.149 10.8091H264.084C266.298 10.8091 268.008 12.5261 268.008 14.75C268.008 16.974 266.298 18.7891 264.084 18.7891H248.395V77.9852C248.395 80.3073 246.482 82.3268 244.072 82.3268C241.662 82.3268 239.846 80.3073 239.846 77.9852V18.7891H239.838Z" fill="white"/>
<path d="M154.23 45.4521C161.671 42.7213 164.993 35.3544 164.993 28.9851C164.993 18.4787 156.746 9.9917 145.282 9.9917H128.69V10.0244C128.592 10.0244 128.495 9.9917 128.397 9.9917C127.086 9.9917 125.987 10.4986 124.88 11.7087L93.9013 48.7799V14.3415C93.9013 11.9131 91.988 9.99988 89.6758 9.99988C88.2673 9.99988 87.2578 10.5068 86.1587 11.7169L32.8398 75.6552C32.0338 76.5628 31.8384 77.3722 31.8384 78.2798C31.8384 80.5037 33.6458 82.3189 35.8603 82.3189C36.9675 82.3189 38.1725 81.7138 38.9785 80.8063L85.3445 25.1505V77.9855C85.3445 80.3075 87.2578 82.3271 89.6677 82.3271C92.0776 82.3271 93.8931 80.3075 93.8931 77.9855V61.3141L124.066 25.1505V77.9855C124.066 80.3075 125.979 82.3271 128.389 82.3271C128.487 82.3271 128.584 82.3189 128.682 82.3107V82.3271H145.885C157.552 82.3271 166.003 73.6439 166.003 62.933C166.003 55.8605 161.981 48.183 154.238 45.4603L154.23 45.4521ZM144.68 74.347H132.622V17.9799H144.078C151.421 17.9799 156.143 23.0328 156.143 29.4921C156.143 35.9513 151.112 41.7156 144.778 41.7156H141.456C139.241 41.7156 137.532 43.5307 137.532 45.7546C137.532 47.9786 139.241 49.6956 141.456 49.6956H145.38C151.918 49.6956 157.145 55.8605 157.145 62.426C157.145 68.9916 152.219 74.347 144.672 74.347H144.68Z" fill="white"/>
<path d="M30.9998 130.526C32.3025 130.232 34.0936 128.4 36.3814 125.032L38.0748 125.612C36.6908 127.534 35.2904 129.153 33.8494 130.453C36.7559 130.346 39.5566 130.158 42.2759 129.905C41.7304 129.079 41.1686 128.327 40.5987 127.607L42.0723 126.904C43.4564 128.621 44.7753 130.51 46.021 132.587L44.4334 133.38C44.0263 132.66 43.6274 131.99 43.2366 131.352C39.6624 131.663 35.6812 131.9 31.3011 132.071L30.9917 130.526H30.9998ZM44.1077 140.967H42.4631V140.264H34.0611V140.967H32.4165V133.674H44.1077V140.967ZM42.4713 138.702V135.236H34.0611V138.702H42.4713Z" fill="white"/>
<path d="M58.9169 125.155V137.844C59.3077 137.738 59.7067 137.623 60.1137 137.517V139.079C57.9074 139.676 55.5463 140.191 53.0225 140.608L52.6479 139.062C54.2193 138.858 55.7743 138.596 57.2805 138.253V131.336H53.0225V129.774H57.2805V125.155H58.9251H58.9169ZM63.4518 140.363C62.1898 140.363 61.5548 139.741 61.5548 138.539V125.146H63.1994V129.889L67.7668 129.578V131.123L63.1994 131.45V138.302C63.1994 138.645 63.4029 138.817 63.8344 138.817H65.3894C65.8372 138.817 66.1385 138.695 66.3257 138.474C66.513 138.22 66.6351 137.362 66.7002 135.915L68.1901 136.43C68.0843 138.269 67.8645 139.381 67.5225 139.774C67.1806 140.15 66.5618 140.354 65.6581 140.354H63.4518V140.363Z" fill="white"/>
<path d="M81.6566 126.937C81.396 126.316 81.1274 125.735 80.8343 125.22L82.5765 124.942C82.8371 125.547 83.0732 126.209 83.3093 126.937H90.1645V128.499H83.3581V130.371H88.9107V136.74C88.9107 137.836 88.3326 138.408 87.2009 138.408H85.4749L85.0679 136.863L86.688 136.953C87.0951 136.953 87.3068 136.748 87.3068 136.372V131.941H83.3581V140.935H81.7135V131.941H77.9684V138.531H76.3808V130.379H81.7135V128.507H74.9072V126.945H81.6403L81.6566 126.937Z" fill="white"/>
<path d="M99.7471 136.626C99.2341 137.967 98.6561 139.12 97.9885 140.093L96.7754 139.218C97.4756 138.327 98.078 137.28 98.5665 136.045L99.7471 136.626ZM98.0373 133.347L97.0115 132.382C97.8338 131.23 98.4444 129.856 98.8271 128.278L100.13 128.621C100.008 129.136 99.8692 129.619 99.7389 130.044C100.219 130.543 100.643 131.042 101.001 131.524L100.024 132.538C99.804 132.145 99.5435 131.745 99.2341 131.352C98.8759 132.145 98.4851 132.791 98.0373 133.347ZM100.35 134.034V133.159H101.856V134.034H104.917V135.489H101.856V140.829H100.35V135.489H97.3046V134.034H100.35ZM101.921 126.528H104.705V128.008H97.443V126.528H100.301C100.13 126.079 99.9587 125.686 99.7552 125.326L101.416 125.048C101.587 125.498 101.758 125.972 101.929 126.528H101.921ZM103.663 128.605C103.541 129.153 103.427 129.668 103.289 130.15C103.663 130.51 104.005 130.853 104.298 131.181C105.153 129.357 105.747 127.387 106.13 125.277L107.62 125.531C107.449 126.34 107.245 127.125 107.026 127.902H109.11C108.817 127.076 108.475 126.291 108.1 125.498L109.655 125.089C110.079 126.119 110.404 127.043 110.649 127.902H112.293V129.382H110.445V131.459H112V132.898H110.445V134.893H112.033V136.332H110.445V138.498H112.562V139.954H107.123V140.902H105.633V131.393C105.291 132.064 104.933 132.701 104.559 133.315L104.217 132.219L103.793 132.644C103.533 132.252 103.232 131.851 102.873 131.459C102.613 132.113 102.328 132.66 102.002 133.143L100.976 132.194C101.644 131.115 102.124 129.807 102.409 128.278L103.671 128.605H103.663ZM105.3 138.907L104.119 139.815C103.525 138.645 102.922 137.648 102.344 136.814L103.386 136.005C104.07 136.896 104.722 137.861 105.3 138.907ZM107.115 129.374V131.45H108.947V129.374H107.115ZM107.115 134.893H108.947V132.898H107.115V134.893ZM107.115 138.49H108.947V136.323H107.115V138.49Z" fill="white"/>
<path d="M121.225 127.06C120.988 126.512 120.712 125.964 120.419 125.449L121.925 125.016C122.267 125.768 122.543 126.438 122.747 127.06H124.392V128.54H119.124V127.06H121.225ZM121.013 140.935H119.523V134.672H124.09V140.681H122.641V139.962H121.021V140.943L121.013 140.935ZM123.936 129.684V131.091H119.71V129.684H123.936ZM123.936 132.104V133.511H119.71V132.104H123.936ZM122.641 136.111H121.021V138.482H122.641V136.111ZM126.777 135.13C126.451 136.847 125.987 138.327 125.409 139.561L124.131 138.752C124.709 137.55 125.141 136.242 125.393 134.835L126.777 135.13ZM128.91 127.15V125.089H130.514V127.15H134.341V128.695H130.514V131.05H133.933V132.579H125.645V131.05H128.91V128.695H125.181V127.15H128.91ZM128.78 140.608C127.721 140.608 127.209 140.044 127.209 138.94V134.566H128.731V138.621C128.731 138.948 128.902 139.12 129.26 139.12H130.644C130.815 139.12 130.954 139.03 131.035 138.883C131.141 138.711 131.206 138.212 131.239 137.37L132.655 137.82C132.549 139.177 132.362 139.986 132.093 140.256C131.817 140.493 131.426 140.616 130.897 140.616H128.78V140.608ZM131.581 135.367L130.449 136.225C129.83 135.26 129.22 134.426 128.633 133.74L129.675 132.93C130.359 133.682 130.994 134.492 131.572 135.367H131.581ZM134.862 138.834L133.583 139.414C133.119 137.803 132.606 136.389 132.061 135.171L133.396 134.721C133.942 136.013 134.438 137.378 134.87 138.825L134.862 138.834Z" fill="white"/>
<path d="M149.842 126.356H156.477V127.902H151.934L153.18 128.335C152.871 128.956 152.545 129.504 152.187 130.003H155.883V139.103C155.883 140.272 155.305 140.869 154.173 140.869H152.447L152.056 139.463H145.633V134.95H152.333V139.414L153.701 139.447C154.108 139.447 154.32 139.209 154.32 138.76V131.45H151.601V132.464C151.601 132.807 151.755 132.995 152.097 132.995H153.823V134.32H151.43C150.558 134.32 150.127 133.928 150.127 133.135V131.45H147.823C147.684 132.415 147.375 133.184 146.935 133.764C146.39 134.418 145.535 134.95 144.387 135.342L143.671 134.075C144.558 133.78 145.226 133.388 145.657 132.906C145.967 132.529 146.17 132.031 146.309 131.442H143.622V140.837H142.051V130.003H145.657C145.421 129.422 145.144 128.85 144.819 128.335L145.967 127.902H141.489V126.356H148.14C147.969 125.948 147.798 125.547 147.627 125.204L149.37 124.909C149.541 125.343 149.695 125.817 149.866 126.348L149.842 126.356ZM150.436 129.995C150.868 129.324 151.242 128.621 151.568 127.902H146.374C146.699 128.507 146.992 129.21 147.261 129.995H150.444H150.436ZM150.762 136.315H147.155V138.048H150.762V136.315Z" fill="white"/>
<path d="M170.358 125.105V127.591H171.775V125.105H173.346V127.591H174.543C175.007 126.872 175.398 126.136 175.74 125.343L177.246 125.907C176.888 126.544 176.53 127.109 176.171 127.591H178.614V129.014H173.843L175.162 129.48C174.926 129.872 174.682 130.232 174.413 130.575H177.832V131.998H171.938V132.938H177.034V134.296H171.938V135.236H178.606V136.675H171.938V140.984H170.293V136.675H163.625V135.236H170.293V134.296H165.197V132.938H170.293V131.998H164.399V130.575H167.818C167.598 130.167 167.338 129.782 167.069 129.423L168.185 129.014H163.617V127.591H166.043C165.767 126.994 165.425 126.438 165.05 125.923L166.573 125.359C166.947 125.98 167.289 126.733 167.615 127.591H168.795V125.105H170.367H170.358ZM168.681 137.959C167.639 139.021 166.336 139.954 164.798 140.738L163.788 139.43C165.294 138.743 166.573 137.918 167.598 136.994L168.673 137.959H168.681ZM168.681 129.014C168.974 129.48 169.243 129.995 169.504 130.575H172.614C172.972 130.06 173.281 129.545 173.55 129.014H168.681ZM178.378 139.577L177.214 140.747C176.359 139.904 175.178 139.013 173.639 138.048L174.682 137.035C176.155 137.893 177.385 138.735 178.37 139.577H178.378Z" fill="white"/>
<path d="M196.362 140.878L195.915 139.251L198.072 139.316C198.447 139.316 198.634 139.079 198.634 138.596V127.248H187.863V140.927H186.234V125.662H200.254V138.948C200.254 140.215 199.692 140.869 198.593 140.869H196.354L196.362 140.878ZM197.608 128.883V130.396H188.889V128.883H197.608ZM196.737 131.949V137.697H189.784V131.949H196.737ZM195.166 133.413H191.355V136.242H195.166V133.413Z" fill="white"/>
<path d="M214.64 125.105V127.591H216.057V125.105H217.628V127.591H218.825C219.289 126.872 219.68 126.136 220.022 125.343L221.528 125.907C221.17 126.544 220.812 127.109 220.453 127.591H222.896V129.014H218.125L219.444 129.48C219.208 129.872 218.964 130.232 218.695 130.575H222.114V131.998H216.22V132.938H221.316V134.296H216.22V135.236H222.888V136.675H216.22V140.984H214.575V136.675H207.907V135.236H214.575V134.296H209.479V132.938H214.575V131.998H208.681V130.575H212.1C211.88 130.167 211.62 129.782 211.351 129.423L212.459 129.014H207.891V127.591H210.317C210.04 126.994 209.699 126.438 209.324 125.923L210.846 125.359C211.221 125.98 211.563 126.733 211.889 127.591H213.069V125.105H214.64ZM212.963 137.959C211.921 139.021 210.619 139.954 209.08 140.738L208.07 139.43C209.576 138.743 210.855 137.918 211.88 136.994L212.955 137.959H212.963ZM212.963 129.014C213.256 129.48 213.525 129.995 213.786 130.575H216.896C217.254 130.06 217.563 129.545 217.84 129.014H212.971H212.963ZM222.66 139.577L221.496 140.747C220.641 139.904 219.46 139.013 217.921 138.048L218.964 137.035C220.437 137.893 221.667 138.735 222.66 139.577Z" fill="white"/>
<path d="M235.906 126.274C234.693 129.708 233.105 132.333 231.119 134.173L229.84 133.053C231.892 131.197 233.398 128.727 234.383 125.653L235.906 126.274ZM243.925 140.264L242.403 140.951C242.167 140.37 241.939 139.839 241.703 139.34C238.731 139.79 235.409 140.133 231.77 140.37L231.477 138.792C232.69 138.4 234.383 135.767 236.557 130.91L238.161 131.458C236.793 134.361 235.393 136.781 233.993 138.702C236.419 138.547 238.763 138.294 241.035 137.95C240.457 136.814 239.871 135.767 239.276 134.843L240.75 134.361C241.979 136.217 243.038 138.171 243.933 140.264H243.925ZM241.279 125.604C241.857 128.629 243.241 131.066 245.399 132.954L244.112 134.107C242.093 132.251 240.742 129.921 240.042 127.141H237.306V125.612H241.271L241.279 125.604Z" fill="white"/>
<path d="M252.596 130.355L251.741 128.997C254.477 127.861 256.952 126.577 259.174 125.114H260.168C262.39 126.577 264.865 127.861 267.601 128.973L266.746 130.347C266.42 130.191 266.111 130.036 265.802 129.897V134.459H253.524V129.913C253.215 130.052 252.889 130.191 252.588 130.347L252.596 130.355ZM263.091 128.54V129.177H256.235V128.581C255.413 129.006 254.542 129.439 253.638 129.889H265.745C264.784 129.439 263.897 128.998 263.099 128.548L263.091 128.54ZM265.175 140.984H263.62V140.436H255.739V141H254.184V135.179H265.175V140.984ZM258.938 131.091H255.022V133.274H258.938V131.091ZM263.62 137.19V136.381H255.739V137.19H263.62ZM263.62 139.144V138.302H255.739V139.144H263.62ZM257.929 132.881L256.854 133.159C256.634 132.595 256.357 132.047 256.032 131.532L257.106 131.189C257.416 131.687 257.685 132.252 257.929 132.889V132.881ZM259.671 126.496C258.938 126.978 258.149 127.477 257.31 127.975H262.065C261.177 127.46 260.388 126.978 259.671 126.496ZM264.32 131.091H260.404V133.274H264.32V131.091ZM263.278 131.475C263.074 132.113 262.797 132.677 262.472 133.159L261.413 132.767C261.706 132.358 261.959 131.843 262.203 131.205L263.278 131.483V131.475Z" fill="white"/>
</g>
<defs>
<clipPath id="clip0_206_160">
<rect width="237" height="131" fill="white" transform="translate(31 10)"/>
</clipPath>
</defs>
</svg>
