<svg width="293" height="150" viewBox="0 0 293 150" fill="none" xmlns="http://www.w3.org/2000/svg">
<g clip-path="url(#clip0_206_375)">
<path d="M123.593 16.144H101.293V38.1625H123.593V16.144Z" fill="white"/>
<path d="M123.593 53.2935H101.293V112.845H123.593V53.2935Z" fill="white"/>
<path d="M172.032 91.0429L154.02 91.2109V74.88H177.138L177.39 74.304H177.499L178.51 71.7602L187.107 52.1895H154.02V37.1066H191.984L200.593 16H130.239V112.845L164.844 112.869L172.032 91.0429Z" fill="white"/>
<path d="M223.855 16H205.505L170.166 112.845H195.042L199.931 97.9784H229.707L234.463 112.845H259.339L223.855 16ZM206.589 78.2278L215.294 52.5255L223.446 78.2278H206.589Z" fill="white"/>
<path d="M54.7923 73.1041V112.917H78.5847V65.3527V37.1306H93.8522V37.1066V16.024V16H31V16.024V37.1066V37.1306H54.7923V73.1041Z" fill="white"/>
<path d="M33.2515 125.361H35.2863V133.796H37.0202V125.361H39.0551V123.909H33.2515V125.361Z" fill="white"/>
<path d="M44.5697 128.3C44.5697 127.544 44.3891 127.004 44.0279 126.68C43.6666 126.356 43.0887 126.188 42.2699 126.188C41.4512 126.188 40.825 126.368 40.4157 126.716C40.0183 127.064 39.8136 127.676 39.8136 128.552H41.3428C41.3428 128.144 41.403 127.856 41.5234 127.712C41.6438 127.568 41.8846 127.496 42.2458 127.496C42.5348 127.496 42.7275 127.544 42.8238 127.652C42.9201 127.76 42.9803 127.928 42.9803 128.18C42.9803 128.444 42.884 128.648 42.7034 128.792C42.5228 128.936 42.2218 129.08 41.8124 129.248C41.0658 129.572 40.5361 129.908 40.223 130.256C39.9099 130.604 39.7534 131.108 39.7534 131.768C39.7534 133.244 40.3675 133.976 41.5956 133.976C41.8605 133.976 42.1134 133.892 42.3542 133.748C42.595 133.592 42.8358 133.328 43.0766 132.956C43.0646 133.064 43.0526 133.148 43.0526 133.208C43.0526 133.436 43.0887 133.628 43.1489 133.796H44.678C44.5938 133.496 44.5456 133.16 44.5456 132.788V128.3H44.5697ZM42.9683 131.516C42.9683 132.284 42.6913 132.668 42.1495 132.668C41.6438 132.668 41.3789 132.344 41.3789 131.72C41.3789 131.42 41.415 131.192 41.4993 131.048C41.5836 130.904 41.7522 130.736 42.0171 130.556L42.9683 129.896V131.528V131.516Z" fill="white"/>
<path d="M47.9655 126.38H46.3521V133.784H47.9655V126.38Z" fill="white"/>
<path d="M47.9655 123.896H46.3521V125.456H47.9655V123.896Z" fill="white"/>
<path d="M54.5638 132.08L53.6246 126.38H52.2881L51.4332 132.08L50.6867 126.38H49.001L50.4579 133.796H52.2399L52.9744 129.488L53.6968 133.796H55.4548L56.9117 126.38H55.2982L54.5638 132.08Z" fill="white"/>
<path d="M62.4623 128.3C62.4623 127.544 62.2817 127.004 61.9204 126.68C61.5592 126.356 60.9813 126.188 60.1625 126.188C59.3437 126.188 58.7176 126.368 58.3082 126.716C57.9109 127.064 57.7062 127.676 57.7062 128.552H59.2354C59.2354 128.144 59.2956 127.856 59.416 127.712C59.5364 127.568 59.7772 127.496 60.1384 127.496C60.4274 127.496 60.62 127.544 60.7164 127.652C60.8127 127.76 60.8729 127.928 60.8729 128.18C60.8729 128.444 60.7766 128.648 60.596 128.792C60.4153 128.936 60.1143 129.08 59.7049 129.248C58.9584 129.572 58.4286 129.908 58.1156 130.256C57.8025 130.604 57.646 131.108 57.646 131.768C57.646 133.244 58.2601 133.976 59.4882 133.976C59.7531 133.976 60.006 133.892 60.2468 133.748C60.4876 133.592 60.7284 133.328 60.9692 132.956C60.9572 133.064 60.9451 133.148 60.9451 133.208C60.9451 133.436 60.9813 133.628 61.0415 133.796H62.5706C62.4863 133.496 62.4382 133.16 62.4382 132.788V128.3H62.4623ZM60.8488 131.516C60.8488 132.284 60.5719 132.668 60.03 132.668C59.5243 132.668 59.2594 132.344 59.2594 131.72C59.2594 131.42 59.2956 131.192 59.3799 131.048C59.4641 130.904 59.6327 130.736 59.8976 130.556L60.8488 129.896V131.528V131.516Z" fill="white"/>
<path d="M67.1701 126.189C66.4838 126.189 65.9901 126.537 65.6891 127.221V126.381H64.0757V133.784H65.6891V128.817C65.6891 127.929 65.954 127.497 66.4838 127.497C66.7487 127.497 66.9293 127.593 67.0256 127.773C67.122 127.953 67.1822 128.265 67.1822 128.697V133.784H68.7956V128.049C68.7956 127.437 68.6511 126.969 68.3501 126.657C68.0611 126.345 67.6638 126.177 67.1942 126.177L67.1701 126.189Z" fill="white"/>
<path d="M75.2011 123.909H73.4673V133.784H75.2011V123.909Z" fill="white"/>
<path d="M79.8969 126.189C79.2105 126.189 78.7169 126.537 78.4159 127.221V126.381H76.8145V133.784H78.4159V128.817C78.4159 127.929 78.6808 127.497 79.2105 127.497C79.4754 127.497 79.6561 127.593 79.7524 127.773C79.8487 127.953 79.9089 128.265 79.9089 128.697V133.784H81.5103V128.049C81.5103 127.437 81.3658 126.969 81.0648 126.657C80.7758 126.345 80.3785 126.177 79.9089 126.177L79.8969 126.189Z" fill="white"/>
<path d="M84.665 124.329H83.0516V126.38H82.4014V127.64H83.0516V132.584C83.0516 133.064 83.172 133.4 83.4248 133.604C83.6656 133.808 84.0269 133.904 84.4964 133.904C84.7854 133.904 85.0744 133.88 85.3393 133.844V132.512C85.255 132.524 85.1828 132.536 85.1105 132.536C84.8938 132.536 84.7613 132.488 84.7252 132.38C84.6891 132.272 84.665 132.176 84.665 132.08V127.64H85.3393V126.38H84.665V124.329Z" fill="white"/>
<path d="M88.6866 126.188C87.1093 126.188 86.3267 127.112 86.3267 128.948V130.964C86.3267 132.044 86.5313 132.812 86.9407 133.28C87.3501 133.748 88.0003 133.988 88.8913 133.988C90.3723 133.988 91.1188 133.1 91.1188 131.312H89.5054V131.66C89.5054 132.332 89.2525 132.68 88.7468 132.68C88.4579 132.68 88.2411 132.584 88.1087 132.392C87.9762 132.2 87.916 131.912 87.916 131.504V130.436H91.1068V129.296C91.1068 127.988 90.9021 127.148 90.4927 126.764C90.0833 126.38 89.4693 126.188 88.6746 126.188H88.6866ZM89.5174 129.116H87.9401V128.66C87.9401 128.24 87.9883 127.94 88.0966 127.76C88.193 127.58 88.3976 127.484 88.6987 127.484C88.9997 127.484 89.2044 127.556 89.3368 127.688C89.4693 127.82 89.5295 128.06 89.5295 128.396V129.092L89.5174 129.116Z" fill="white"/>
<path d="M94.1771 127.701V126.393H92.6118V133.796H94.2132V129.44C94.2132 128.613 94.6467 128.193 95.5136 128.193C95.622 128.193 95.7424 128.193 95.8628 128.217V126.201C95.4534 126.201 95.1042 126.333 94.8393 126.609C94.5744 126.885 94.3457 127.245 94.1771 127.713V127.701Z" fill="white"/>
<path d="M99.8366 126.189C99.1503 126.189 98.6567 126.537 98.3556 127.221V126.381H96.7422V133.784H98.3556V128.817C98.3556 127.929 98.6205 127.497 99.1503 127.497C99.4152 127.497 99.5958 127.593 99.6921 127.773C99.7885 127.953 99.8487 128.265 99.8487 128.697V133.784H101.45V128.049C101.45 127.437 101.306 126.969 101.005 126.657C100.716 126.345 100.318 126.177 99.8487 126.177L99.8366 126.189Z" fill="white"/>
<path d="M105.194 126.188C103.617 126.188 102.834 127.112 102.834 128.948V130.964C102.834 132.044 103.039 132.812 103.449 133.28C103.858 133.748 104.508 133.988 105.399 133.988C106.88 133.988 107.627 133.1 107.627 131.312H106.025V131.66C106.025 132.332 105.772 132.68 105.267 132.68C104.978 132.68 104.761 132.584 104.629 132.392C104.496 132.2 104.436 131.912 104.436 131.504V130.436H107.627V129.296C107.627 127.988 107.422 127.148 107.013 126.764C106.603 126.38 105.989 126.188 105.194 126.188ZM106.013 129.116H104.424V128.66C104.424 128.24 104.472 127.94 104.568 127.76C104.665 127.58 104.869 127.484 105.17 127.484C105.471 127.484 105.676 127.556 105.809 127.688C105.941 127.82 106.001 128.06 106.001 128.396V129.092L106.013 129.116Z" fill="white"/>
<path d="M110.793 124.329H109.18V126.38H108.53V127.64H109.18V132.584C109.18 133.064 109.3 133.4 109.553 133.604C109.794 133.808 110.155 133.904 110.625 133.904C110.914 133.904 111.203 133.88 111.468 133.844V132.512C111.383 132.524 111.311 132.536 111.239 132.536C111.022 132.536 110.89 132.488 110.854 132.38C110.818 132.272 110.793 132.176 110.793 132.08V127.64H111.468V126.38H110.793V124.329Z" fill="white"/>
<path d="M120.221 128.3C120.221 127.544 120.04 127.004 119.679 126.68C119.318 126.356 118.74 126.188 117.921 126.188C117.103 126.188 116.476 126.368 116.067 126.716C115.67 127.064 115.465 127.676 115.465 128.552H116.994C116.994 128.144 117.054 127.856 117.175 127.712C117.295 127.568 117.536 127.496 117.897 127.496C118.186 127.496 118.379 127.544 118.475 127.652C118.571 127.76 118.632 127.928 118.632 128.18C118.632 128.444 118.535 128.648 118.355 128.792C118.174 128.936 117.873 129.08 117.464 129.248C116.717 129.572 116.187 129.908 115.874 130.256C115.561 130.604 115.405 131.108 115.405 131.768C115.405 133.244 116.019 133.976 117.247 133.976C117.512 133.976 117.765 133.892 118.006 133.748C118.246 133.592 118.487 133.328 118.728 132.956C118.716 133.064 118.704 133.148 118.704 133.208C118.704 133.436 118.74 133.628 118.8 133.796H120.329C120.245 133.496 120.197 133.16 120.197 132.788V128.3H120.221ZM118.608 131.516C118.608 132.284 118.331 132.668 117.789 132.668C117.271 132.668 117.018 132.344 117.018 131.72C117.018 131.42 117.054 131.192 117.139 131.048C117.223 130.904 117.391 130.736 117.656 130.556L118.608 129.896V131.528V131.516Z" fill="white"/>
<path d="M124.941 126.189C124.255 126.189 123.761 126.537 123.448 127.221V126.381H121.835V133.784H123.448V128.817C123.448 127.929 123.713 127.497 124.243 127.497C124.508 127.497 124.689 127.593 124.785 127.773C124.881 127.953 124.941 128.265 124.941 128.697V133.784H126.543V128.049C126.543 127.437 126.398 126.969 126.097 126.657C125.808 126.345 125.411 126.177 124.941 126.177V126.189Z" fill="white"/>
<path d="M131.022 127.113C130.769 126.489 130.287 126.189 129.589 126.189C129.071 126.189 128.662 126.393 128.373 126.789C128.084 127.185 127.939 127.893 127.939 128.889V131.42C127.939 132.38 128.084 133.052 128.385 133.424C128.686 133.796 129.107 133.988 129.661 133.988C130.299 133.988 130.757 133.64 131.034 132.956V133.796H132.647V123.921H131.034V127.125L131.022 127.113ZM131.022 131.204C131.022 132.188 130.757 132.68 130.227 132.68C129.77 132.68 129.541 132.296 129.541 131.516V128.505C129.541 127.845 129.782 127.509 130.251 127.509C130.769 127.509 131.034 127.953 131.034 128.841V131.204H131.022Z" fill="white"/>
<path d="M137.343 133.796H142.268V132.344H139.077V129.308H142.027V127.868H139.077V125.361H142.268V123.909H137.343V133.796Z" fill="white"/>
<path d="M146.229 128.912H143.327V130.436H146.229V128.912Z" fill="white"/>
<path d="M151.25 132.008C151.106 132.332 150.877 132.5 150.576 132.5C150.179 132.5 149.866 132.344 149.649 132.032C149.444 131.72 149.336 131.192 149.336 130.46V127.257C149.336 125.889 149.745 125.193 150.564 125.193C150.889 125.193 151.118 125.337 151.226 125.637C151.347 125.937 151.407 126.381 151.407 126.993H153.116C153.116 125.865 152.912 125.037 152.49 124.497C152.069 123.957 151.395 123.693 150.443 123.693C149.444 123.693 148.71 123.993 148.24 124.605C147.782 125.205 147.554 126.285 147.554 127.845V129.932C147.554 131.384 147.77 132.416 148.216 133.052C148.661 133.676 149.444 133.988 150.588 133.988C151.551 133.988 152.225 133.652 152.623 132.992C153.02 132.332 153.213 131.432 153.213 130.28H151.479C151.479 131.084 151.407 131.66 151.262 131.996L151.25 132.008Z" fill="white"/>
<path d="M156.873 126.189C156.042 126.189 155.428 126.405 155.019 126.849C154.609 127.293 154.405 128.241 154.405 129.717V130.568C154.405 131.876 154.573 132.776 154.923 133.256C155.26 133.736 155.922 133.976 156.873 133.976C157.824 133.976 158.438 133.736 158.788 133.256C159.137 132.776 159.305 131.828 159.305 130.412V129.525C159.305 128.217 159.113 127.341 158.739 126.873C158.366 126.405 157.74 126.177 156.873 126.177V126.189ZM157.692 131.42C157.692 131.9 157.644 132.236 157.535 132.416C157.439 132.596 157.21 132.68 156.873 132.68C156.536 132.68 156.319 132.596 156.199 132.44C156.078 132.284 156.006 131.936 156.006 131.42V128.697C156.006 128.277 156.078 127.965 156.211 127.785C156.355 127.605 156.584 127.509 156.885 127.509C157.415 127.509 157.68 127.905 157.68 128.697V131.432L157.692 131.42Z" fill="white"/>
<path d="M167.023 126.189C166.566 126.189 166.204 126.297 165.94 126.513C165.675 126.729 165.506 126.969 165.422 127.209C165.386 126.933 165.241 126.693 164.988 126.489C164.735 126.285 164.398 126.177 163.977 126.177C163.218 126.177 162.677 126.525 162.363 127.209V126.369H160.75V133.772H162.363V128.805C162.363 128.265 162.424 127.905 162.556 127.737C162.689 127.569 162.893 127.485 163.158 127.485C163.459 127.485 163.664 127.581 163.784 127.761C163.893 127.941 163.953 128.253 163.953 128.697V133.784H165.554V128.901C165.554 128.421 165.614 128.061 165.747 127.845C165.879 127.617 166.108 127.509 166.433 127.509C166.698 127.509 166.891 127.617 166.987 127.821C167.083 128.025 167.144 128.349 167.144 128.817V133.808H168.757V127.809C168.757 127.317 168.601 126.921 168.287 126.633C167.986 126.345 167.565 126.201 167.047 126.201L167.023 126.189Z" fill="white"/>
<path d="M176.656 126.189C176.198 126.189 175.837 126.297 175.572 126.513C175.307 126.729 175.139 126.969 175.054 127.209C175.018 126.933 174.874 126.693 174.621 126.489C174.368 126.285 174.031 126.177 173.609 126.177C172.851 126.177 172.309 126.525 171.996 127.209V126.369H170.395V133.772H171.996V128.805C171.996 128.265 172.056 127.905 172.189 127.737C172.321 127.569 172.526 127.485 172.791 127.485C173.092 127.485 173.296 127.581 173.417 127.761C173.525 127.941 173.585 128.253 173.585 128.697V133.784H175.199V128.901C175.199 128.421 175.259 128.061 175.391 127.845C175.524 127.617 175.753 127.509 176.078 127.509C176.343 127.509 176.535 127.617 176.632 127.821C176.728 128.025 176.788 128.349 176.788 128.817V133.808H178.39V127.809C178.39 127.317 178.233 126.921 177.92 126.633C177.619 126.345 177.198 126.201 176.68 126.201L176.656 126.189Z" fill="white"/>
<path d="M182.218 126.188C180.641 126.188 179.858 127.112 179.858 128.948V130.964C179.858 132.044 180.063 132.812 180.472 133.28C180.882 133.748 181.532 133.988 182.423 133.988C183.904 133.988 184.651 133.1 184.651 131.312H183.037V131.66C183.037 132.332 182.784 132.68 182.279 132.68C181.99 132.68 181.773 132.584 181.64 132.392C181.508 132.2 181.448 131.912 181.448 131.504V130.436H184.639V129.296C184.639 127.988 184.434 127.148 184.024 126.764C183.615 126.38 183.001 126.188 182.206 126.188H182.218ZM183.037 129.116H181.46V128.66C181.46 128.24 181.508 127.94 181.604 127.76C181.701 127.58 181.905 127.484 182.206 127.484C182.507 127.484 182.712 127.556 182.844 127.688C182.977 127.82 183.037 128.06 183.037 128.396V129.092V129.116Z" fill="white"/>
<path d="M187.697 127.701V126.393H186.144V133.796H187.757V129.44C187.757 128.613 188.191 128.193 189.058 128.193C189.166 128.193 189.287 128.193 189.407 128.217V126.201C188.986 126.201 188.649 126.333 188.384 126.609C188.119 126.885 187.89 127.245 187.721 127.713L187.697 127.701Z" fill="white"/>
<path d="M192.285 126.188C190.84 126.188 190.117 127.064 190.117 128.816V131.276C190.117 133.076 190.852 133.988 192.321 133.988C193.79 133.988 194.524 133.184 194.524 131.588V130.904H192.911V131.504C192.911 132.284 192.73 132.68 192.357 132.68C191.935 132.68 191.719 132.284 191.719 131.504V128.696C191.719 127.904 191.923 127.496 192.333 127.496C192.718 127.496 192.911 127.712 192.911 128.156V128.96H194.524V128.348C194.524 127.688 194.331 127.172 193.958 126.776C193.585 126.38 193.019 126.188 192.272 126.188H192.285Z" fill="white"/>
<path d="M198.016 126.188C196.438 126.188 195.656 127.112 195.656 128.948V130.964C195.656 132.044 195.86 132.812 196.27 133.28C196.679 133.748 197.329 133.988 198.22 133.988C199.701 133.988 200.448 133.1 200.448 131.312H198.847V131.66C198.847 132.332 198.594 132.68 198.088 132.68C197.799 132.68 197.582 132.584 197.45 132.392C197.317 132.2 197.257 131.912 197.257 131.504V130.436H200.448V129.296C200.448 127.988 200.243 127.148 199.834 126.764C199.424 126.38 198.822 126.188 198.016 126.188ZM198.847 129.116H197.257V128.66C197.257 128.24 197.305 127.94 197.414 127.76C197.51 127.58 197.715 127.484 198.016 127.484C198.317 127.484 198.521 127.556 198.654 127.688C198.786 127.82 198.847 128.06 198.847 128.396V129.092V129.116Z" fill="white"/>
<path d="M206.613 123.909L204.385 133.784H206.252L206.721 131.264H208.744L209.202 133.784H211.068L208.937 123.909H206.613ZM206.998 129.824L207.781 125.769L208.479 129.824H206.998Z" fill="white"/>
<path d="M213.825 127.497C214.054 127.497 214.235 127.557 214.355 127.689C214.488 127.809 214.548 128.133 214.548 128.661H216.161C216.161 127.821 215.981 127.197 215.608 126.801C215.246 126.393 214.668 126.201 213.886 126.201C212.332 126.201 211.55 126.789 211.55 127.977C211.55 128.901 211.947 129.656 212.73 130.244L213.633 130.928C213.898 131.12 214.114 131.288 214.271 131.432C214.44 131.576 214.524 131.78 214.524 132.032C214.524 132.464 214.283 132.692 213.813 132.692C213.344 132.692 213.127 132.392 213.127 131.78C213.127 131.636 213.127 131.492 213.151 131.324H211.538C211.526 131.396 211.514 131.516 211.514 131.66C211.514 133.22 212.296 134 213.862 134C215.427 134 216.137 133.292 216.137 131.864C216.137 131.12 215.764 130.472 215.018 129.932L213.85 129.08C213.597 128.901 213.416 128.745 213.308 128.613C213.199 128.481 213.139 128.325 213.139 128.133C213.139 127.725 213.356 127.521 213.801 127.521L213.825 127.497Z" fill="white"/>
<path d="M219.316 127.497C219.545 127.497 219.725 127.557 219.846 127.689C219.978 127.809 220.05 128.133 220.05 128.661H221.652C221.652 127.821 221.471 127.197 221.098 126.801C220.737 126.393 220.159 126.201 219.376 126.201C217.823 126.201 217.04 126.789 217.04 127.977C217.04 128.901 217.438 129.656 218.22 130.244L219.123 130.928C219.388 131.12 219.605 131.288 219.761 131.432C219.93 131.576 220.014 131.78 220.014 132.032C220.014 132.464 219.773 132.692 219.304 132.692C218.834 132.692 218.618 132.392 218.618 131.78C218.618 131.636 218.618 131.492 218.642 131.324H217.04C217.028 131.396 217.016 131.516 217.016 131.66C217.016 133.22 217.799 134 219.364 134C220.929 134 221.64 133.292 221.64 131.864C221.64 131.12 221.266 130.472 220.52 129.932L219.352 129.08C219.099 128.901 218.919 128.745 218.81 128.613C218.702 128.481 218.642 128.325 218.642 128.133C218.642 127.725 218.858 127.521 219.304 127.521L219.316 127.497Z" fill="white"/>
<path d="M225.276 126.189C224.445 126.189 223.831 126.405 223.422 126.849C223.012 127.293 222.808 128.241 222.808 129.717V130.568C222.808 131.876 222.976 132.776 223.325 133.256C223.675 133.736 224.325 133.976 225.276 133.976C226.227 133.976 226.841 133.736 227.19 133.256C227.54 132.776 227.708 131.828 227.708 130.412V129.525C227.708 128.217 227.516 127.341 227.142 126.873C226.769 126.405 226.143 126.177 225.276 126.177V126.189ZM226.095 131.42C226.095 131.9 226.047 132.236 225.938 132.416C225.842 132.596 225.613 132.68 225.276 132.68C224.939 132.68 224.722 132.596 224.602 132.44C224.481 132.284 224.409 131.936 224.409 131.42V128.697C224.409 128.277 224.481 127.965 224.614 127.785C224.758 127.605 224.975 127.509 225.288 127.509C225.818 127.509 226.083 127.905 226.083 128.697V131.432L226.095 131.42Z" fill="white"/>
<path d="M231.116 126.188C229.671 126.188 228.948 127.064 228.948 128.816V131.276C228.948 133.076 229.683 133.988 231.152 133.988C232.621 133.988 233.355 133.184 233.355 131.588V130.904H231.754V131.504C231.754 132.284 231.573 132.68 231.2 132.68C230.778 132.68 230.562 132.284 230.562 131.504V128.696C230.562 127.904 230.766 127.496 231.176 127.496C231.561 127.496 231.754 127.712 231.754 128.156V128.96H233.355V128.348C233.355 127.688 233.175 127.172 232.789 126.776C232.416 126.38 231.85 126.188 231.104 126.188H231.116Z" fill="white"/>
<path d="M236.353 126.38H234.752V133.784H236.353V126.38Z" fill="white"/>
<path d="M236.353 123.896H234.752V125.456H236.353V123.896Z" fill="white"/>
<path d="M242.603 128.3C242.603 127.544 242.422 127.004 242.061 126.68C241.7 126.356 241.122 126.188 240.303 126.188C239.484 126.188 238.858 126.368 238.449 126.716C238.051 127.064 237.846 127.676 237.846 128.552H239.388C239.388 128.144 239.448 127.856 239.568 127.712C239.689 127.568 239.93 127.496 240.291 127.496C240.58 127.496 240.772 127.544 240.869 127.652C240.965 127.76 241.025 127.928 241.025 128.18C241.025 128.444 240.929 128.648 240.748 128.792C240.568 128.936 240.267 129.08 239.857 129.248C239.111 129.572 238.581 129.908 238.268 130.256C237.955 130.604 237.798 131.108 237.798 131.768C237.798 133.244 238.412 133.976 239.641 133.976C239.905 133.976 240.158 133.892 240.399 133.748C240.652 133.592 240.881 133.328 241.122 132.956C241.11 133.064 241.097 133.148 241.097 133.208C241.097 133.436 241.134 133.628 241.194 133.796H242.735C242.651 133.496 242.603 133.16 242.603 132.788V128.3ZM241.001 131.516C241.001 132.284 240.736 132.668 240.182 132.668C239.677 132.668 239.412 132.344 239.412 131.72C239.412 131.42 239.448 131.192 239.532 131.048C239.616 130.904 239.785 130.736 240.05 130.556L241.001 129.896V131.528V131.516Z" fill="white"/>
<path d="M245.902 124.329H244.288V126.38H243.638V127.64H244.288V132.584C244.288 133.064 244.409 133.4 244.662 133.604C244.914 133.808 245.264 133.904 245.733 133.904C246.022 133.904 246.311 133.88 246.576 133.844V132.512C246.492 132.524 246.42 132.536 246.347 132.536C246.131 132.536 245.998 132.488 245.962 132.38C245.926 132.272 245.902 132.176 245.902 132.08V127.64H246.576V126.38H245.902V124.329Z" fill="white"/>
<path d="M249.429 126.38H247.816V133.784H249.429V126.38Z" fill="white"/>
<path d="M249.429 123.896H247.816V125.456H249.429V123.896Z" fill="white"/>
<path d="M253.463 126.189C252.632 126.189 252.018 126.405 251.609 126.849C251.199 127.293 250.995 128.241 250.995 129.717V130.568C250.995 131.876 251.163 132.776 251.512 133.256C251.85 133.736 252.5 133.976 253.463 133.976C254.426 133.976 255.028 133.736 255.377 133.256C255.727 132.776 255.895 131.828 255.895 130.412V129.525C255.895 128.217 255.703 127.341 255.329 126.873C254.956 126.405 254.33 126.177 253.463 126.177V126.189ZM254.282 131.42C254.282 131.9 254.234 132.236 254.125 132.416C254.029 132.596 253.8 132.68 253.463 132.68C253.126 132.68 252.909 132.596 252.789 132.44C252.668 132.284 252.596 131.936 252.596 131.42V128.697C252.596 128.277 252.668 127.965 252.801 127.785C252.945 127.605 253.162 127.509 253.475 127.509C254.005 127.509 254.27 127.905 254.27 128.697V131.432L254.282 131.42Z" fill="white"/>
<path d="M261.542 126.668C261.253 126.356 260.856 126.188 260.386 126.188C259.7 126.188 259.206 126.536 258.905 127.22V126.38H257.292V133.784H258.905V128.816C258.905 127.928 259.17 127.496 259.7 127.496C259.965 127.496 260.146 127.592 260.242 127.772C260.338 127.952 260.398 128.264 260.398 128.696V133.784H262.012V128.048C262.012 127.436 261.867 126.968 261.566 126.656L261.542 126.668Z" fill="white"/>
</g>
<defs>
<clipPath id="clip0_206_375">
<rect width="231" height="118" fill="white" transform="translate(31 16)"/>
</clipPath>
</defs>
</svg>
