<?xml version="1.0" encoding="utf-8"?>
<!-- Generator: Adobe Illustrator 16.2.1, SVG Export Plug-In . SVG Version: 6.00 Build 0)  -->
<!DOCTYPE svg PUBLIC "-//W3C//DTD SVG 1.1//EN" "http://www.w3.org/Graphics/SVG/1.1/DTD/svg11.dtd">
<svg version="1.1" id="圖層_1" xmlns="http://www.w3.org/2000/svg" xmlns:xlink="http://www.w3.org/1999/xlink" x="0px" y="0px"
	 width="1008.128px" height="420px" viewBox="0 -10 1008.128 420" enable-background="new 0 -10 1008.128 420" xml:space="preserve"
	>
<g>
	<g>
		<path fill="#FFFFFF" d="M606.401,163.473c2.318-0.58,3.479-0.58,4.637-1.738l0,0c-8.115-4.64-15.654-8.697-23.771-13.335
			c-1.158,5.798-3.479,11.596-5.797,16.814c-5.219,13.335-10.438,25.511-17.395,37.108c-3.479,5.797-8.117,15.073-13.336,19.133
			c4.059,7.537,9.277,20.293,11.596,28.99l0,0c2.9-2.898,9.857-12.177,11.016-15.654c0,0,0.58,0,0.58-0.58
			c0,30.15,0,60.879,0,91.029c7.539-1.16,15.076-2.318,22.613-3.479v-120.6c2.898-0.58,3.479-1.16,4.639-2.899
			c-2.318-0.58-4.059-1.739-6.379-2.318C596.543,184.926,604.661,174.49,606.401,163.473z M537.983,270.157
			c1.16-3.479,1.74-6.957,2.898-9.855c1.74-7.537,2.9-15.076,4.639-22.612c1.16-8.117,1.74-16.814,2.9-24.933
			c1.158-0.58,4.059,0,5.797,0v-20.873c-8.117-0.58-16.234-1.738-24.352-2.318c-0.58-0.58,0-3.479,0-4.64
			c0.578-5.218,1.158-11.016,2.318-16.233c1.158-0.58,2.318-0.58,2.898-1.16c0-0.58,0-0.58,0-1.16
			c-6.379-2.898-12.756-5.218-19.135-8.117c0,15.655-3.479,34.788-6.957,48.125c-1.74,6.377-2.32,13.334-5.219,18.553v0.58
			c0-0.58,0-1.739,0-2.319c-8.117,0-16.234-0.578-24.932-0.578v-4.06c7.537,0,15.074,0.58,22.613,0.58v-17.975
			c2.896,0,5.797,0.578,8.695,0.578c0-5.796,0-11.596,0-16.813c-2.898-0.58-5.219-0.58-8.115-1.16v-17.974
			c-7.539-1.159-15.076-2.319-22.613-2.899c0-7.538,1.16-3.479,4.059-7.538v-0.579c-7.537-1.739-14.494-3.479-22.033-5.219l0,0
			v10.438c-8.117-1.16-16.814-2.319-24.932-3.479v19.713c-3.479-0.58-6.957-0.58-10.436-1.158c0,6.378,0,12.756,0,19.713l0,0
			c3.479,0.58,6.957,0.58,10.436,1.16c0,6.958,0,13.335,0,20.292c8.117,0.579,16.234,0.579,24.932,1.159l0,0v3.479
			c-9.275,0-18.553-0.58-28.41-0.58v38.268c6.957,0,14.496-0.58,21.453-0.58c-0.58,1.74-1.74,3.479-2.318,5.22
			c-9.277,0.58-18.555,1.16-27.252,1.737c1.74,7.539,3.479,15.076,5.219,22.613c2.318,0,2.898-1.16,3.48-2.897
			c2.896-0.58,5.799-0.58,8.695-1.16c-2.318,4.639-4.639,8.696-6.957,13.336c6.377,1.16,12.756,2.317,19.135,3.479
			c0-0.58,0-0.58,0.578-1.16c1.16,0.58,2.318,0.58,4.061,1.16c-3.48,2.9-21.453,8.117-27.83,8.697l0,0
			c3.479,5.219,8.117,12.756,8.117,19.715c9.854-1.16,34.787-13.916,39.426-19.135c6.379,1.16,9.857,6.957,15.074,8.697
			c3.479-4.64,6.379-9.277,9.855-14.496c0,0,0.58,0,0.58-0.578c2.318,4.059,5.219,8.695,6.379,13.334c0,0,0,0,0.578,0
			c6.379-8.117,16.236-14.494,19.715-24.352l0,0c1.738,2.897,3.48,5.799,5.219,8.696c2.898,3.479,6.379,6.379,9.275,9.857h0.58
			c3.48-6.959,6.377-13.336,10.439-19.135C548.42,287.552,539.723,277.116,537.983,270.157z M477.682,177.969
			c1.74,0,3.48,0.58,5.219,0.58c0,1.16,0,2.899,0,4.06c-1.736,0-3.479,0-5.219-0.58V177.969z M477.682,197.103
			c1.74,0,3.48,0,5.219,0.58c0,1.16,0,2.899,0,4.06c-1.736,0-3.479,0-5.219,0V197.103z M459.129,241.747c-2.898,0-5.799,0-8.697,0
			v-5.219h8.117C459.129,238.269,459.129,240.009,459.129,241.747L459.129,241.747z M458.549,200.581c-1.74,0-3.479,0-5.219-0.58
			v-4.059l0,0c1.74,0,3.479,0,5.219,0.58l0,0C459.129,197.682,459.129,198.842,458.549,200.581z M459.129,180.288
			c-1.74,0-4.059-0.579-5.799-0.579c0-1.74,0-2.899,0-4.639c1.74,0,3.479,0.58,5.219,0.58l0,0
			C459.129,176.229,459.129,180.288,459.129,180.288z M477.682,236.53h8.117v4.637c-2.898,0-5.217,0-8.117,0V236.53z
			 M477.104,278.854c-1.16,2.32-2.318,4.64-3.479,6.959c-4.061-1.159-8.119-2.899-12.178-4.059v-0.58
			c1.74-1.74,11.018-1.16,13.916-2.32H477.104L477.104,278.854L477.104,278.854z M517.69,276.536
			c-4.639,8.117-10.438,16.233-18.555,21.453c-2.898-1.74-6.377-3.479-9.275-5.22c1.158-2.319,2.318-4.639,2.898-6.956
			c1.158-3.48,2.316-6.959,3.479-10.438c3.479-0.58,7.537-1.16,11.016-1.74c1.16-1.158,1.16-12.176,0.58-15.073
			c-12.756,0.579-24.932,1.739-37.688,2.317l1.74-3.479c7.537-2.318,20.293-2.318,30.148-2.318v-13.916
			c2.898,1.74,5.799,7.537,6.957,10.438c0,0,0,0,0.58,0c1.16-2.318,2.318-5.22,4.061-7.537c0,0,0,0,0.58,0
			c1.156,6.957,2.896,13.334,4.059,20.293c0.58,2.317,1.158,4.639,2.318,6.957C519.428,273.058,518.27,274.796,517.69,276.536z
			 M529.286,241.167L529.286,241.167c-2.318-9.275-4.059-20.293-4.639-30.15c2.9,0,5.799,0,8.697,0.582
			C532.764,221.454,529.866,231.312,529.286,241.167z M863.254,199.421c-0.58-2.898,7.537-19.134,9.277-23.192
			c0.58-2.318,1.738-5.218,2.318-7.536c0,0,2.32,0.58,4.061-1.16v-0.58c-8.119-4.639-15.656-8.697-23.773-13.336
			c-1.158,4.059-2.316,7.538-4.059,11.597c-2.898,8.697-6.957,17.394-11.016,25.511c-4.639,9.277-9.857,18.555-15.656,26.671
			c-2.318,2.898-5.217,6.378-7.537,9.277c-0.58,1.16,2.32,5.797,2.9,6.957c2.318,5.219,8.117,15.656,8.697,21.453l0,0
			c5.797-4.06,8.695-12.176,13.334-17.976c0,0,0,0,0-0.577c0,28.989,0,58.559,0,87.549c7.539-1.158,14.496-2.318,22.033-2.898
			c0-38.848,0-77.692,0-116.541c2.318-0.58,4.059-1.16,4.059-3.479C867.313,200.581,864.995,200.001,863.254,199.421z
			 M689.893,154.197c0.578,50.442,1.738,101.466,2.318,151.909c6.957-0.579,13.916-1.739,20.293-2.319v-16.814
			c9.277-0.58,18.555-1.737,27.252-2.317c0-41.166,0-82.332,0-123.499C723.522,158.835,706.708,156.516,689.893,154.197z
			 M711.924,182.027c2.9,0,5.799,0.58,8.697,0.58c0,9.276,0,19.134,0,28.409c-2.898,0-5.797,0-8.697-0.578
			C711.924,201.741,711.924,191.884,711.924,182.027z M713.084,264.36c0-9.857-0.58-19.716-0.58-29.57h8.697
			c0,9.854,0,19.133,0,28.99C718.883,263.78,715.983,263.78,713.084,264.36z M787.879,195.943c6.957,0.58,14.496,1.159,21.453,1.738
			c0-6.378,0-13.335,0.58-19.713c-6.957-0.58-14.496-1.739-21.453-2.318c0-4.06,0-7.538,0-11.597c1.74-0.58,2.898-1.16,3.479-2.318
			c-0.58-1.159-17.973-5.219-20.873-5.798v17.395c-8.115-1.16-16.232-1.74-24.352-2.899v22.033c8.117,0.58,15.654,1.159,23.771,1.74
			c0.58,0.579,0,9.276,0,11.596c-9.275-0.58-18.553-1.159-27.83-1.739c0,7.539,0,15.075,0,22.612c13.916,0,28.41,0.58,42.326,0.58
			c0,3.479,0,7.537,0,11.017c-13.916,0-27.83,0-41.746,0c0,7.536,0,14.495,0,22.032c13.916-0.58,27.83-1.159,41.746-2.319
			c0,7.539,0,15.076,0,22.612c-0.58,2.898,0.58,6.377-0.58,8.697c-1.16,1.158-11.596,2.318-15.074,2.318
			c1.738,6.379,4.639,12.756,5.219,20.873c9.855-1.16,18.553-4.06,22.611-9.857c4.639-7.537,3.479-33.047,3.479-44.645
			c3.479,0,6.379-0.58,9.857-0.58c0-6.377,0.58-12.756,0.58-19.133h-9.857c0-2.32,0-4.64,0-6.377c1.74-0.58,2.898-1.16,2.898-3.48
			c-2.898,0-5.217,0-8.117-0.578h14.496c0-6.379,0.58-12.756,0.58-19.715c-8.117-0.58-15.656-1.16-23.773-1.738L787.879,195.943
			L787.879,195.943z M605.821,205.8c25.512,1.158,51.023,2.898,76.535,4.06v-20.873c-9.277-1.16-18.555-1.74-27.252-2.899v-22.033
			c1.74-1.16,2.32-0.58,3.479-2.318v-0.58l-22.033-4.64c0,9.277,0,19.135,0,28.411c-10.436-1.16-20.293-1.738-30.729-2.898V205.8
			L605.821,205.8z M938.049,268.419c-1.738-1.74-3.479-4.059-4.639-5.799v-0.578c0,3.479-0.578,6.957-0.578,10.436
			c-1.16,5.22-1.16,11.017-2.898,15.074c0,0-0.58,0-0.58,0.58c-4.641-0.58-5.799-9.277-6.957-13.336
			c-3.48-13.336-6.377-29.57-6.957-44.645c9.854-1.16,19.713-2.318,29.568-2.898c-0.58-6.959-0.58-13.916-1.158-20.873l0,0
			c-9.857,0.578-19.713,1.158-29.57,1.738c0-13.335-0.58-26.091-0.58-39.426c1.16,0,1.74-0.58,2.896-0.58
			c0.58-0.58,0.58-1.159,1.16-1.739v-1.159c-7.537-1.74-15.654-3.479-23.189-5.219c0,16.813,1.156,33.049,1.156,48.704
			c-8.695,0.58-17.393,1.159-26.09,1.739c0.58,8.117,1.158,16.234,2.318,24.353c8.697-1.16,17.395-1.74,26.092-2.898l0,0
			c0,8.117,1.16,16.812,2.898,24.353c2.898,13.914,4.059,27.25,9.277,38.846c2.898,6.959,6.377,15.656,15.654,16.814
			c2.32,0,4.639-0.58,5.799-1.158c11.016-3.479,11.596-15.076,13.914-26.092c0.58-3.479,0.58-6.957,1.16-10.438
			C943.848,272.478,940.37,270.737,938.049,268.419z M932.833,203.479c3.479-2.897,6.957-5.797,11.016-8.116l2.318-1.74
			c-0.58-1.739-1.738-3.479-2.318-5.218c-2.318-5.798-5.799-11.018-8.695-16.235c-1.16-1.739-2.318-5.218-4.061-6.378
			c-4.059,2.899-8.117,5.798-12.176,8.118l-0.58,0.58c1.738,1.739,2.898,5.219,4.639,7.538
			C925.874,188.405,930.512,195.363,932.833,203.479z M640.608,276.536c0-9.857-1.158-19.713-2.898-28.99
			c-1.16-6.379-1.738-13.336-2.898-19.713c-1.158-5.219-1.738-10.438-2.896-15.076h-1.16c-5.799,1.16-11.596,2.32-17.395,3.479
			c2.318,8.696,2.318,17.975,4.059,26.672c2.32,12.756,3.479,26.092,3.479,40.006C627.854,281.175,634.231,278.854,640.608,276.536z
			 M652.206,261.46c-1.16,5.219-2.32,9.857-2.9,15.076c5.221,1.74,10.439,2.897,15.656,4.639c1.738-7.539,3.48-15.654,5.217-23.193
			c1.16-6.956,2.32-13.913,3.48-20.872c0.578-4.64,1.158-9.275,1.738-13.916c1.74-0.578,2.9-1.158,3.48-2.318
			c-6.959-2.318-13.336-4.639-20.295-7.537c-0.58,7.537-1.738,15.074-2.318,22.033C654.524,244.067,653.364,252.765,652.206,261.46z
			 M761.79,259.722c-5.219,4.06-9.857,8.117-15.076,12.177c5.219,8.116,11.018,16.233,13.916,26.092
			c5.217-4.64,10.438-8.697,15.074-13.336C774.545,278.854,765.846,263.2,761.79,259.722z M603.5,313.644
			c27.252-3.479,53.924-7.536,81.174-11.018v-21.451c-27.25,2.318-53.922,5.217-81.174,7.537V313.644z"/>
	</g>
	<g>
		<path fill="#FFFFFF" d="M128.059,178.548h-6.377v23.773c1.738,0.58,3.48,0.58,6.377,0.58c8.117,0,15.656-2.9,15.656-12.178
			C143.135,182.027,135.596,178.548,128.059,178.548z M141.395,162.894L141.395,162.894c0-6.958-5.219-9.855-13.336-9.855
			c-3.479,0-5.219,0-6.377,0.58v20.293h6.957C136.176,173.91,141.395,169.272,141.395,162.894z M309.54,169.272
			c-7.539,0-11.018,7.537-11.596,13.335h22.611C320.555,176.809,318.237,169.272,309.54,169.272z M369.838,175.649
			c0,3.479,2.32,5.218,8.117,7.537c5.219,2.319,8.697,4.64,9.857,8.697l-5.799-21.453c-1.158-0.58-2.898-1.159-5.219-1.159
			C372.159,169.272,369.838,172.17,369.838,175.649z M388.393,193.623c0,0.581,0,1.74,0,2.32c0,7.536-5.799,12.755-15.076,12.755
			c-4.059,0-8.115-1.16-11.016-2.898l1.74-5.219c2.318,1.16,5.797,2.898,9.275,2.898c5.799,0,8.697-2.898,8.697-6.957
			c0-4.06-2.318-6.379-8.117-8.117c-6.957-2.899-11.016-6.958-11.016-12.176c0-6.379,5.219-12.177,13.916-12.177
			c1.158,0,2.318,0,2.896,0L337.95,5.186L61.381,79.401l53.922,201.772v-66.098h26.092l18.557,35.367
			c4.637,8.696,11.016,21.452,14.494,31.311l0,0c-1.16-11.598-2.318-27.252-2.318-43.486v-23.19h22.031v99.146h-24.354
			l-17.973-35.946c-5.219-9.277-11.018-22.613-15.076-32.472h-0.58c0.58,11.597,1.16,26.672,1.16,44.064v24.354H124l15.654,57.4
			l219.748-58.562c-11.016-5.219-11.596-17.975-11.596-24.352v-30.15h-9.857v-15.653l-22.033,34.209l22.613,37.106h-27.252
			l-6.377-12.756c-1.74-3.479-3.479-6.957-4.639-11.016h-0.58c-1.16,3.479-2.898,7.537-4.639,11.016l-5.797,12.756h-26.092
			l22.031-36.526l-22.031-35.949h27.83l5.799,12.176l5.219,11.017h0.578c1.74-3.479,2.898-7.537,4.639-11.597l5.219-11.596h35.369
			v-13.335l24.352-6.377v19.713h16.234v16.234h-16.234v27.252c0,8.696,2.898,11.596,8.697,11.596c2.898,0,4.059,0,6.377-0.58v8.697
			l28.99-7.537L388.393,193.623z M145.454,202.321c-4.059,4.059-10.438,5.797-19.133,5.797c-4.639,0-8.697-0.58-11.018-0.58v-57.98
			c3.479-0.58,8.117-1.159,12.756-1.159c7.537,0,12.176,1.159,15.656,4.059c2.896,2.319,4.637,5.798,4.637,10.436
			c0,5.799-4.059,11.018-9.855,12.757l0,0c5.797,1.159,12.176,5.798,12.176,15.074C150.092,195.943,148.352,200.001,145.454,202.321
			z M185.459,207.538l-0.578-6.377l0,0c-1.74,3.479-6.379,7.537-13.336,7.537c-6.379,0-13.916-3.479-13.916-17.975v-24.932h6.377
			v23.771c0,8.117,2.32,13.915,9.277,13.915c5.219,0,11.018-4.058,11.018-11.596v-26.091h6.377v30.729c0,4.06,0,8.117,0.58,11.017
			H185.459L185.459,207.538z M235.903,148.978c2.32,0,4.059,1.739,4.059,4.06c0,2.898-1.738,4.638-4.059,4.638
			c-2.318,0-4.059-1.739-4.059-4.638C231.844,150.717,233.584,148.978,235.903,148.978z M239.383,165.213v42.325h-6.379v-42.325
			H239.383z M210.971,188.405c-6.957-2.899-11.016-6.958-11.016-12.177c0-6.378,5.219-12.176,13.916-12.176
			c4.059,0,7.537,1.16,9.855,2.319l-1.738,4.638c-1.74-1.16-4.639-2.319-8.117-2.319c-4.639,0-6.959,2.899-6.959,6.379
			c0,3.479,2.32,5.218,8.117,7.537c6.959,2.898,11.018,6.379,11.018,12.756c0,7.539-5.799,12.755-15.076,12.755
			c-4.059,0-8.117-1.16-11.016-2.898l1.74-5.218c2.318,1.16,5.797,2.9,9.275,2.9c5.799,0,8.697-2.9,8.697-6.958
			C218.51,192.464,216.19,190.145,210.971,188.405z M265.473,276.536c0,3.479,0,6.957-0.58,9.276h-44.062
			c0.58,8.697,8.697,12.757,19.133,12.757c6.959,0,13.336-1.16,18.555-2.9l3.479,15.654c-6.957,2.899-16.814,4.059-26.092,4.059
			c-24.932,0-38.846-13.334-38.846-35.947c0-20.873,13.336-38.846,36.527-38.846C252.717,240.589,265.473,252.183,265.473,276.536z
			 M284.028,207.538h-6.379v-24.932c0-6.957-2.318-12.756-9.855-12.756c-5.219,0-11.018,4.64-11.018,12.177v26.091h-6.377v-31.31
			c0-4.059,0-7.538-0.58-11.017h5.799l0.578,6.958l0,0c2.32-4.06,6.959-8.117,13.336-8.117c5.219,0,14.496,2.899,14.496,17.395
			C284.028,181.448,284.028,207.538,284.028,207.538z M326.354,187.246h-28.988c0,11.596,6.957,16.233,14.492,16.233
			c5.221,0,8.697-1.157,11.018-2.317l1.16,4.639c-2.318,1.158-6.957,2.898-13.336,2.898c-12.178,0-19.715-8.697-19.715-21.453
			c0-13.335,7.537-22.612,18.557-22.612c12.756,0,16.232,12.176,16.232,19.133C326.934,184.926,326.354,186.086,326.354,187.246z
			 M342.588,208.118c-4.059,0-8.117-1.16-11.018-2.898l1.74-5.219c2.32,1.16,5.799,2.9,9.277,2.9c5.799,0,8.697-2.9,8.697-6.958
			c0-4.06-2.32-6.378-8.117-8.117c-6.959-2.899-11.018-6.958-11.018-12.176c0-6.378,5.219-12.177,13.916-12.177
			c4.059,0,7.535,1.16,9.855,2.319l-1.74,4.639c-1.738-1.16-4.639-2.318-8.115-2.318c-4.641,0-6.957,2.898-6.957,6.378
			c0,3.479,2.316,5.219,8.115,7.538c6.957,2.898,11.018,6.378,11.018,12.755C357.663,203.479,351.866,208.118,342.588,208.118z
			 M232.424,256.243c-8.117,0-11.596,8.695-12.176,14.494h22.613C243.44,264.36,241.122,256.243,232.424,256.243z"/>
		<g>
			<path fill="#FFFFFF" d="M147.194,384.38l2.898,5.219c0.58,1.158,1.16,2.318,1.74,2.898l0,0c0-1.16,0-2.318,0-3.479v-5.799
				l1.736-0.578l2.898,4.638c0.58,1.16,1.16,2.319,1.74,3.479l0,0c0-1.158,0-2.318,0-3.479v-5.797l1.74-0.58l-0.58,11.596
				l-1.74,0.58l-2.898-4.64c-0.58-1.159-1.16-2.317-1.738-3.479l0,0c0,1.16,0,2.317,0,4.059l-0.58,5.22l-1.158,0.577l-5.799-9.854
				L147.194,384.38z"/>
			<path fill="#FFFFFF" d="M162.848,380.321l2.898,5.219c0.58,1.16,1.16,2.318,1.74,2.898l0,0c0-1.16,0-2.318,0-3.479v-5.797
				l1.738-0.582l2.9,4.639c0.58,1.16,1.158,2.32,1.738,3.48l0,0c0-1.16,0-2.32,0-3.48v-5.797l1.738-0.58l-0.58,11.597l-1.738,0.579
				l-2.898-4.639c-0.58-1.16-1.16-2.32-1.74-3.479l0,0c0,1.158,0,2.318,0,4.06l-0.578,5.219l-1.74,0.578l-5.799-9.854
				L162.848,380.321z"/>
			<path fill="#FFFFFF" d="M178.502,375.683l2.898,5.22c0.58,1.157,1.16,2.317,1.74,2.897l0,0c0-1.158,0-2.318,0-3.479l0.58-5.8
				l1.738-0.577l2.898,4.637c0.58,1.16,1.158,2.32,1.738,3.479l0,0c0-1.157,0-2.317,0-3.479v-5.797l1.74-0.58l-0.58,11.596
				l-1.74,0.58l-2.896-4.639c-0.58-1.16-1.16-2.318-1.738-3.479l0,0c0,1.16,0,2.318,0,3.479l-0.58,5.799l-1.74,0.58l-5.799-9.857
				L178.502,375.683z"/>
			<path fill="#FFFFFF" d="M196.477,382.642c-0.58,0-1.16,0-1.738-1.16c0-0.579,0-1.739,1.158-1.739c0.58,0,1.16,0,1.74,1.16
				C197.637,382.06,197.057,382.642,196.477,382.642L196.477,382.642z"/>
			<path fill="#FFFFFF" d="M195.317,365.825l1.74-0.578l1.738,6.377l0,0c0.58-1.16,1.16-2.32,2.9-2.898
				c2.896-0.58,5.217,1.16,5.797,4.06c1.16,4.059-1.16,6.377-3.48,6.957c-1.74,0.58-2.896,0-4.059-1.16l0,0l0.58,1.74l-1.74,0.58
				c0-0.58-0.58-1.74-0.58-2.898L195.317,365.825z M200.536,376.843v0.58c0.58,1.158,2.318,1.74,3.479,1.74
				c1.74-0.582,2.898-2.32,2.318-5.219c-0.578-2.32-2.318-3.48-4.059-2.9c-1.158,0.58-2.318,1.74-2.318,2.9v0.578L200.536,376.843z"
				/>
			<path fill="#FFFFFF" d="M209.233,370.464c-0.58-1.16-0.58-1.738-0.58-2.897l1.74-0.58l0.578,1.739l0,0
				c0-1.159,1.16-2.317,2.9-2.899c1.738-0.578,4.059,0,5.217,3.479l1.74,6.379l-1.74,0.58l-1.738-6.377
				c-0.58-1.739-1.74-2.899-3.479-2.319c-1.16,0.58-1.74,1.737-2.32,2.897c0,0,0,0.58,0,1.16l1.74,6.379l-1.74,0.578
				L209.233,370.464z"/>
			<path fill="#FFFFFF" d="M223.147,369.886c0.58,2.318,2.9,3.479,4.639,2.898c1.16-0.58,2.32-0.58,2.9-1.16l0.58,1.16
				c-0.58,0.58-1.74,1.16-3.48,1.738c-3.479,1.159-5.797-0.578-6.377-4.06c-0.58-3.479,0.58-6.377,3.479-6.957
				c3.48-1.16,5.219,1.74,5.799,4.06c0,0.58,0,0.58,0,1.159L223.147,369.886z M228.366,366.985c-0.58-1.16-1.16-2.898-3.479-2.318
				c-1.74,0.58-2.32,2.318-2.32,4.059L228.366,366.985z"/>
			<path fill="#FFFFFF" d="M231.266,361.767l2.318,1.74c0.58,0.58,1.16,1.16,1.738,1.16l0,0c0-0.58,0.58-1.16,0.58-2.32l1.16-2.897
				l1.74,0.58l-2.32,5.797l5.219,4.639l-2.318,0.58l-2.32-1.74c-0.578-0.578-1.158-1.158-1.738-1.737l0,0
				c0,0.58-0.578,1.159-0.578,2.319l-1.16,2.898l-2.318,0.58l2.318-6.379l-5.219-4.06L231.266,361.767z"/>
			<path fill="#FFFFFF" d="M242.282,355.97l0.58,2.318l2.898-0.578l0.58,1.738l-2.9,0.58l1.74,5.797c0.58,1.16,1.16,1.74,1.74,1.74
				s0.58,0,1.156-0.58l0.58,1.159c-0.58,0-1.156,0.58-1.736,0.58c-1.16,0-1.74,0-2.32,0c-0.58-0.58-1.16-1.159-1.738-2.319
				l-1.74-5.797l-1.738,0.579l-0.58-1.739l1.738-0.58l-0.58-1.74L242.282,355.97z"/>
			<path fill="#FFFFFF" d="M250.979,368.146c-0.58,0-1.16,0-1.738-1.159c0-0.578,0-1.738,1.158-1.738c0.58,0,1.16,0,1.738,1.158
				C252.137,366.985,251.559,368.146,250.979,368.146L250.979,368.146z"/>
			<path fill="#FFFFFF" d="M261.415,364.667c-0.578,0.58-1.738,1.158-2.898,1.74c-3.479,0.578-5.799-0.582-6.957-4.062
				c-1.16-3.479,0.578-6.377,4.061-6.957c1.156-0.58,2.316-0.58,2.896,0v1.74c-0.58,0-1.16,0-2.32,0
				c-2.316,0.58-3.479,2.898-2.896,5.217c0.58,2.32,2.896,3.479,4.639,2.9c1.16-0.58,1.74-0.58,2.32-1.16L261.415,364.667z"/>
			<path fill="#FFFFFF" d="M271.272,356.55c1.16,4.06-1.16,6.377-4.059,6.957c-2.9,0.58-5.799-0.58-6.377-4.059
				c-1.16-3.479,0.578-6.379,3.479-6.957C267.793,351.911,270.692,353.649,271.272,356.55z M263.155,358.868
				c0.58,2.32,2.318,3.479,4.059,3.479c1.738-0.58,2.898-2.317,2.318-5.217c-0.578-1.74-1.738-4.061-4.059-3.479
				C262.575,354.81,262.575,357.13,263.155,358.868z"/>
			<path fill="#FFFFFF" d="M272.432,353.649c-0.58-1.158-0.58-1.738-0.58-2.898l1.738-0.58l0.58,1.74l0,0
				c0.58-1.16,1.16-2.32,2.9-2.898c1.158-0.58,2.898,0,3.479,1.158l0,0c0-0.58,0.578-1.158,0.578-1.738
				c0.58-0.58,1.16-1.159,2.32-1.159c1.16-0.58,3.479,0,4.639,3.479l1.74,6.379l-1.74,0.58l-1.74-5.799
				c-0.58-2.32-1.738-2.898-2.896-2.898c-1.16,0.578-1.74,1.158-1.74,2.318c0,0.58,0,0.58,0,1.16l1.74,6.377l-2.32,1.16
				l-1.738-6.379c-0.58-1.738-1.74-2.898-2.898-2.318c-1.16,0.58-1.74,1.738-1.74,2.318c0,0.579,0,0.579,0,1.159l1.74,6.379
				l-1.74,0.578L272.432,353.649z"/>
			<path fill="#FFFFFF" d="M293.305,356.55c-0.58,0-1.16,0-1.74-1.16c0-0.58,0-1.739,1.16-1.739c0.58,0,1.158,0,1.738,1.159
				C294.463,355.97,293.883,356.55,293.305,356.55L293.305,356.55L293.305,356.55z"/>
			<path fill="#FFFFFF" d="M295.043,342.054l0.58,2.32l2.898-0.58l0.58,1.738l-2.898,0.58l1.74,5.799
				c0.578,1.158,1.158,1.74,1.738,1.74s0.58,0,1.16-0.582l0.58,1.159c-0.58,0-1.16,0.58-1.74,0.58c-1.16,0-1.738,0-2.318,0
				c-0.58-0.58-1.16-1.157-1.74-2.317l-1.74-5.799l-1.738,0.58l-0.58-1.74l1.74-0.578l-0.58-1.74L295.043,342.054z"/>
			<path fill="#FFFFFF" d="M301.422,343.214l2.898,5.219c0.58,1.158,1.16,2.318,1.74,2.898l0,0c0-1.16,0-2.318,0-3.479v-5.799
				l1.738-0.58l2.896,4.64c0.58,1.159,1.16,2.319,1.74,3.479l0,0c0-1.158,0-2.318,0-3.479v-5.8l1.74-0.577l-0.58,11.596l-1.74,0.58
				l-2.896-4.639c-0.58-1.16-1.16-2.318-1.74-3.479l0,0c0,1.16,0,2.318,0,3.479l-0.58,5.219l-1.738,0.578l-5.799-9.855H301.422z"/>
		</g>
	</g>
</g>
</svg>
