<svg width="552" height="356" viewBox="0 0 552 356" fill="none" xmlns="http://www.w3.org/2000/svg">
<g clip-path="url(#clip0_1_94)">
<path d="M58.3176 80.3131H95.5322V93.7483H6.54294V80.3131H42.3093V70.3112H16.7324V57.2906H42.3093V47.5997H22.034V38.4269C17.7668 41.1347 13.4092 43.6352 9.24546 45.6174C7.16362 41.8732 3.32319 36.5484 -0.0129395 33.3224C10.6937 29.3579 22.1245 22.3876 31.3829 14.4716H20.5728V0.518219H58.6279C67.1493 13.0206 83.261 25.6266 101.661 31.9749C98.5451 35.2009 93.7607 41.6659 91.5754 45.9284C87.1014 43.8425 82.8472 41.4457 78.6835 38.8415V47.5867H58.3047V57.2777H84.192V70.2983H58.3047V80.3002L58.3176 80.3131ZM50.4169 14.4846C44.1843 21.5714 36.2836 28.438 27.9562 34.3847H72.1405C63.8261 28.3473 56.5461 21.3641 50.5204 14.4846H50.4169Z" fill="white"/>
<path d="M190.444 77.3981C199.275 80.0022 208.43 83.2282 215.077 85.625L201.668 96.2488C193.353 92.5046 178.897 87.4 167.673 84.2646L177.448 77.3851H150.837L159.565 83.6298C151.251 88.4235 137.738 93.5281 127.238 96.0285C124.432 92.9062 119.338 88.1125 115.704 85.1975C123.812 83.5262 133.07 80.5075 140.027 77.3851H125.997V30.3166H203.866V77.3981H190.457H190.444ZM200.323 27.6089H130.872V0H200.323V27.6089ZM141.061 43.1299H188.052V40.4222H141.061V43.1299ZM141.061 55.2177H188.052V52.5099H141.061V55.2177ZM141.061 67.4091H188.052V64.5977H141.061V67.4091ZM184.211 11.5825H146.053V16.0652H184.211V11.5825Z" fill="white"/>
<path d="M14.56 176.912C11.6506 173.582 5.09471 168.27 0.323273 164.617L8.74118 155.975C13.3187 159.097 20.1719 163.995 23.5081 167.221L14.5729 176.912H14.56ZM25.577 191.5C22.2538 202.227 18.0901 213.901 14.1462 223.786L2.1853 216.906C5.92228 208.99 11.1204 196.281 14.8703 184.413L25.577 191.5ZM17.7798 149.212C14.7669 145.364 8.31446 139.418 3.21976 135.362L11.8446 127.239C16.8358 130.88 23.702 136.295 27.0252 140.052L17.7668 149.225L17.7798 149.212ZM96.3727 157.957C94.9116 173.478 92.5323 186.914 88.3686 198.263C91.5884 203.989 95.6486 208.99 100.64 212.631C97.9374 215.131 93.3599 220.961 91.4849 224.511C87.5281 221.078 84.3084 216.906 81.5024 212.216C78.3861 217.114 74.6362 221.389 70.2785 225.133C68.507 222.944 63.7356 218.565 60.9167 216.492C60.5029 218.059 59.9857 219.199 59.3521 220.029C57.4771 222.322 55.5116 223.255 53.016 223.669C50.8307 224.084 47.3006 224.187 43.4473 224.187C43.2404 220.443 42.0895 215.442 40.331 212.411C38.0422 216.893 34.5121 221.156 29.4174 224.809C27.2321 222.205 22.5512 218.344 19.4349 216.168C30.9691 208.045 32.5337 197.939 32.5337 191.487V189.712H24.8399V177.624H37.2146C36.6974 176.264 36.0767 174.916 35.4431 173.66L43.861 171.988H27.2321V135.531H37.0078C37.6284 132.305 38.2491 128.755 38.4689 125.944L54.0634 127.395C53.1324 130.206 52.085 133.017 51.2574 135.518H62.9985V159.37C66.7355 149.782 69.2311 137.915 70.6923 125.931L83.998 128.224C83.1705 133.639 82.2265 139.055 80.9852 144.263H99.7994V157.906H96.3727V157.957ZM38.9862 148.992H50.5204V145.766H38.9862V148.992ZM38.9862 161.805H50.5204V158.476H38.9862V161.805ZM43.2533 205.246C42.5292 207.643 41.5852 210.04 40.3439 212.437C42.7361 212.644 44.5076 212.747 45.6455 212.747C46.6799 212.747 47.417 212.54 48.1411 211.711C48.6583 210.986 48.9687 209.107 49.1756 205.259H43.2533V205.246ZM62.6882 193.482C62.6882 193.482 62.5847 196.294 62.4813 197.861C62.171 206.71 61.8606 212.553 60.9167 216.194C67.0458 211.607 71.6233 205.674 75.1534 198.587C72.5543 191.604 70.6794 184.206 69.2311 177.132C68.7139 178.065 68.1967 179.011 67.5631 179.84C66.3217 177.961 63.6063 174.735 61.1236 172.027H49.0592C49.9902 173.802 50.9342 175.772 51.8652 177.65H64.4468V189.738H44.9084V193.482H62.6882ZM77.3516 157.957C77.1447 158.579 76.9379 159.305 76.731 159.94C77.7654 166.612 79.1231 173.686 81.1015 180.565C82.6662 173.686 83.5972 166.081 84.2178 157.957H77.3516Z" fill="white"/>
<path d="M212.904 144.626C209.271 147.852 205.314 150.87 201.991 153.267C206.051 155.25 210.409 156.908 215.193 158.165C212.18 160.976 208.224 166.495 206.258 170.045C202.625 168.905 199.288 167.441 196.069 165.873V172.222C196.069 174.722 196.276 175.655 197.53 175.655H201.163C202.728 175.655 205.327 175.448 206.672 175.033C206.879 178.052 207.189 182.327 207.603 185.242C206.038 185.864 203.543 185.968 201.37 185.968H196.069C185.879 185.968 183.901 181.796 183.901 172.118V168.374H176.724C176.104 175.253 173.608 182.535 166.328 187.639H194.814L197.103 187.328L205.314 190.036C203.025 197.641 199.495 203.678 194.918 208.576C199.185 210.973 203.025 213.162 205.935 215.041L198.344 225.043C195.021 222.646 190.237 219.731 184.935 216.608C178.392 220.56 170.699 223.164 161.854 225.043C160.613 221.817 158.014 217.023 155.725 214.211C155.104 216.712 154.264 218.383 153.229 219.523C150.63 222.231 147.824 223.164 143.971 223.475C140.958 223.889 135.656 223.889 130.044 223.786C129.837 219.834 128.066 214.613 125.777 211.18C130.665 211.594 135.656 211.698 137.945 211.698C139.613 211.698 140.751 211.594 141.785 210.662C142.82 209.729 143.66 206.814 144.281 201.178H123.592C125.157 193.987 126.915 183.156 127.859 174.411H145.122V169.099H131.092V167.324C128.389 168.568 125.687 169.721 122.881 170.758C121.109 167.532 117.476 162.427 114.877 159.719C120.385 158.152 125.583 155.768 130.471 152.84C127.872 151.168 124.756 149.406 122.26 148.046L129.747 140.959H126.113V129.299H152.932L155.324 128.781L164.686 133.264C160.626 143.369 154.186 151.492 146.182 157.841H158.453V177.326C163.858 173.154 164.479 168.477 164.479 164.098V157.115H182.983C174.772 150.028 168.423 140.972 163.755 130.141L175.819 126.708C177.061 129.623 178.625 132.331 180.397 134.935C183.306 132.331 186.319 129.208 188.194 126.708L199.004 134.313C195.047 137.643 191 140.765 187.573 143.265C188.918 144.626 190.483 145.87 192.047 147.113C195.577 144.198 199.638 140.13 202.133 137.111L212.943 144.613L212.904 144.626ZM132.54 140.985C135.139 142.229 138.152 143.797 140.544 145.261C142.005 143.9 143.35 142.449 144.604 140.985H132.54ZM161.854 197.55V187.652H164.97C163.406 185.773 160.703 182.962 158.427 180.876V185.359H138.462L137.738 190.463H158.427C158.427 190.463 158.324 193.793 158.117 195.464C157.496 204.106 156.876 210.053 155.725 214.108C161.957 213.175 167.582 211.711 172.457 209.521C167.88 207.021 163.315 204.521 159.255 202.435L163.315 197.537H161.854V197.55ZM173.815 197.55C177.035 199.118 180.358 200.776 183.591 202.551C185.259 200.984 186.81 199.325 188.065 197.55H173.828H173.815Z" fill="white"/>
<path d="M324.445 128.794V225.043H310.092V220.145H248.231V225.043H234.615V128.794H324.432H324.445ZM310.092 208.9V140.052H248.231V208.9H310.092ZM302.812 187.548H308.424V195.361H295.842V200.154C295.842 204.741 294.911 206.192 291.679 207.138C288.562 208.174 284.295 208.174 278.683 208.174C278.166 205.57 276.912 202.862 275.877 200.776C278.062 200.88 281.282 200.88 282.213 200.88C283.144 200.88 283.571 200.569 283.571 199.636V195.361H268.804C270.886 197.758 273.071 200.776 274.106 202.862L264.123 207.656C263.089 205.155 260.49 201.204 258.201 198.38L264.744 195.361H249.356V187.548H283.558V185.463C271.817 185.877 260.58 186.188 251.542 186.292L251.128 178.687C257.153 178.687 264.64 178.79 272.748 178.79V176.393H252.99V154.835H272.748V152.542H250.817V144.626H272.748V141.503H284.916V144.626H307.053V152.542H284.916V154.835H304.881V176.393H301.351C304.26 178.687 306.859 181.394 308.527 183.377L302.812 187.548ZM264.343 162.868H272.761V160.574H264.343V162.868ZM272.761 170.68V168.283H264.343V170.68H272.761ZM284.929 160.574V162.868H293.036V160.574H284.929ZM284.929 168.283V170.68H293.036V168.283H284.929ZM284.929 176.406V178.803L290.644 178.7L290.437 178.596L293.76 176.406H284.929ZM295.842 187.548H299.696C298.971 186.719 298.234 185.877 297.407 185.048L295.842 185.152V187.548Z" fill="white"/>
<path d="M382.866 135.557C380.37 144.729 377.151 156.493 374.448 164.513C380.163 172.222 381.211 179.101 381.211 184.931C381.211 192.226 379.75 196.592 376.22 199.092C374.448 200.336 372.379 201.074 369.987 201.489C368.216 201.696 365.823 201.8 363.328 201.8C363.224 199.196 362.707 195.555 361.66 192.42V225.133H348.561V130.556H370.918L373 130.038L382.879 135.557H382.866ZM361.66 189.103H363.845C364.879 189.103 365.823 188.896 366.547 188.274C367.582 187.445 368.009 185.774 368.009 182.962C368.009 178.583 366.974 172.442 361.983 166.094C363.548 159.953 365.41 151.091 366.767 144.017H361.673V189.116L361.66 189.103ZM442.852 167.026C439.322 169.216 435.365 171.509 431.524 173.491C434.744 183.286 440.356 194.013 445.877 200.569C442.865 202.759 438.494 207.241 436.309 210.26C431.317 203.588 426.326 193.599 422.589 183.597C425.602 198.185 423.417 212.45 418.426 217.761C414.792 222.451 410.835 223.902 404.913 224.006C402.521 224.006 399.404 224.006 396.392 223.799C396.185 219.951 395.15 214.419 392.758 210.467C396.392 210.882 399.831 210.986 402.327 210.986C404.822 210.986 406.284 210.467 407.628 207.76C408.766 206.192 409.71 202.966 410.021 198.703C402.534 204.015 393.599 208.809 385.905 211.724C383.823 208.394 380.293 203.912 377.073 201.204C388.4 198.289 401.81 191.513 409.09 184.75L408.159 180.682C402.443 185.061 395.267 189.427 389.551 192.238C387.78 189.116 384.456 184.322 381.651 181.718C389.034 179.425 398.59 174.632 403.904 170.265C403.077 168.814 402.236 167.454 401.202 166.094C396.211 169.423 390.909 172.338 385.918 174.632C384.146 171.924 379.995 166.508 377.396 164.008C383.939 161.715 390.599 158.592 396.314 154.835H381.547V141.918H395.9C393.508 138.796 390.288 135.466 387.275 132.862L398.292 126.086C403.077 129.623 408.068 134.624 410.564 138.485L405.572 141.918H413.577C416.693 137.539 420.339 131.191 422.201 126.293L436.658 130.361C434.059 134.533 431.356 138.588 428.861 141.918H441.959V154.835H415.038C413.796 156.182 412.439 157.439 410.977 158.683C413.37 161.494 415.451 164.617 417.107 167.856C423.029 164.526 429.378 160.458 433.632 156.921L442.89 167.026H442.852Z" fill="white"/>
<path d="M98.8684 308.4H59.1581V354.756H42.5292V308.4H3.32321V292.568H42.5163V255.8H59.1452V292.568H98.8555V308.4H98.8684Z" fill="white"/>
<path d="M150.63 260.684C148.031 267.771 144.604 275.156 140.854 282.243V354.64H126.501V304.332C124.937 306.211 123.488 307.973 121.924 309.644C120.579 306.107 116.519 297.764 114.127 294.019C123.062 284.95 131.7 270.582 136.691 256.214L150.617 260.697L150.63 260.684ZM213.836 295.367V308.802H145.432V295.367H159.358C158.634 291.519 157.173 286.622 155.621 282.761L164.556 280.26H149.479V267.032H172.25C171.733 263.703 170.789 260.049 169.858 256.927L183.888 254.426C185.233 258.274 186.797 263.275 187.521 267.032H209.879V280.26H195.112L203.944 282.243C202.069 286.933 200.207 291.519 198.435 295.367H213.823H213.836ZM153.333 314.114H205.625V354.212H190.754V351.608H167.466V354.627H153.333V314.101V314.114ZM168.824 280.26C170.802 284.536 172.457 289.848 173.091 293.488L166.962 295.367H184.431C186.203 290.884 188.271 285.054 189.319 280.26H168.837H168.824ZM167.479 327.342V338.38H190.767V327.342H167.479Z" fill="white"/>
<path d="M326.941 337.149V351.945H232.339V337.149H271.636V319.231H244.714V304.643H271.636V288.707H251.671C248.761 294.123 245.749 299.02 242.619 302.868C239.606 300.264 232.844 295.781 229.003 293.695C237.007 285.158 243.667 270.88 247.197 256.823L262.895 260.36C261.653 264.947 260.089 269.416 258.317 273.899H271.623V255.774H287.424V273.899H321.419V288.695H287.424V304.63H317.255V319.218H287.424V337.136H326.928L326.941 337.149Z" fill="white"/>
<path d="M443.059 340.583V352.67H366.754V340.583H396.909V337.253H376.116V331.837C374.448 333.716 372.69 335.478 370.918 337.046C370.194 334.545 367.698 328.715 365.72 324.854C364.362 335.893 361.142 347.669 354.599 356C352.311 353.292 345.975 347.98 342.858 346.309C351.276 335.478 352.013 319.957 352.013 308.919V292.154H366.573C364.595 290.171 362.306 288.086 360.651 286.842C367.414 285.909 374.784 284.756 382.064 283.305C376.349 282.061 370.634 280.908 365.332 279.975L372.095 275.078H353.384V263.418H388.31C387.379 261.967 386.331 260.503 385.4 259.246L395.383 254.452C397.568 257.056 400.064 260.386 401.822 263.405H438.623V275.065H423.65L429.365 278.602C426.145 280.066 422.499 281.517 418.658 282.774C423.856 284.134 428.641 285.481 432.688 286.738L426.145 292.154H441.429V304.138H366.677V309.139C366.677 312.883 366.573 317.055 366.16 321.434C370.53 317.055 374.371 311.017 376.659 304.565L389.344 308.413C389.034 309.346 388.724 310.188 388.31 311.121H396.935V306.016H411.805V311.121H436.231V322.781H411.805V325.904H432.804V337.253H411.805V340.583H443.097H443.059ZM396.896 325.891V322.768H382.556C381.935 323.805 381.198 324.854 380.577 325.891H396.896ZM416.227 292.141C411.753 290.793 406.659 289.329 401.357 287.969C395.124 289.537 388.879 290.884 382.75 292.141H416.227ZM385.762 275.052C391.064 276.192 396.573 277.345 402.081 278.693C406.245 277.553 410.085 276.296 413.512 275.052H385.75H385.762Z" fill="white"/>
<path d="M552 276.944C552 276.944 551.897 281.944 551.69 283.927C549.711 324.867 547.733 340.803 543.065 346.529C539.638 351.012 536.302 352.359 531.427 353.098C527.367 353.823 520.927 353.823 514.695 353.616C514.488 349.133 512.303 342.267 509.393 337.888C515.729 338.406 521.561 338.406 524.47 338.406C526.552 338.406 527.794 337.991 529.255 336.631C532.268 333.612 534.246 320.488 535.694 292.465H509.807C508.139 314.127 500.665 339.753 471.959 355.378C469.463 351.634 463.748 345.687 459.998 342.979C484.631 330.477 491.704 309.955 493.579 292.465H463.424V276.944H494.2V256.007H510.311V276.944H552Z" fill="white"/>
<path d="M19.3444 292.529H3.31027V308.465H19.3444V292.529Z" fill="url(#paint0_linear_1_94)"/>
<path d="M27.1675 292.529H11.1334V308.465H27.1675V292.529Z" fill="url(#paint1_linear_1_94)"/>
<path d="M35.0035 292.529H18.9694V308.465H35.0035V292.529Z" fill="url(#paint2_linear_1_94)"/>
<path d="M42.8395 292.529H26.8054V308.465H42.8395V292.529Z" fill="url(#paint3_linear_1_94)"/>
<path d="M50.6756 292.529H34.6414V308.465H50.6756V292.529Z" fill="url(#paint4_linear_1_94)"/>
<path d="M58.5116 292.529H42.4774V308.465H58.5116V292.529Z" fill="white"/>
<path d="M59.1581 255.787H42.4774V273.834H59.1581V255.787Z" fill="url(#paint5_linear_1_94)"/>
<path d="M59.1581 263.133H42.4774V280.753H59.1581V263.133Z" fill="url(#paint6_linear_1_94)"/>
<path d="M59.1581 270.492H42.4774V287.684H59.1581V270.492Z" fill="url(#paint7_linear_1_94)"/>
<path d="M59.1581 277.851H42.4774V294.615H59.1581V277.851Z" fill="url(#paint8_linear_1_94)"/>
<path d="M59.1581 285.196H42.4774V301.534H59.1581V285.196Z" fill="url(#paint9_linear_1_94)"/>
<path d="M59.1581 292.555H42.4774V308.465H59.1581V292.555Z" fill="white"/>
<path d="M305.85 95.5399L299.643 78.6326H262.252L255.892 95.5399H234.458L272.732 0H288.843L327.271 95.5399H305.837H305.85ZM281.319 28.1789L268.01 62.9265H294.166L281.306 28.1789H281.319Z" fill="white"/>
<path d="M369.845 95.5399V0H390.384V95.5399H369.845Z" fill="white"/>
</g>
<defs>
<linearGradient id="paint0_linear_1_94" x1="6.60761" y1="290.897" x2="16.0506" y2="310.083" gradientUnits="userSpaceOnUse">
<stop offset="0.11" stop-color="#036EB8"/>
<stop offset="1" stop-color="#2EA7E0"/>
</linearGradient>
<linearGradient id="paint1_linear_1_94" x1="14.4488" y1="290.897" x2="23.8814" y2="310.083" gradientUnits="userSpaceOnUse">
<stop offset="0.11" stop-color="#5887C6"/>
<stop offset="1" stop-color="#6FB8E7"/>
</linearGradient>
<linearGradient id="paint2_linear_1_94" x1="22.29" y1="290.894" x2="31.7304" y2="310.078" gradientUnits="userSpaceOnUse">
<stop offset="0.11" stop-color="#87A3D4"/>
<stop offset="1" stop-color="#9BCAED"/>
</linearGradient>
<linearGradient id="paint3_linear_1_94" x1="39.5318" y1="310.103" x2="30.094" y2="290.919" gradientUnits="userSpaceOnUse">
<stop offset="0.11" stop-color="#B2C1E3"/>
<stop offset="1" stop-color="#C0DDF4"/>
</linearGradient>
<linearGradient id="paint4_linear_1_94" x1="47.3653" y1="310.103" x2="37.9249" y2="290.917" gradientUnits="userSpaceOnUse">
<stop offset="0.11" stop-color="#DAE0F2"/>
<stop offset="1" stop-color="#E1EFFA"/>
</linearGradient>
<linearGradient id="paint5_linear_1_94" x1="61.1106" y1="259.751" x2="40.5224" y2="269.838" gradientUnits="userSpaceOnUse">
<stop offset="0.11" stop-color="#036EB8"/>
<stop offset="1" stop-color="#2EA7E0"/>
</linearGradient>
<linearGradient id="paint6_linear_1_94" x1="62.1816" y1="278.965" x2="42.7389" y2="283.135" gradientUnits="userSpaceOnUse">
<stop offset="0.11" stop-color="#5887C6"/>
<stop offset="1" stop-color="#6FB8E7"/>
</linearGradient>
<linearGradient id="paint7_linear_1_94" x1="60.4109" y1="282.094" x2="41.8233" y2="279.633" gradientUnits="userSpaceOnUse">
<stop offset="0.11" stop-color="#87A3D4"/>
<stop offset="1" stop-color="#9BCAED"/>
</linearGradient>
<linearGradient id="paint8_linear_1_94" x1="60.8452" y1="292.986" x2="41.1292" y2="281.545" gradientUnits="userSpaceOnUse">
<stop offset="0.11" stop-color="#B2C1E3"/>
<stop offset="1" stop-color="#C0DDF4"/>
</linearGradient>
<linearGradient id="paint9_linear_1_94" x1="58.4291" y1="303.236" x2="43.4915" y2="285.589" gradientUnits="userSpaceOnUse">
<stop offset="0.11" stop-color="#DAE0F2"/>
<stop offset="1" stop-color="#E1EFFA"/>
</linearGradient>
<clipPath id="clip0_1_94">
<rect width="552" height="356" fill="white"/>
</clipPath>
</defs>
</svg>
