<svg width="372" height="43" viewBox="0 0 372 43" fill="none" xmlns="http://www.w3.org/2000/svg">
<g clip-path="url(#clip0_1_160)">
<path d="M136.669 22.2159C138.704 25.0796 142.016 27.7957 145.141 29.1833C144.64 29.6262 143.966 30.5118 143.579 31.0728C140.683 29.5819 137.744 26.9101 135.565 23.9873V32.2389H133.314V24.0906C131.135 26.9986 128.196 29.5524 125.328 31.058C124.956 30.5118 124.253 29.6704 123.766 29.1981C126.891 27.781 130.174 25.0796 132.181 22.2307H124.425V20.0608H133.3V16.4737H126.074V14.3038H133.3V10.5987H135.55V14.3038H142.962V16.4737H135.55V20.0608H144.568V22.2307H136.654L136.669 22.2159Z" fill="white"/>
<path d="M177.441 24.1497C176.724 23.3525 175.405 22.1716 174.144 21.0793C173.613 22.024 173.026 22.8507 172.352 23.5149C171.979 23.2049 171.162 22.6588 170.631 22.4078C172.725 25.3601 176.094 27.9876 179.534 29.3014C178.99 29.7442 178.287 30.6742 177.929 31.2794C174.947 29.9066 172.094 27.5153 169.943 24.7106V32.2242H167.692V24.7844C165.513 27.5448 162.66 29.8919 159.779 31.2647C159.435 30.7185 158.775 29.818 158.259 29.4047C161.958 27.8991 165.642 24.7549 167.692 21.4483V15.8242H159.134V13.6986H167.692V10.5839H169.943V13.6986H178.774V15.8242H169.943V21.3302C170.144 21.6845 170.359 22.0093 170.588 22.3488C172.165 20.9317 173.226 18.7027 173.728 16.2228L175.793 16.6066C175.592 17.5218 175.334 18.4222 174.99 19.2489C176.395 20.356 178.072 21.7288 178.961 22.6588L177.441 24.1644V24.1497ZM165.055 16.6066C164.825 17.5513 164.553 18.4222 164.209 19.2784C165.126 20.0755 166.087 21.0055 166.646 21.6107L165.198 23.1754C164.782 22.6292 164.08 21.9059 163.32 21.1679C162.56 22.5554 161.628 23.7363 160.539 24.6663C160.195 24.2678 159.349 23.5297 158.89 23.2197C160.926 21.655 162.331 19.1603 163.004 16.208L165.069 16.6066H165.055Z" fill="white"/>
<path d="M199.62 24.9025C199.577 24.5482 199.476 24.1644 199.39 23.7216C194.659 24.4302 193.899 24.6221 193.441 24.873C193.326 24.4449 193.025 23.4264 192.795 22.895C193.297 22.7769 193.799 22.2159 194.487 21.3598C194.803 20.976 195.448 20.1346 196.164 18.998C194.129 19.2637 193.598 19.3965 193.269 19.5441C193.154 19.1456 192.881 18.2008 192.652 17.6547C193.068 17.5661 193.426 17.0937 193.914 16.3852C194.401 15.7062 195.935 13.0491 196.781 10.5249L198.688 11.322C197.77 13.4034 196.552 15.5438 195.333 17.3004L197.354 17.138C197.928 16.1638 198.501 15.1009 198.96 14.0676L200.752 15.16C199.376 17.7285 197.627 20.356 195.863 22.4669L198.931 22.0683C198.731 21.3598 198.501 20.6217 198.243 19.9722L199.82 19.5294C200.422 21.0646 201.039 23.1164 201.283 24.3268L199.591 24.9468L199.62 24.9025ZM195.491 26.0539C195.261 28.1796 194.874 30.4676 194.372 31.9585C194 31.7223 193.154 31.4418 192.695 31.2942C193.226 29.8771 193.541 27.7072 193.727 25.7439L195.491 26.0539ZM197.756 25.7292C198.028 27.2939 198.301 29.3014 198.372 30.6152L196.695 30.9695C196.652 29.6262 196.394 27.5891 196.15 26.0244L197.756 25.7144V25.7292ZM199.906 25.0649C200.336 26.2753 200.824 27.8253 201.024 28.8733L199.49 29.4195C199.304 28.3862 198.845 26.7772 198.43 25.552L199.892 25.0797L199.906 25.0649ZM213.727 29.7V31.7075H200.709V29.7H206.214V25.7292H201.856V23.7659H212.795V25.7292H208.35V29.7H213.727ZM203.763 23.1607C203.275 21.9355 202.229 20.1346 201.053 18.5256C201.971 17.1085 202.917 15.3814 203.447 14.23L205.282 14.7024C204.666 15.9128 203.791 17.3447 203.06 18.4813C204.049 19.7803 205.01 21.3893 205.512 22.4078L203.763 23.1607ZM213.468 13.6396H201.326V11.6763H213.468V13.6396ZM209.153 14.7319C208.508 15.9423 207.662 17.3594 206.902 18.4665C207.892 19.736 208.924 21.3007 209.411 22.3193L207.72 23.1016C207.189 21.8764 206.114 20.1051 204.867 18.5108C205.813 17.1233 206.788 15.3962 207.318 14.2595L209.153 14.7319ZM211.719 23.1607C211.175 21.9355 209.999 20.1198 208.694 18.5256C209.655 17.1085 210.673 15.3814 211.218 14.23L213.081 14.7319C212.393 15.9423 211.519 17.3594 210.759 18.4813C211.82 19.7508 212.895 21.3155 213.425 22.334L211.734 23.1607H211.719Z" fill="white"/>
<path d="M234.787 27.4267C232.278 28.3272 229.626 29.2424 227.561 29.9361L227.059 27.6924C227.891 27.4562 228.894 27.1758 229.998 26.8215V20.8136H227.518V18.7765H229.998V14.0676H227.289V12.0305H234.586V14.0676H232.034V18.7765H234.213V20.8136H232.034V26.1572C232.808 25.8915 233.64 25.6406 234.414 25.3601L234.787 27.4415V27.4267ZM248.349 29.4785V31.4861H233.683V29.4785H240.335V26.6739H235.36V24.6958H240.335V22.2602H235.561V11.632H247.317V22.2602H242.514V24.6958H247.603V26.6739H242.514V29.4785H248.349ZM237.511 16.0309H240.521V13.4772H237.511V16.0309ZM237.511 20.3855H240.521V17.7875H237.511V20.3855ZM245.267 13.4919H242.328V16.0457H245.267V13.4919ZM245.267 17.7875H242.328V20.3855H245.267V17.7875Z" fill="white"/>
<path d="M273.208 10.6282C273.179 11.5287 273.165 12.7538 273.05 14.1414C273.366 17.0937 274.771 26.5262 282.785 30.1871C282.168 30.689 281.523 31.4566 281.222 32.047C275.832 29.4195 273.323 24.2235 272.119 20.0017C270.972 24.4449 268.534 29.2128 263.359 32.1651C262.986 31.6042 262.298 30.8956 261.596 30.4233C270.986 25.4191 270.728 14.4071 270.8 10.6282H273.237H273.208Z" fill="white"/>
<path d="M316.862 27.0281H308.805V32.2537H306.597V27.0281H296.161V24.9025H299.859V18.6584H306.612V15.3962H301.35C300.361 17.138 299.214 18.7027 298.053 19.8836C297.637 19.4998 296.72 18.7913 296.189 18.4665C298.297 16.6066 300.132 13.5953 301.193 10.4511L303.343 11.0415C303.071 11.7796 302.741 12.5472 302.454 13.2557H315.744V15.3814H308.82V18.6437H315.228V20.6955H308.82V24.873H316.877V26.9986L316.862 27.0281ZM306.612 24.9025V20.725H301.996V24.9025H306.612Z" fill="white"/>
<path d="M342.496 11.1301C342.381 11.2777 342.295 11.4401 342.152 11.5729C344.288 13.61 348.159 15.3962 351.743 16.1785C351.313 16.5623 350.71 17.3299 350.395 17.8613C349.85 17.6989 349.248 17.507 348.675 17.3004V23.4264H333.163V17.4775C332.589 17.6842 332.045 17.8761 331.471 18.0384C331.285 17.6399 330.697 16.7394 330.324 16.3556C334.482 15.2633 338.539 13.2115 340.632 10.4511L342.51 11.1301H342.496ZM348.574 17.2709C347.341 16.828 346.065 16.2818 344.904 15.5881V16.2671H336.962V15.7061C335.901 16.3261 334.783 16.8133 333.636 17.2709H348.574ZM334.467 24.3563H347.542V32.1356H345.363V31.5009H336.575V32.2389H334.467V24.3711V24.3563ZM337.593 18.8503C338.094 19.6474 338.596 20.7398 338.768 21.4483L337.249 21.965H339.958V18.7027H334.983V21.965H337.191C337.034 21.2269 336.589 20.1493 336.116 19.3227L337.607 18.8503H337.593ZM336.575 25.862V27.161H345.363V25.862H336.575ZM345.363 29.9952V28.6667H336.575V29.9952H345.363ZM343.557 14.7614C342.61 14.171 341.765 13.4919 341.033 12.7834C340.302 13.4919 339.428 14.171 338.539 14.7614H343.557ZM346.797 18.7027H341.707V21.965H344.273L342.854 21.5221C343.27 20.7693 343.743 19.5589 344.001 18.7618L345.793 19.2784C345.291 20.2969 344.79 21.286 344.374 21.965H346.811V18.7027H346.797Z" fill="white"/>
<path d="M370.566 1.47614H1.43362V41.5239H370.566V1.47614Z" stroke="white" stroke-width="2" stroke-miterlimit="10"/>
<path d="M105.931 1.13663V41.2582" stroke="white" stroke-width="2" stroke-miterlimit="10"/>
<path d="M19.3971 28.6814L26.68 18.9979C26.9667 18.6141 27.1531 18.2451 27.2534 17.9056C27.3251 17.5808 27.3538 17.2856 27.3538 17.0051C27.3538 16.2671 27.1387 15.6176 26.6943 15.0566C26.2356 14.4957 25.6048 14.2152 24.7732 14.2005C24.0421 14.2005 23.4256 14.4514 22.9382 14.9533C22.4364 15.4552 22.1354 16.149 22.035 17.0642H19.3684C19.4401 15.4257 19.9562 14.0529 20.9311 12.9753C21.906 11.9272 23.1246 11.3958 24.5582 11.381C26.1639 11.3958 27.4685 11.942 28.4577 13.0196C29.4756 14.0824 29.9917 15.4257 30.006 17.0642C30.006 18.3632 29.6333 19.5293 28.8734 20.5479L22.8808 28.5486H30.006V31.368H19.3684V28.7109L19.3971 28.6814Z" fill="white"/>
<path d="M37.9197 17.0642C37.934 15.2338 38.4932 13.8314 39.5684 12.8424C40.5863 11.8682 41.7905 11.381 43.1955 11.381C44.6005 11.381 45.8764 11.8682 46.8943 12.8424C47.9265 13.8314 48.4569 15.2338 48.4999 17.0642V25.8029C48.4713 27.6186 47.9265 29.0209 46.8943 30.0099C45.8764 30.9842 44.6435 31.4861 43.1955 31.5009C41.7905 31.4861 40.5719 30.9842 39.5684 30.0099C38.4788 29.0209 37.934 27.6186 37.9197 25.8029V17.0494V17.0642ZM45.8334 17.2413C45.776 15.2485 44.9015 14.2448 43.1955 14.2005C41.4895 14.23 40.6149 15.2485 40.5719 17.2413V25.6553C40.6006 27.6629 41.4751 28.6667 43.1955 28.6962C44.9015 28.6814 45.776 27.6629 45.8334 25.6553V17.2413Z" fill="white"/>
<path d="M56.1412 28.6814L63.4241 18.9979C63.7108 18.6141 63.8972 18.2451 63.9975 17.9056C64.0692 17.5808 64.0979 17.2856 64.0979 17.0051C64.0979 16.2671 63.8829 15.6176 63.4384 15.0566C62.9797 14.4957 62.3489 14.2152 61.5174 14.2005C60.7862 14.2005 60.1697 14.4514 59.6823 14.9533C59.1805 15.4552 58.8795 16.149 58.7791 17.0642H56.1125C56.1842 15.4257 56.7003 14.0529 57.6752 12.9753C58.6501 11.9272 59.8687 11.3958 61.3023 11.381C62.908 11.3958 64.2126 11.942 65.2018 13.0196C66.2197 14.0824 66.7358 15.4257 66.7501 17.0642C66.7501 18.3632 66.3774 19.5293 65.6176 20.5479L59.625 28.5486H66.7501V31.368H56.1125V28.7109L56.1412 28.6814Z" fill="white"/>
<path d="M73.99 25.7439L80.212 11.5434H83.1796L76.8859 25.7439H81.746V20.046H84.4125V25.7439H85.9035V28.401H84.4125V31.3532H81.746V28.401H73.9756V25.7439H73.99Z" fill="white"/>
</g>
<defs>
<clipPath id="clip0_1_160">
<rect width="372" height="43" fill="white"/>
</clipPath>
</defs>
</svg>
