<svg width="474" height="150" viewBox="0 0 474 150" fill="none" xmlns="http://www.w3.org/2000/svg">
<g clip-path="url(#clip0_206_33)">
<path d="M138.433 16.4146L31 134H58.443L66.9472 124.67C76.8217 114.847 100.286 101.023 136.286 92.831H96.1424L136.938 52.0172L136.286 92.831V134H149.586V16.4146H138.44H138.433Z" fill="white"/>
<path d="M186.409 86.7645C183.096 83.1654 175.876 78.7702 163.782 87.7843L175.942 72.1115L163.782 55.0767V87.7843V120.518L153.598 133.645V16L199.96 75.204L193.03 84.1392L188.603 89.8438L186.409 86.771" fill="white"/>
<path d="M228.206 16.3618C232.936 19.2306 238.034 22.8231 243.541 27.0143L240.248 31.3832C238.153 29.7054 236.236 28.1526 234.497 26.8367V30.37H220.242V28.1592C217.547 30.37 214.55 32.5873 211.257 34.7981L207.963 30.1923C214.675 26.001 220.308 21.3953 224.8 16.3684H228.219L228.206 16.3618ZM240.307 71.1113H234.978V69.019H223.713V71.1706H218.562V54.6556C217.422 60.8799 215.387 66.4463 212.449 71.2298L208.016 67.282C211.909 61.3537 213.885 53.7541 213.944 44.4242V33.2321H239.707V50.9446H219.096C218.977 52.1421 218.793 53.2804 218.615 54.3595H240.3V71.1179L240.307 71.1113ZM219.458 44.4242C219.458 45.2598 219.399 46.0428 219.399 46.8784H234.253V43.9438H219.458V44.4242ZM234.26 37.3642H219.464V40.2329H234.26V37.3642ZM233.601 26.1721C231.025 24.1982 228.805 22.6388 227.007 21.5071C225.63 23.0599 224.135 24.6193 222.455 26.1721H233.601ZM234.978 64.5909V58.7876H223.713V64.5909H234.978ZM246.716 70.7495L245.399 65.2423C248.271 65.4199 251.031 65.5449 253.666 65.5449C255.102 65.5449 255.82 64.8277 255.82 63.3934V16.3618H261.452V64.8343C261.452 68.7821 259.476 70.756 255.642 70.756H246.716V70.7495ZM250.912 20.3688V58.6692H245.458V20.3688H250.912Z" fill="white"/>
<path d="M293.335 16.1187V24.7973H298.308V16.1187H303.822V24.7973H308.018C309.638 22.2838 311.015 19.7112 312.214 16.9609L317.484 18.9348C316.226 21.1455 314.968 23.126 313.709 24.7973H322.273V29.7649H305.561L310.172 31.3835C309.335 32.7587 308.492 34.0154 307.537 35.2129H319.519V40.1805H298.848V43.4704H316.7V48.1946H298.848V51.4844H322.214V56.5113H298.848V71.5327H293.098V56.5113H269.732V51.4844H293.098V48.1946H275.246V43.4704H293.098V40.1805H272.426V35.2129H284.409C283.631 33.7785 282.729 32.4626 281.774 31.2059L285.667 29.7715H269.673V24.8038H278.177C277.215 22.7115 276.023 20.7968 274.699 19.0006L280.028 17.0266C281.346 19.1782 282.545 21.8101 283.684 24.8038H287.821V16.1187H293.335ZM287.465 60.9394C283.809 64.6504 279.257 67.881 273.862 70.6379L270.325 66.0913C275.595 63.6963 280.087 60.8276 283.684 57.597L287.459 60.946L287.465 60.9394ZM287.465 29.7649C288.486 31.3835 289.442 33.1798 290.337 35.2129H301.239C302.498 33.4166 303.578 31.6204 304.533 29.7649H287.459H287.465ZM321.43 66.5651L317.359 70.6379C314.362 67.7034 310.231 64.5912 304.836 61.2421L308.492 57.7088C313.643 60.7026 317.958 63.6371 321.43 66.5651Z" fill="white"/>
<path d="M350.434 21.8625V16H356.185V21.8625H369.485V27.1855H356.185V32.9887H363.253C368.885 29.0409 373.674 24.6128 377.633 19.8228L381.889 22.9942C378.832 26.7051 375.598 29.995 372.12 32.9887H382.903V38.3709H364.992C364.274 38.8512 363.556 39.2658 362.838 39.7461C360.625 41.062 358.108 42.4372 355.23 43.8189H375.539V71.4667H369.847V69.1901H345.704V71.4667H339.954V50.2867C336.956 51.3658 333.84 52.4975 330.606 53.6358L328.268 48.372C337.615 46.2205 346.422 42.9241 354.571 38.3775H329.17V32.9953H350.441V27.192H334.144V21.8691H350.441L350.434 21.8625ZM369.847 48.7339H345.704V53.8792H369.847V48.7339ZM345.704 64.1698H369.847V58.7877H345.704V64.1698Z" fill="white"/>
<path d="M231.322 118.794C226.349 124.361 220.242 129.203 212.99 133.395L209.037 128.249C216.165 124.42 222.159 119.992 227.007 114.906L231.322 118.794ZM222.574 89.7714V77.9214H228.266V89.7714H243.845V78.1648H249.536V89.7714H260.017V95.2786H249.536V108.267H262.955V113.833H209.156V108.267H222.574V95.2786H212.146V89.7714H222.574ZM243.845 108.26V95.272H228.266V108.26H243.845ZM263.133 128.789L258.581 133.335C254.503 128.907 248.812 124.177 241.506 119.031L245.643 115.024C252.533 119.689 258.344 124.236 263.139 128.789H263.133Z" fill="white"/>
<path d="M288.125 78.3428C292.855 81.2115 297.953 84.804 303.46 88.9953L300.166 93.3642C298.072 91.6864 296.155 90.1336 294.416 88.8176V92.3509H280.161V90.1401C277.466 92.3509 274.469 94.5683 271.176 96.779L267.882 92.1733C274.594 87.982 280.227 83.3762 284.719 78.3494H288.138L288.125 78.3428ZM300.226 133.099H294.897V131.007H283.632V133.158H278.481V116.643C277.341 122.867 275.306 128.434 272.368 133.217L267.935 129.27C271.828 123.341 273.804 115.742 273.863 106.412V95.2197H299.626V112.932H279.014C278.896 114.13 278.711 115.268 278.534 116.347H300.219V133.105L300.226 133.099ZM279.377 106.405C279.377 107.241 279.317 108.024 279.317 108.859H294.172V105.925H279.377V106.405ZM294.172 99.3451H279.377V102.214H294.172V99.3451ZM293.513 88.1531C290.938 86.1792 288.718 84.6198 286.919 83.4881C285.543 85.0409 284.047 86.6003 282.367 88.1531H293.513ZM294.89 126.572V120.769H283.626V126.572H294.89ZM306.635 132.737L305.318 127.23C308.19 127.407 310.95 127.532 313.585 127.532C315.021 127.532 315.739 126.815 315.739 125.381V78.3494H321.371V126.822C321.371 130.77 319.395 132.744 315.561 132.744H306.635V132.737ZM310.831 82.3498V120.65H305.377V82.3498H310.831Z" fill="white"/>
<path d="M380.328 80.376V85.9424H358.524V107.129H382.608V112.57H358.524V133.277H352.773V112.57H329.171V107.129H352.773V85.9424H331.569V80.376H380.335H380.328ZM346.239 102.161L340.91 104.793C338.933 99.7663 336.832 95.279 334.619 91.3311L339.948 88.7585C342.102 92.8313 344.203 97.2529 346.239 102.161ZM377.516 90.9693C375.776 95.575 373.504 100.062 370.744 104.491L365.592 101.859C368.405 97.3121 370.625 92.884 372.305 88.515L377.516 90.9693Z" fill="white"/>
<path d="M390.341 97.0092C394.893 95.9893 401.184 89.5873 409.214 77.8623L415.149 79.8954C410.294 86.6001 405.38 92.2258 400.354 96.7723C410.538 96.4104 420.366 95.7525 429.891 94.8576C427.974 91.9889 425.998 89.3504 424.022 86.837L429.173 84.3828C434.028 90.3637 438.639 96.95 443.013 104.188L437.44 106.938C436.004 104.424 434.628 102.089 433.244 99.8779C420.722 100.957 406.763 101.793 391.428 102.391L390.347 97.0092H390.341ZM436.294 133.395H430.544V130.941H401.065V133.395H395.314V107.964H436.294V133.395ZM430.537 125.493V113.406H401.058V125.493H430.537Z" fill="white"/>
</g>
<defs>
<clipPath id="clip0_206_33">
<rect width="412" height="118" fill="white" transform="translate(31 16)"/>
</clipPath>
</defs>
</svg>
