<svg width="521" height="150" viewBox="0 0 521 150" fill="none" xmlns="http://www.w3.org/2000/svg">
<g clip-path="url(#clip0_229_13)">
<path d="M199.85 107.676H214.598L180.578 23.2563H171.062L136.807 107.676H151.317L157.716 91.3964H193.503L199.847 107.676H199.85ZM162.463 79.3335L175.694 45.675L188.807 79.3335H162.463Z" fill="white"/>
<path d="M256.23 55.8741C254.647 54.0682 252.745 52.5618 250.52 51.3549C247.109 49.5053 243.145 48.5806 238.625 48.5806C233.548 48.5806 228.971 49.8456 224.886 52.3786C220.802 54.9115 217.59 58.3489 215.252 62.6907C212.912 67.0325 211.744 71.9385 211.744 77.4029C211.744 82.8672 212.914 87.8168 215.252 92.2372C217.59 96.6604 220.802 100.136 224.886 102.669C228.971 105.202 233.548 106.467 238.625 106.467C243.065 106.467 246.992 105.542 250.402 103.692C252.671 102.462 254.61 100.909 256.23 99.0392V105.26C256.23 109.921 254.724 113.6 251.71 116.296C248.695 118.989 244.611 120.335 239.46 120.335C235.335 120.335 231.807 119.611 228.873 118.166C225.939 116.718 223.323 114.548 221.023 111.655L212.458 120.338C215.232 124.357 218.88 127.472 223.401 129.685C227.921 131.895 233.193 133 239.222 133C245.251 133 250.402 131.834 254.922 129.502C259.443 127.169 262.97 123.933 265.509 119.794C268.047 115.653 269.315 110.808 269.315 105.263V49.7874H256.23V55.8741ZM255.1 86.1476C253.792 88.602 251.948 90.5097 249.57 91.8766C247.192 93.2434 244.413 93.9268 241.244 93.9268C238.074 93.9268 235.275 93.2434 232.857 91.8766C230.436 90.5097 228.555 88.5817 227.207 86.0865C225.859 83.5943 225.185 80.7414 225.185 77.525C225.185 74.3086 225.859 71.3569 227.207 68.9025C228.555 66.4509 230.436 64.5432 232.857 63.1735C235.275 61.8067 238.072 61.1233 241.244 61.1233C244.416 61.1233 247.19 61.8067 249.57 63.1735C251.948 64.5403 253.792 66.4509 255.1 68.9025C256.408 71.3569 257.062 74.2301 257.062 77.525C257.062 80.8199 256.408 83.696 255.1 86.1476Z" fill="white"/>
<path d="M319.271 56.2347C317.624 54.3066 315.665 52.6955 313.382 51.416C310.012 49.5286 306.146 48.5806 301.786 48.5806C296.629 48.5806 291.974 49.927 287.809 52.6199C283.648 55.3158 280.355 58.9334 277.937 63.473C275.516 68.0155 274.309 73.1425 274.309 78.8482C274.309 84.5539 275.516 89.5617 277.937 94.1042C280.355 98.6466 283.648 102.244 287.809 104.899C291.971 107.554 296.629 108.88 301.786 108.88C306.146 108.88 310.032 107.935 313.443 106.045C315.711 104.789 317.65 103.218 319.271 101.34V107.673H332.356V49.7845H319.271V56.2318V56.2347ZM315.642 91.3938C312.668 94.6916 308.762 96.3376 303.926 96.3376C300.754 96.3376 297.957 95.596 295.539 94.1071C293.118 92.621 291.217 90.5505 289.829 87.8954C288.44 85.2432 287.746 82.1867 287.746 78.729C287.746 75.2712 288.44 72.2177 289.829 69.5626C291.214 66.9104 293.118 64.8398 295.539 63.3509C297.957 61.8648 300.754 61.1203 303.926 61.1203C307.098 61.1203 310.009 61.8648 312.43 63.3509C314.848 64.8398 316.73 66.9075 318.08 69.5626C319.428 72.2148 320.103 75.2712 320.103 78.729C320.103 83.8763 318.617 88.096 315.642 91.3909V91.3938Z" fill="white"/>
<path d="M362.684 25.6675H349.599V49.7874H335.921V61.8473H349.599V107.676H362.684V61.8473H376.363V49.7874H362.684V25.6675Z" fill="white"/>
<path d="M421.442 51.4769C418.112 49.5459 414.306 48.5833 410.024 48.5833C405.742 48.5833 402.033 49.5691 398.666 51.5379C396.469 52.8204 394.587 54.4141 393.015 56.3101V20.8457H379.931V107.679H393.015V74.2736C393.015 71.6999 393.569 69.4112 394.682 67.3988C395.792 65.3893 397.338 63.8218 399.32 62.6964C401.302 61.5709 403.562 61.0068 406.1 61.0068C409.906 61.0068 413.018 62.2543 415.436 64.7466C417.854 67.2388 419.065 70.4145 419.065 74.2736V107.679H432.149V71.3771C432.149 66.8753 431.197 62.9174 429.296 59.4974C427.391 56.0804 424.775 53.4078 421.445 51.4769H421.442Z" fill="white"/>
<path d="M480.915 49.7874V56.2347C479.269 54.3066 477.31 52.6955 475.027 51.416C471.657 49.5286 467.79 48.5806 463.431 48.5806C458.274 48.5806 453.618 49.927 449.454 52.6199C445.292 55.3158 441.999 58.9334 439.581 63.473C437.161 68.0155 435.953 73.1425 435.953 78.8482C435.953 84.5539 437.161 89.5617 439.581 94.1042C441.999 98.6466 445.292 102.244 449.454 104.899C453.616 107.554 458.274 108.88 463.431 108.88C467.79 108.88 471.677 107.935 475.087 106.045C477.356 104.789 479.295 103.218 480.915 101.34V107.673H494V49.7845H480.915V49.7874ZM477.287 91.3938C474.313 94.6916 470.406 96.3376 465.57 96.3376C462.398 96.3376 459.602 95.596 457.184 94.1071C454.763 92.621 452.861 90.5505 451.473 87.8954C450.085 85.2432 449.391 82.1867 449.391 78.729C449.391 75.2712 450.085 72.2177 451.473 69.5626C452.858 66.9104 454.763 64.8398 457.184 63.3509C459.602 61.8648 462.398 61.1203 465.57 61.1203C468.743 61.1203 471.654 61.8648 474.075 63.3509C476.492 64.8398 478.374 66.9075 479.725 69.5626C481.073 72.2148 481.747 75.2712 481.747 78.729C481.747 83.8763 480.261 88.096 477.287 91.3909V91.3938Z" fill="white"/>
<path d="M73.1955 14C47.6999 14 27 34.9879 27 60.8381C27 86.6883 47.6999 107.676 73.1955 107.676H119.391V60.8381C119.391 34.9879 98.6911 14 73.1955 14ZM101.743 89.7825H90.8379V83.5941C85.982 87.4706 79.8555 89.7825 73.1955 89.7825C57.4289 89.7825 44.6481 76.824 44.6481 60.8381C44.6481 44.8522 57.4289 31.8936 73.1955 31.8936C88.9621 31.8936 101.743 44.8522 101.743 60.8381V89.7825Z" fill="white"/>
<path d="M73.1959 42.9443C65.3514 42.9443 58.7028 48.1411 56.4111 55.3213L65.8275 60.8351L56.4111 66.3488C58.7028 73.5319 65.3485 78.7258 73.1959 78.7258V78.7199C82.9393 78.7199 90.8383 70.711 90.8383 60.8321C90.8383 50.9533 82.9393 42.9443 73.1959 42.9443Z" fill="white"/>
</g>
<defs>
<clipPath id="clip0_229_13">
<rect width="467" height="119" fill="white" transform="translate(27 14)"/>
</clipPath>
</defs>
</svg>
