<svg width="637" height="150" viewBox="0 0 637 150" fill="none" xmlns="http://www.w3.org/2000/svg">
<g clip-path="url(#clip0_206_48)">
<path d="M63.9702 61.1198L48.9502 21.5898C26.2002 27.1698 9.00016 46.8698 7.16016 70.8798L63.9702 61.1298V61.1198Z" fill="url(#paint0_linear_206_48)"/>
<path d="M63.97 61.12L111.75 51.47L111.93 51.44C103.07 32.85 84.11 20 62.14 20C57.6 20 53.18 20.55 48.96 21.59L63.98 61.12H63.97Z" fill="url(#paint1_linear_206_48)"/>
<path d="M117.27 75.0999C117.27 66.6299 115.35 58.6099 111.93 51.4399L111.75 51.4699L103.44 87.7499L113.04 96.3599C115.76 89.8399 117.27 82.6799 117.28 75.1699V75.0999H117.27Z" fill="url(#paint2_linear_206_48)"/>
<path d="M103.44 87.75L50.6602 107.01L75.9102 128.54C92.7302 124.21 106.45 112.15 113.04 96.36L103.44 87.75Z" fill="url(#paint3_linear_206_48)"/>
<path d="M7 74.4702C7 74.6902 7 74.9202 7 75.1402C7 92.2302 14.77 107.5 26.98 117.61L50.66 107.01L7 74.4702Z" fill="url(#paint4_linear_206_48)"/>
<path d="M62.1505 130.27C66.9005 130.27 71.5105 129.67 75.9105 128.54L50.6605 107.01L26.9805 117.61C36.5205 125.52 48.7705 130.27 62.1305 130.27H62.1505Z" fill="url(#paint5_linear_206_48)"/>
<path d="M50.6598 107.01L63.9698 61.1299L7.15977 70.8799C7.06977 72.0599 7.01977 73.2599 7.00977 74.4599L50.6598 107.01Z" fill="url(#paint6_linear_206_48)"/>
<path d="M63.9697 61.1202L103.44 87.7502L111.75 51.4702L63.9697 61.1202Z" fill="url(#paint7_linear_206_48)"/>
<path d="M50.6602 107.01L103.44 87.7501L63.9702 61.1201L50.6602 107.01Z" fill="url(#paint8_linear_206_48)"/>
<path d="M103.44 87.75L50.6602 107.01L75.7802 128.57C75.9002 128.54 76.0102 128.51 76.1302 128.48L103.44 87.75Z" fill="url(#paint9_linear_206_48)"/>
<path d="M76.0402 79.1899C76.1202 77.8699 76.4502 76.7799 77.0302 75.9099C77.6102 75.0399 78.3502 74.3399 79.2402 73.8199C80.1302 73.2899 81.1402 72.9199 82.2602 72.6999C83.3802 72.4799 84.5001 72.3599 85.6301 72.3599C86.6601 72.3599 87.7002 72.4299 88.7502 72.5799C89.8002 72.7199 90.7601 73.0099 91.6301 73.4299C92.5001 73.8499 93.2102 74.4399 93.7602 75.1899C94.3102 75.9399 94.5901 76.9299 94.5901 78.1699V88.7899C94.5901 89.7099 94.6402 90.5899 94.7502 91.4299C94.8502 92.2699 95.0402 92.8999 95.3002 93.3199H89.6202C89.5102 92.9999 89.4302 92.6799 89.3602 92.3499C89.2902 92.0199 89.2502 91.6899 89.2202 91.3399C88.3302 92.2599 87.2702 92.9099 86.0602 93.2699C84.8502 93.6399 83.6102 93.8199 82.3502 93.8199C81.3802 93.8199 80.4701 93.6999 79.6301 93.4599C78.7901 93.2199 78.0502 92.8599 77.4202 92.3499C76.7902 91.8499 76.3002 91.2199 75.9402 90.4599C75.5802 89.6999 75.4102 88.7899 75.4102 87.7399C75.4102 86.5799 75.6101 85.6299 76.0201 84.8799C76.4301 84.1299 76.9502 83.5299 77.6002 83.0799C78.2402 82.6299 78.9802 82.2999 79.8102 82.0699C80.6402 81.8499 81.4702 81.6699 82.3202 81.5399C83.1602 81.4099 83.9902 81.2999 84.8102 81.2199C85.6302 81.1399 86.3502 81.0199 86.9802 80.8599C87.6102 80.6999 88.1102 80.4699 88.4802 80.1699C88.8502 79.8699 89.0202 79.4299 88.9902 78.8499C88.9902 78.2499 88.8902 77.7599 88.6902 77.4099C88.4902 77.0499 88.2302 76.7799 87.9002 76.5799C87.5702 76.3799 87.1902 76.2499 86.7602 76.1899C86.3302 76.1199 85.8602 76.0899 85.3602 76.0899C84.2502 76.0899 83.3902 76.3299 82.7502 76.7999C82.1202 77.2699 81.7502 78.0599 81.6402 79.1699H76.0402V79.1899ZM88.9802 83.3299C88.7402 83.5399 88.4501 83.6999 88.0901 83.8199C87.7301 83.9399 87.3501 84.0399 86.9501 84.1199C86.5401 84.1999 86.1102 84.2599 85.6702 84.3199C85.2202 84.3699 84.7802 84.4399 84.3302 84.5199C83.9102 84.5999 83.4901 84.6999 83.0901 84.8399C82.6801 84.9699 82.3301 85.1499 82.0201 85.3699C81.7201 85.5899 81.4702 85.8799 81.2902 86.2199C81.1102 86.5599 81.0102 86.9999 81.0102 87.5199C81.0102 88.0399 81.1002 88.4399 81.2902 88.7799C81.4702 89.1199 81.7202 89.3899 82.0402 89.5899C82.3602 89.7899 82.7202 89.9299 83.1502 89.9999C83.5702 90.0799 84.0001 90.1199 84.4501 90.1199C85.5601 90.1199 86.4101 89.9399 87.0201 89.5699C87.6201 89.1999 88.0702 88.7599 88.3602 88.2499C88.6502 87.7399 88.8302 87.2199 88.8902 86.6899C88.9602 86.1599 88.9902 85.7399 88.9902 85.4299V83.3399L88.9802 83.3299Z" fill="white"/>
<path d="M117.27 75.1399C117.27 74.2099 117.25 73.2799 117.2 72.3599H110.84C110.13 72.3599 109.44 72.4699 108.79 72.6799C108.13 72.8899 107.51 73.1899 106.93 73.5699C106.35 73.9499 105.84 74.4099 105.39 74.9499C104.94 75.4899 104.59 76.0699 104.32 76.7099H104.24V72.9199H98.9102V93.3299H104.51V84.1299C104.51 83.2099 104.6 82.3499 104.79 81.5599C104.97 80.7699 105.28 80.0799 105.72 79.4899C106.15 78.8999 106.73 78.4299 107.44 78.0899C108.15 77.7499 109.02 77.5799 110.05 77.5799H117.21C117.24 76.7699 117.27 75.9599 117.27 75.1499V75.1399Z" fill="white"/>
<path d="M45.4002 111.39C46.2402 112.21 47.4502 112.61 49.0302 112.61C50.1602 112.61 51.1302 112.33 51.9502 111.76C52.7702 111.19 53.2702 110.6 53.4502 109.96H58.3802C57.5902 112.41 56.3802 114.16 54.7502 115.21C53.1202 116.26 51.1402 116.79 48.8302 116.79C47.2202 116.79 45.7802 116.53 44.4902 116.02C43.2002 115.51 42.1102 114.78 41.2102 113.83C40.3202 112.88 39.6202 111.75 39.1402 110.44C38.6502 109.12 38.4102 107.68 38.4102 106.1C38.4102 104.52 38.6602 103.15 39.1602 101.84C39.6602 100.52 40.3702 99.3896 41.2902 98.4296C42.2102 97.4696 43.3102 96.7096 44.5902 96.1596C45.8702 95.6096 47.2802 95.3296 48.8302 95.3296C50.5702 95.3296 52.0802 95.6696 53.3702 96.3396C54.6602 97.0096 55.7202 97.9096 56.5502 99.0396C57.3802 100.17 57.9802 101.46 58.3502 102.91C58.7202 104.36 58.8502 105.87 58.7402 107.45H44.0202C44.1002 109.27 44.5602 110.58 45.4002 111.4V111.39ZM51.7302 100.66C51.0602 99.9196 50.0402 99.5496 48.6702 99.5496C47.7802 99.5496 47.0302 99.6996 46.4402 99.9996C45.8502 100.3 45.3702 100.68 45.0202 101.12C44.6602 101.57 44.4102 102.04 44.2702 102.54C44.1302 103.04 44.0402 103.49 44.0102 103.88H53.1302C52.8702 102.46 52.4002 101.38 51.7302 100.64V100.66Z" fill="white"/>
<path d="M71.7999 99.5496C70.8999 99.5496 70.1499 99.7496 69.5499 100.16C68.9399 100.57 68.4499 101.09 68.0699 101.74C67.6899 102.39 67.4199 103.1 67.2599 103.87C67.0999 104.65 67.0199 105.42 67.0199 106.18C67.0199 106.94 67.0999 107.67 67.2599 108.43C67.4199 109.19 67.6699 109.88 68.0299 110.5C68.3899 111.12 68.8599 111.62 69.4699 112.02C70.0699 112.41 70.8099 112.61 71.6799 112.61C73.0199 112.61 74.0499 112.24 74.7799 111.49C75.4999 110.74 75.9599 109.73 76.1399 108.47H81.5499C81.1799 111.18 80.1299 113.25 78.3899 114.67C76.6499 116.09 74.4299 116.8 71.7199 116.8C70.1899 116.8 68.7899 116.54 67.5199 116.03C66.2399 115.52 65.1599 114.8 64.2599 113.88C63.3699 112.96 62.6699 111.86 62.1699 110.58C61.6699 109.3 61.4199 107.9 61.4199 106.38C61.4199 104.86 61.6499 103.33 62.1099 101.98C62.5699 100.63 63.2499 99.4496 64.1399 98.4696C65.0299 97.4796 66.1299 96.7096 67.4199 96.1596C68.7099 95.6096 70.1799 95.3296 71.8399 95.3296C73.0499 95.3296 74.2099 95.4896 75.3299 95.7996C76.4499 96.1196 77.4499 96.5996 78.3299 97.2396C79.2099 97.8896 79.9299 98.6896 80.4799 99.6496C81.0299 100.61 81.3499 101.75 81.4299 103.06H75.9399C75.5699 100.72 74.1899 99.5496 71.7999 99.5496Z" fill="white"/>
<path d="M103.69 107.5C103.47 106.46 103.08 105.58 102.53 104.86C101.98 104.14 101.22 103.57 100.26 103.16C99.2997 102.75 98.0696 102.55 96.5696 102.55C95.5196 102.55 94.4397 102.82 93.3297 103.36C92.2197 103.9 91.3196 104.76 90.6096 105.95H90.4896V95.3296H84.8896V125.38C86.8196 124.5 88.6896 123.52 90.4896 122.44V112.82C90.4896 110.74 90.8296 109.25 91.5196 108.34C92.1996 107.43 93.3096 106.98 94.8396 106.98C96.1796 106.98 97.1196 107.39 97.6396 108.22C98.1696 109.05 98.4296 110.31 98.4296 111.99V116.66C100.43 114.91 102.3 113.02 104.03 111V110.97C104.03 109.71 103.92 108.56 103.69 107.52V107.5Z" fill="white"/>
<path d="M32.69 93.3198H46.87V73.5498H46.95L53.86 93.3198H58.64L65.55 73.3498H65.63V93.3198H71.43V65.1398H62.71L56.47 84.5198H56.39L49.8 65.1398H49.79L36.53 26.2998C33.72 27.7798 31.05 29.4898 28.55 31.4198C28.51 31.4498 28.48 31.4698 28.44 31.4998C28.17 31.7098 27.9 31.9298 27.63 32.1398C27.58 32.1798 27.52 32.2298 27.47 32.2698C27.21 32.4798 26.95 32.6898 26.7 32.9098C26.64 32.9598 26.58 33.0098 26.52 33.0598C26.27 33.2698 26.02 33.4898 25.77 33.7098C25.72 33.7598 25.66 33.8098 25.61 33.8598C25.36 34.0798 25.11 34.3098 24.86 34.5398C24.83 34.5698 24.79 34.5998 24.76 34.6298C23.62 35.6798 22.52 36.7798 21.47 37.9298L10.19 70.9798H18.89L23.79 56.6098H38.17L41.08 65.1298H41.07V88.0998H8.54004C8.97004 89.8698 9.48004 91.6098 10.07 93.3098H26.49V117.19C27.21 117.8 27.95 118.4 28.71 118.98C28.72 118.99 28.74 119 28.75 119.01C29 119.2 29.24 119.38 29.49 119.57C29.5 119.57 29.51 119.59 29.53 119.6C30.26 120.14 31.01 120.66 31.77 121.16C31.84 121.2 31.9 121.25 31.97 121.29C32.21 121.44 32.44 121.6 32.68 121.75V93.3098L32.69 93.3198ZM25.93 50.3198L30.98 35.5098L36.03 50.3198H25.94H25.93Z" fill="white"/>
<path d="M170.84 59.1001V63.4901H161.18V68.8401H170.1V83.7701H161.18V88.9601H171.76V93.3401H137.04V88.9601H147V83.7701H138.85V68.8401H147.15V63.4901H138.11V59.1001H170.82H170.84ZM156.82 88.9601V79.3801H165.7V73.2201H156.66V63.4801H151.52V73.2201H143.22V79.3801H151.37V88.9601H156.82Z" fill="white"/>
<path d="M193.631 65.8601V57.8101H198.15V65.8601H212.79V70.4101H197.84C199.46 73.8701 201.431 77.1701 203.711 80.2701C206.531 84.1301 209.851 87.1901 213.711 89.4401L211.281 94.3101C208.341 92.5401 205.531 90.1201 202.781 87.0301C200.541 84.6201 198.301 81.2401 196.101 76.8901C195.291 78.9801 194.25 80.9501 193.01 82.8101C192.74 83.2101 192.471 83.5701 192.241 83.9401C194.521 85.4701 196.641 87.2001 198.611 89.1301L195.441 93.1901C193.391 91.0601 191.31 89.2501 189.18 87.6401C186.79 90.2101 184.081 92.4301 181.111 94.3201L178.521 90.0501C183.731 86.6301 187.601 82.8101 190.141 78.5401C191.611 75.8801 192.61 73.1501 193.15 70.4101H179.29V65.8601H193.62H193.631Z" fill="white"/>
<path d="M231.06 60.0302C230.17 61.6802 229.01 63.3702 227.58 65.0602C225.61 67.1502 223.99 68.6402 222.75 69.4902L219.89 65.5502C221.2 64.5802 222.59 63.3402 224.06 61.8102C225.34 60.4402 226.34 59.0702 227.11 57.7002L231.05 60.0302H231.06ZM233.61 68.6802C232.53 70.7702 231.1 72.9002 229.25 75.0802V94.4702H224.85V79.3802C224.23 79.9002 223.69 80.3002 223.23 80.6302L220.18 76.5302C221.92 75.2802 223.73 73.6702 225.66 71.6602C227.36 69.8902 228.67 68.0802 229.68 66.3102L233.62 68.6902L233.61 68.6802ZM255.2 69.9202V74.5102H247.78V88.6302C247.78 90.9602 247.32 92.4902 246.47 93.1802C245.54 94.0302 243.92 94.4702 241.6 94.4702C239.75 94.4702 238.05 94.3102 236.46 93.9902L235.73 89.1202C237.66 89.6402 239.63 89.8902 241.6 89.8902C242.68 89.8902 243.26 89.2502 243.26 87.8802V74.5202H233.3V69.9302H255.2V69.9202ZM253.38 59.4202V63.8102H235.27V59.4202H253.38Z" fill="white"/>
<path d="M272.54 59.2602C272.42 59.5402 272.31 59.8202 272.19 60.0602C274.2 61.3502 276.09 62.8402 277.79 64.4402L274.93 68.1802C273.39 66.5702 271.8 65.1602 270.22 63.9602C269.87 64.5202 269.56 65.0102 269.25 65.4502C268.52 66.5802 267.71 67.6202 266.86 68.5102H275.55V72.7802H272.38V75.2702H276.75V79.5402H272.38V87.8702C273.89 87.6302 275.35 87.3502 276.75 87.0702L277.37 91.0102C273.43 92.0602 269.03 93.0202 264.24 93.8302L262.73 89.2802C264.62 89.0402 266.44 88.8002 268.14 88.5602V79.5502H263.47V75.2802H268.14V72.7902H265.44V69.9302C265.13 70.2502 264.82 70.4902 264.55 70.7302L261.65 67.7502C263.23 66.2202 264.55 64.7302 265.59 63.2002C266.75 61.5102 267.68 59.7802 268.45 57.9702L272.54 59.2602ZM267.72 86.5802L263.78 87.8702C263.51 85.7002 263.12 83.7602 262.58 82.0302L266.36 80.7802C266.9 82.5502 267.36 84.4802 267.71 86.5702L267.72 86.5802ZM277.8 81.2702C277.41 83.4002 276.99 85.1702 276.6 86.5802L272.85 85.4902C273.27 83.7602 273.62 82.0302 273.89 80.3002L277.79 81.2702H277.8ZM284.01 65.3802L280.38 67.5902C279.61 65.5002 278.53 63.5302 277.21 61.6002L280.69 59.4302C282 61.2802 283.12 63.2902 284.01 65.3902V65.3802ZM289 58.1402V68.3602H295.91V89.2802C295.91 92.7402 294.13 94.4702 290.62 94.4702C289.92 94.4702 289.15 94.3502 288.23 94.1502L287.34 89.6002C288.5 90.0002 289.62 90.2002 290.62 90.2002C291.24 90.2002 291.55 89.5202 291.55 88.1502V85.8202H282.78V94.4702H278.42V68.3602H284.75V58.1402H289ZM291.54 74.9502V72.7802H282.77V74.9502H291.54ZM291.54 81.5502V79.2202H282.77V81.5502H291.54ZM296.53 61.2702C295.45 64.0902 294.29 66.2602 293.05 67.7502L289.88 64.8902C291.15 63.2802 292.2 61.4702 293.05 59.4202L296.53 61.2702Z" fill="white"/>
<path d="M312.06 59.4202V57.9702H316V59.4202H322.91V63.8102H324.26V66.9502H322.91V71.3302H316V72.3002H322.76C323.72 70.4502 324.57 68.4402 325.31 66.2202C326.39 63.4002 327.2 60.7102 327.74 58.1302L331.83 59.4202C331.45 60.9902 331.06 62.5202 330.63 63.9702H338.32V68.1902H337.24C336.7 74.1402 335.66 79.1802 334.03 83.2402C333.95 83.4802 333.84 83.6802 333.76 83.8402C335.23 86.3002 337 88.3502 339.05 90.0402L336.19 94.6302C334.26 92.6602 332.64 90.6502 331.36 88.4702C329.81 90.7202 328 92.6902 325.91 94.3002L323.21 90.5202C325.57 88.7502 327.5 86.5402 329 83.8002C327.92 81.3502 327.03 78.4502 326.33 75.1102C326.02 75.6702 325.75 76.2002 325.48 76.6802L323.2 74.9102V80.1402H314.28C314.13 80.5402 314.01 80.9402 313.86 81.2702H324.71V84.8502H321.12C320.5 86.3802 319.81 87.6302 319 88.6702C320.08 89.3102 321.16 89.9602 322.32 90.6802L320.2 94.7402C318.66 93.5302 317.15 92.4902 315.72 91.6002C313.25 93.0902 309.69 94.1002 305.1 94.6202L304.06 90.6802C307 90.5202 309.47 90.0402 311.44 89.2302C310.98 88.9902 310.51 88.7902 310.09 88.5902C309.9 88.9102 309.7 89.1902 309.51 89.4402L305.88 87.2302C306.46 86.4602 307 85.6602 307.54 84.8502H303.75V81.2702H309.46C309.62 80.9102 309.81 80.5502 309.96 80.1402H304.67V72.2902H312.05V71.3202H305.1V66.9402H303.59V63.8002H305.1V59.4102H312.05L312.06 59.4202ZM312.06 76.8502V75.6002H308.43V76.8502H312.06ZM312.06 63.8102V62.8402H308.89V63.8102H312.06ZM312.06 67.8702V66.9402H308.89V67.8702H312.06ZM316.73 84.8502H312.29C312.17 85.0502 312.1 85.2102 312.02 85.3702C313.1 85.7702 314.22 86.2502 315.3 86.7402C315.84 86.1802 316.3 85.5702 316.73 84.8502ZM316 63.8102H319.17V62.8402H316V63.8102ZM316 67.8702H319.17V66.9402H316V67.8702ZM316 76.8502H319.44V75.6002H316V76.8502ZM331.25 78.5402C332.14 75.6402 332.76 72.1802 333.14 68.2002H329.24C329.16 68.3602 329.12 68.5202 329.09 68.6402C328.94 69.0802 328.78 69.4402 328.67 69.7702C329.37 73.1502 330.22 76.0502 331.26 78.5402H331.25Z" fill="white"/>
<path d="M357.17 59.5399C356.4 62.0799 355.51 64.5299 354.47 66.8999V94.2999H350.07V75.3899C349.22 76.7199 348.37 77.9299 347.52 79.0499L345.09 74.3399C348.64 69.2299 351.23 63.8399 352.81 58.1299L357.17 59.5399ZM377.1 71.2099C375.71 77.8899 374.24 83.7599 372.77 88.7899H379.95V93.1799H355.19V88.7899H368.05C369.75 82.7499 371.18 76.4399 372.37 69.7599L377.08 71.2099H377.1ZM370.15 58.2999V63.9699H379.5V68.3599H356.25V63.9699H365.63V58.2999H370.15ZM365.63 86.1399L361.23 87.3899C360.69 81.9199 359.69 76.7699 358.22 71.9799L362.74 70.8899C364.17 75.9199 365.13 80.9899 365.64 86.1399H365.63Z" fill="white"/>
<path d="M392.17 60.9899V58.1299H395.96V60.9899H401.06V64.8899H395.96V66.4599H400.94V82.9599H395.8V84.8499H401.21V88.7899H395.8V94.1399H392.01V88.7899H386.87V84.8499H392.01V82.9599H387.03V66.4599H392.16V64.8899H387.03V60.9899H392.16H392.17ZM392.32 72.7799V70.5699H390.81V72.7799H392.32ZM392.32 78.8999V76.6899H390.81V78.8999H392.32ZM395.64 72.7799H397.15V70.5699H395.64V72.7799ZM395.64 78.8999H397.15V76.6899H395.64V78.8999ZM409.08 59.8699V58.1399H413.13V59.8699H421.43V63.4899H413.13V64.5799H420.35V77.3399H419.92C420.77 78.4299 421.54 79.5099 422.16 80.6399L418.99 82.5299C418.76 82.0099 418.49 81.5199 418.22 81.0399C418.07 81.0799 417.91 81.0799 417.8 81.0799V82.9699H421.59V86.7499H417.8V89.2899C417.8 91.3799 417.45 92.7099 416.76 93.3499C415.99 94.0699 414.67 94.4799 412.82 94.4799C412.05 94.4799 411.35 94.3999 410.7 94.3199L409.97 89.8899C410.9 90.2099 411.86 90.3699 412.83 90.3699C413.53 90.3699 413.91 89.7699 413.91 88.4799V86.7499H408.08C408.78 87.6299 409.36 88.5599 409.82 89.4499L406.5 91.4599C405.92 90.2499 405.19 89.1299 404.26 87.9999L406.23 86.7499H401.83V82.9699H413.92V81.5199C410.44 81.8399 406.62 82.0399 402.45 82.0399L401.83 78.5799C404.38 78.5799 406.81 78.5799 409.09 78.4999V77.3299H401.98V64.5699H409.09V63.4799H401.68V59.8599H409.09L409.08 59.8699ZM409.08 69.3199V68.1899H405.87V69.3199H409.08ZM409.08 73.7099V72.6199H405.87V73.7099H409.08ZM413.14 69.3199H416.46V68.1899H413.14V69.3199ZM413.14 73.7099H416.46V72.6199H413.14V73.7099ZM415.84 77.6499L416.3 77.3299H413.13V78.3399C414.21 78.2999 415.25 78.2199 416.26 78.1399C416.11 77.9799 415.95 77.8199 415.84 77.6599V77.6499Z" fill="white"/>
<path d="M447.98 58.9401V63.0001H444.81V67.4301H448.9V71.4901H444.81V79.3801H440.6V71.4901H437.24C436.97 73.1001 436.39 74.5501 435.46 75.9201C434.26 77.7301 432.76 79.1801 430.94 80.3001L428.51 76.2401C430.17 75.2701 431.41 74.2301 432.22 73.0201C432.53 72.5401 432.8 72.0101 432.95 71.4901H428.97V67.4301H433.33V63.0001H430.16V58.9401H447.96H447.98ZM443.62 82.5201V79.8201H447.98V82.5201H460.22V86.7401H447.98V89.7201H463.08V93.9901H428.82V89.7201H443.61V86.7401H431.52V82.5201H443.61H443.62ZM440.6 63.0001H437.43V67.4301H440.6V63.0001ZM454.47 60.8301V73.5401H450.26V60.8301H454.47ZM461.57 58.1401V74.0301C461.57 76.4001 461.26 78.0101 460.64 78.8601C459.91 79.8201 458.59 80.3101 456.74 80.3101C455.23 80.3101 453.8 80.1501 452.49 79.8301L451.76 74.9601C453.19 75.4001 454.66 75.6001 456.12 75.6001C456.55 75.6001 456.82 75.4401 456.97 75.0801C457.09 74.6001 457.16 73.8701 457.16 72.9101V58.1401H461.56H461.57Z" fill="white"/>
<path d="M483.28 59.1002V63.1602H481.62V65.9002L483.43 63.6502C483.66 63.8502 483.93 64.0102 484.16 64.1702C485.24 62.0802 486.13 60.0302 486.9 57.9702L490.22 59.5402C489.1 62.1602 488.06 64.3702 487.09 66.1802C487.32 66.3402 487.51 66.5002 487.71 66.6202C488.48 65.0102 489.22 63.3602 489.91 61.7502L493.54 63.3202C492.27 65.9402 491.07 68.3102 489.91 70.4002L492.62 69.7602C493.35 71.8902 493.85 74.0602 494.13 76.2402L490.69 77.1702C490.61 76.6902 490.57 76.2402 490.5 75.7602C488.26 76.5602 485.83 77.2502 483.28 77.8102L482.08 74.0302C482.66 73.9502 483.24 73.8302 483.78 73.7102C484.55 72.5002 485.25 71.3002 485.9 70.0902C484.47 69.0002 483.04 67.9202 481.61 66.8302V94.4702H477.71V87.9102C475.51 88.5102 473.19 89.0402 470.76 89.4402L469.99 85.0102C470.49 84.9702 470.99 84.9302 471.5 84.8502V63.1602H469.99V59.1002H483.28ZM477.72 67.4302V63.1602H475.44V67.4302H477.72ZM477.72 75.6002V71.3302H475.44V75.6002H477.72ZM477.72 83.8902V79.5402H475.44V84.2902C476.25 84.1702 477.02 84.0502 477.72 83.8902ZM487.22 78.5802V82.9602H489.61V77.8102H493.4V83.1202C493.4 86.6602 492.74 89.2402 491.43 90.9202C490.12 92.6902 487.99 93.8602 485.1 94.4602L483.28 90.5202C485.64 90.1202 487.3 89.3502 488.22 88.1902C488.57 87.7902 488.84 87.3102 489.07 86.7402H487.22V87.8702H483.59V78.5802H487.22ZM489.5 71.2102C489.19 71.7302 488.92 72.2202 488.65 72.7002C489.04 72.6202 489.46 72.5402 489.85 72.4202C489.73 72.0202 489.62 71.6202 489.5 71.2102ZM500.93 59.5402C499.89 62.1602 498.92 64.4102 498.03 66.2602C498.26 66.4202 498.49 66.5402 498.69 66.6602C499.39 65.0102 500.04 63.3602 500.62 61.7502L504.25 63.3202C503.25 65.6502 502.28 67.7802 501.39 69.7202L503.78 69.1602C504.44 71.5702 504.9 73.9502 505.17 76.3602L502 77.1702C501.92 76.6902 501.88 76.1602 501.81 75.6802C499.57 76.2002 497.14 76.6502 494.59 77.0102L493.97 73.2302C494.51 73.1902 495.05 73.1102 495.59 73.0302C496.13 72.0602 496.59 71.1402 497.06 70.1702C495.44 69.1202 493.82 68.0402 492.19 66.9502L494.43 64.1302C494.62 64.2502 494.82 64.3702 494.97 64.4502C495.97 62.2802 496.86 60.1502 497.59 57.9702L500.91 59.5402H500.93ZM498.54 77.9302V82.9602H500.63V78.5802H504.26V88.9602H500.63V86.7502H498.54V94.4702H494.75V77.9302H498.54ZM500.78 70.9702C500.55 71.4902 500.32 71.9802 500.08 72.3802C500.43 72.3402 500.78 72.2602 501.12 72.1802C501 71.7802 500.89 71.3802 500.77 70.9702H500.78Z" fill="white"/>
<path d="M543.04 89.44H546.21V93.83H512.11V89.44H515.43V80.63H543.04V89.44ZM526.59 77.01H517.24V79.06H513.15V58.94H526.59V77.01ZM522.53 66.18V63H517.24V66.18H522.53ZM522.53 72.9V69.92H517.24V72.9H522.53ZM522.95 89.44V84.85H519.78V89.44H522.95ZM543.92 58.46V74.64C543.92 78.34 542.3 80.15 539.09 80.15C538.09 80.15 536.93 80.07 535.62 79.83L534.73 75.28C536 75.72 537.2 75.92 538.36 75.92C539.09 75.92 539.52 75.32 539.67 74.03H532.53C532.41 74.67 532.3 75.24 532.14 75.8C531.72 77.33 531.02 78.9 530.05 80.47L526.42 78.26C527.42 76.21 528.08 74.44 528.43 72.91C528.82 71.06 529.01 69.21 529.01 67.36V58.47H543.92V58.46ZM530.79 89.44V84.85H527.35V89.44H530.79ZM539.72 64.45V62.72H532.92V64.45H539.72ZM539.72 70.09V68.36H532.92V70.09H539.72ZM538.67 89.44V84.85H535.19V89.44H538.67Z" fill="white"/>
<path d="M556.33 66.6299V58.2999H560.7V66.6299H563.71V71.0599H560.7V89.6099C562.09 88.2799 563.13 86.7899 563.83 85.1499C564.45 83.6999 564.8 82.1699 564.87 80.6399H561.9V76.3699H564.91V74.1999H569.16V76.3699H574.88C574.88 83.0499 574.69 87.5199 574.3 89.6899C575.54 88.3199 576.46 86.8299 577.08 85.2199C577.58 83.7699 577.89 82.3199 578.01 80.7899H575.35V76.3599H578.05V74.1899H582.42V76.3599H588.33C588.25 82.9599 587.9 87.9099 587.21 91.2499C587.02 91.9699 586.55 92.5799 585.86 93.0599C585.09 93.4599 584.2 93.6599 583.2 93.6599C582.43 93.6599 581.58 93.5399 580.61 93.3399L580.22 89.0799C579.14 91.1699 577.79 92.9399 576.24 94.3099L574.12 90.6499C573.81 91.7799 573.31 92.5799 572.69 92.9799C571.92 93.4199 570.91 93.6599 569.6 93.6599C568.9 93.6599 568.21 93.5399 567.51 93.3399L566.66 89.0399C565.5 91.0099 564.11 92.6599 562.53 93.9899L560.72 90.8499V94.3099H556.35V71.0499H553.03V66.6199H556.35L556.33 66.6299ZM572.47 60.6699C572.55 59.8999 572.59 59.0599 572.59 58.1299H576.99C576.99 59.0599 576.95 59.8999 576.91 60.6699H586.91C586.64 66.6299 586.06 70.2899 585.17 71.6999C584.4 72.9499 583.28 73.5499 581.81 73.5499C580.34 73.5499 578.68 73.3899 576.83 73.0699L575.9 68.6899C577.91 69.0099 579.65 69.1699 581.03 69.1699C581.38 69.1699 581.65 69.0099 581.8 68.6499C581.99 68.1299 582.15 66.9199 582.22 65.0699H576.31C575.85 67.0399 575.19 68.4899 574.3 69.3799C572.68 71.1499 570.36 72.6799 567.31 73.8899L564.88 69.9499C567.31 69.0699 569.21 67.9399 570.52 66.5699C570.91 66.2099 571.22 65.7199 571.48 65.0799H565.19V60.6999H572.45L572.47 60.6699ZM567.14 88.2299C567.02 88.4299 566.91 88.5899 566.83 88.7499C567.76 89.1099 568.68 89.2699 569.57 89.2699C569.92 89.2699 570.15 89.1499 570.3 88.9099C570.46 88.7099 570.53 88.1899 570.61 87.3799C570.73 85.8899 570.8 83.6399 570.8 80.6199H569.1C568.95 83.4399 568.29 85.9699 567.13 88.2299H567.14ZM580.54 88.3899C580.5 88.4699 580.46 88.5499 580.46 88.5499C581.54 88.9499 582.43 89.1099 583.16 89.1099C583.31 89.1099 583.43 89.0299 583.55 88.8299C583.63 88.7099 583.7 88.3499 583.78 87.6999C583.93 85.5699 584.05 83.2699 584.05 80.7799H582.35C582.2 83.5999 581.62 86.1299 580.53 88.3799L580.54 88.3899Z" fill="white"/>
<path d="M614.81 59.5001C617.01 60.5501 619.25 61.4301 621.53 62.2401C624.5 63.2901 627.4 64.1301 630.22 64.7401L627.98 69.0001C627.56 68.8801 627.17 68.7601 626.78 68.6401V79.9901H597.82V68.9601C597.44 69.0801 597.09 69.2001 596.74 69.3201L594.5 65.2201C600.99 63.3701 606.94 60.7501 612.3 57.3701L614.81 59.5001ZM625.54 94.4701H621.33V93.6701H603.84V94.4701H599.59V80.9501H625.54V94.4701ZM625.39 68.1901C623.38 67.5501 621.49 66.8201 619.67 66.0201V67.2701H604.42V66.3001C602.91 66.9801 601.41 67.6301 599.86 68.1901H625.39ZM604.76 76.0801C604.3 75.2001 603.79 74.3501 603.22 73.5401L605.34 72.1301H602.02V76.0701H604.76V76.0801ZM621.33 85.6601V84.7001H603.84V85.6601H621.33ZM621.33 89.8801V88.9501H603.84V89.8801H621.33ZM608.67 74.9501L606.78 76.0801H610.02V72.1401H607.12C607.74 73.0701 608.24 73.9901 608.66 74.9601L608.67 74.9501ZM614.92 63.8101C613.92 63.3301 612.95 62.8001 612.06 62.2801C611.17 62.8401 610.28 63.3301 609.39 63.8101H614.91H614.92ZM614.07 76.0801H617.08L615.61 75.2801C616.23 74.2401 616.69 73.1901 617.08 72.1401H614.07V76.0801ZM621.18 73.0601C620.72 74.2701 620.25 75.2701 619.75 76.0801H622.53V72.1401H618.63L621.18 73.0701V73.0601Z" fill="white"/>
<path d="M143.67 108.85H140.01L139.32 110.79H137.15L140.69 101.33H143.03L146.55 110.79H144.3L143.66 108.85H143.67ZM143.09 107.22L141.85 103.5L140.57 107.22H143.09Z" fill="white"/>
<path d="M151.49 109.43C151.98 109.43 152.38 109.38 152.68 109.28C153.26 109.08 153.55 108.72 153.55 108.18C153.55 107.87 153.41 107.63 153.12 107.46C152.83 107.29 152.38 107.15 151.77 107.02L150.72 106.8C149.69 106.58 148.97 106.34 148.58 106.08C147.91 105.64 147.58 104.96 147.58 104.03C147.58 103.18 147.9 102.48 148.55 101.92C149.2 101.36 150.15 101.08 151.4 101.08C152.45 101.08 153.34 101.34 154.08 101.87C154.82 102.4 155.21 103.16 155.24 104.17H153.25C153.21 103.6 152.95 103.2 152.47 102.96C152.15 102.8 151.74 102.72 151.26 102.72C150.72 102.72 150.3 102.82 149.98 103.03C149.66 103.24 149.5 103.52 149.5 103.89C149.5 104.23 149.66 104.48 149.97 104.65C150.17 104.76 150.6 104.89 151.26 105.04L152.97 105.43C153.72 105.6 154.29 105.83 154.67 106.12C155.26 106.57 155.56 107.21 155.56 108.05C155.56 108.89 155.21 109.63 154.52 110.2C153.82 110.77 152.84 111.06 151.58 111.06C150.32 111.06 149.27 110.78 148.53 110.22C147.79 109.66 147.42 108.88 147.42 107.9H149.4C149.46 108.33 149.59 108.66 149.77 108.87C150.11 109.26 150.68 109.45 151.5 109.45L151.49 109.43Z" fill="white"/>
<path d="M157 101.33H159.06V110.79H157V101.33Z" fill="white"/>
<path d="M166.88 108.85H163.22L162.53 110.79H160.36L163.9 101.33H166.24L169.76 110.79H167.51L166.87 108.85H166.88ZM166.3 107.22L165.06 103.5L163.78 107.22H166.3Z" fill="white"/>
<path d="M170.641 106.26H174.511V107.99H170.641V106.26Z" fill="white"/>
<path d="M180.54 107.39H178.43V110.79H176.37V101.33H180.7C181.7 101.33 182.49 101.57 183.08 102.06C183.67 102.55 183.97 103.3 183.97 104.33C183.97 105.45 183.67 106.24 183.08 106.7C182.49 107.16 181.64 107.39 180.54 107.39ZM181.51 105.42C181.78 105.19 181.91 104.83 181.91 104.34C181.91 103.85 181.77 103.5 181.5 103.29C181.23 103.08 180.85 102.98 180.36 102.98H178.43V105.77H180.36C180.85 105.77 181.23 105.66 181.51 105.43V105.42Z" fill="white"/>
<path d="M190.39 108.85H186.73L186.04 110.79H183.87L187.41 101.33H189.75L193.27 110.79H191.02L190.38 108.85H190.39ZM189.81 107.22L188.57 103.5L187.29 107.22H189.81Z" fill="white"/>
<path d="M201.621 110.09C200.881 110.74 199.931 111.06 198.781 111.06C197.351 111.06 196.231 110.62 195.411 109.75C194.591 108.87 194.181 107.67 194.181 106.14C194.181 104.49 194.641 103.21 195.571 102.32C196.381 101.54 197.411 101.15 198.661 101.15C200.331 101.15 201.551 101.67 202.331 102.72C202.761 103.31 202.991 103.9 203.021 104.49H200.941C200.811 104.04 200.631 103.69 200.421 103.46C200.041 103.05 199.481 102.84 198.741 102.84C198.001 102.84 197.391 103.13 196.951 103.71C196.511 104.29 196.301 105.11 196.301 106.17C196.301 107.23 196.531 108.03 196.991 108.55C197.451 109.08 198.041 109.34 198.751 109.34C199.461 109.34 200.031 109.11 200.411 108.66C200.621 108.42 200.801 108.05 200.941 107.56H202.991C202.811 108.59 202.351 109.43 201.611 110.08L201.621 110.09Z" fill="white"/>
<path d="M204.49 101.33H206.55V110.79H204.49V101.33Z" fill="white"/>
<path d="M215.591 103.01H210.611V105.19H214.971V106.83H210.611V110.8H208.551V101.35H215.591V103.01Z" fill="white"/>
<path d="M216.891 101.33H218.951V110.79H216.891V101.33Z" fill="white"/>
<path d="M227.961 110.09C227.221 110.74 226.27 111.06 225.12 111.06C223.69 111.06 222.571 110.62 221.751 109.75C220.931 108.87 220.521 107.67 220.521 106.14C220.521 104.49 220.981 103.21 221.921 102.32C222.731 101.54 223.76 101.15 225.01 101.15C226.68 101.15 227.9 101.67 228.68 102.72C229.11 103.31 229.34 103.9 229.37 104.49H227.29C227.16 104.04 226.981 103.69 226.771 103.46C226.391 103.05 225.83 102.84 225.09 102.84C224.35 102.84 223.741 103.13 223.301 103.71C222.861 104.29 222.65 105.11 222.65 106.17C222.65 107.23 222.88 108.03 223.34 108.55C223.8 109.08 224.391 109.34 225.101 109.34C225.811 109.34 226.38 109.11 226.76 108.66C226.97 108.42 227.15 108.05 227.29 107.56H229.351C229.171 108.59 228.711 109.43 227.971 110.08L227.961 110.09Z" fill="white"/>
<path d="M240.701 110.79H238.771V101.33H241.79L243.601 108.77L245.391 101.33H248.381V110.79H246.451V104.39C246.451 104.21 246.451 103.95 246.451 103.62C246.451 103.29 246.451 103.03 246.451 102.85L244.571 110.79H242.551L240.68 102.85C240.68 103.03 240.68 103.29 240.68 103.62C240.68 103.95 240.68 104.21 240.68 104.39V110.79H240.701Z" fill="white"/>
<path d="M256.18 108.85H252.52L251.83 110.79H249.66L253.21 101.33H255.56L259.08 110.79H256.83L256.19 108.85H256.18ZM255.6 107.22L254.36 103.5L253.08 107.22H255.6Z" fill="white"/>
<path d="M264.62 107.09H262.48V110.8H260.45V101.34H265.32C266.02 101.35 266.55 101.44 266.93 101.58C267.31 101.73 267.62 101.95 267.88 102.24C268.09 102.48 268.27 102.74 268.39 103.03C268.51 103.32 268.58 103.65 268.58 104.03C268.58 104.48 268.46 104.92 268.22 105.35C267.98 105.79 267.59 106.09 267.04 106.27C267.5 106.45 267.82 106.69 268.01 107.02C268.2 107.34 268.3 107.84 268.3 108.5V109.13C268.3 109.56 268.32 109.86 268.35 110.01C268.4 110.25 268.53 110.43 268.73 110.55V110.79H266.44C266.38 110.58 266.33 110.41 266.31 110.28C266.26 110.01 266.23 109.74 266.22 109.46V108.58C266.2 107.98 266.08 107.57 265.86 107.37C265.64 107.17 265.22 107.07 264.61 107.07L264.62 107.09ZM265.88 105.36C266.29 105.18 266.5 104.82 266.5 104.3C266.5 103.73 266.3 103.34 265.9 103.14C265.68 103.03 265.34 102.97 264.89 102.97H262.48V105.51H264.83C265.3 105.51 265.65 105.46 265.88 105.36Z" fill="white"/>
<path d="M277.66 101.33V103.01H274.69V110.8H272.6V103.01H269.61V101.33H277.66Z" fill="white"/>
<path d="M285.85 106.66H281.03V109.09H286.53V110.79H279V101.33H286.29V103.01H281.03V105.02H285.85V106.66Z" fill="white"/>
<path d="M295.221 110.09C294.481 110.74 293.531 111.06 292.371 111.06C290.941 111.06 289.821 110.62 289.001 109.75C288.181 108.87 287.771 107.67 287.771 106.14C287.771 104.49 288.231 103.21 289.161 102.32C289.971 101.54 291.001 101.15 292.251 101.15C293.921 101.15 295.141 101.67 295.921 102.72C296.351 103.31 296.581 103.9 296.611 104.49H294.531C294.401 104.04 294.221 103.69 294.011 103.46C293.631 103.05 293.071 102.84 292.331 102.84C291.591 102.84 290.981 103.13 290.541 103.71C290.101 104.29 289.891 105.11 289.891 106.17C289.891 107.23 290.121 108.03 290.581 108.55C291.041 109.08 291.621 109.34 292.341 109.34C293.061 109.34 293.621 109.11 294.001 108.66C294.211 108.42 294.391 108.05 294.531 107.56H296.591C296.411 108.59 295.951 109.43 295.211 110.08L295.221 110.09Z" fill="white"/>
<path d="M304.17 110.79V106.57H300.29V110.79H298.23V101.33H300.29V104.94H304.17V101.33H306.23V110.79H304.17Z" fill="white"/>
<path d="M323.311 101.33V103.01H320.341V110.8H318.251V103.01H315.261V101.33H323.311Z" fill="white"/>
<path d="M328.811 107.09H326.671V110.8H324.641V101.34H329.511C330.211 101.35 330.741 101.44 331.121 101.58C331.501 101.73 331.811 101.95 332.071 102.24C332.291 102.48 332.461 102.74 332.581 103.03C332.711 103.32 332.771 103.65 332.771 104.03C332.771 104.48 332.651 104.92 332.411 105.35C332.171 105.79 331.781 106.09 331.231 106.27C331.691 106.45 332.011 106.69 332.201 107.02C332.391 107.34 332.491 107.84 332.491 108.5V109.13C332.491 109.56 332.511 109.86 332.541 110.01C332.591 110.25 332.721 110.43 332.921 110.55V110.79H330.641C330.581 110.58 330.531 110.41 330.511 110.28C330.461 110.01 330.431 109.74 330.421 109.46V108.58C330.401 107.98 330.281 107.57 330.061 107.37C329.841 107.17 329.421 107.07 328.811 107.07V107.09ZM330.071 105.36C330.481 105.18 330.691 104.82 330.691 104.3C330.691 103.73 330.491 103.34 330.091 103.14C329.871 103.03 329.531 102.97 329.081 102.97H326.671V105.51H329.021C329.491 105.51 329.841 105.46 330.071 105.36Z" fill="white"/>
<path d="M340.451 108.85H336.791L336.101 110.79H333.931L337.471 101.33H339.821L343.341 110.79H341.091L340.451 108.85ZM339.871 107.22L338.631 103.5L337.351 107.22H339.871Z" fill="white"/>
<path d="M352.701 110.79H350.621L346.561 104.07V110.79H344.631V101.33H346.811L350.771 107.94V101.33H352.701V110.79Z" fill="white"/>
<path d="M358.311 109.43C358.801 109.43 359.201 109.38 359.501 109.28C360.081 109.08 360.371 108.72 360.371 108.18C360.371 107.87 360.231 107.63 359.941 107.46C359.651 107.29 359.201 107.15 358.581 107.02L357.531 106.8C356.501 106.58 355.781 106.34 355.391 106.08C354.721 105.64 354.391 104.96 354.391 104.03C354.391 103.18 354.711 102.48 355.361 101.92C356.011 101.36 356.961 101.08 358.211 101.08C359.261 101.08 360.151 101.34 360.891 101.87C361.631 102.4 362.021 103.16 362.051 104.17H360.051C360.011 103.6 359.751 103.2 359.271 102.96C358.951 102.8 358.541 102.72 358.061 102.72C357.531 102.72 357.101 102.82 356.781 103.03C356.461 103.24 356.301 103.52 356.301 103.89C356.301 104.23 356.461 104.48 356.771 104.65C356.971 104.76 357.401 104.89 358.061 105.04L359.771 105.43C360.521 105.6 361.091 105.83 361.471 106.12C362.061 106.57 362.361 107.21 362.361 108.05C362.361 108.89 362.011 109.63 361.321 110.2C360.631 110.77 359.651 111.06 358.381 111.06C357.111 111.06 356.071 110.78 355.331 110.22C354.591 109.66 354.221 108.88 354.221 107.9H356.201C356.261 108.33 356.391 108.66 356.571 108.87C356.911 109.26 357.481 109.45 358.301 109.45L358.311 109.43Z" fill="white"/>
<path d="M371.02 103.01H366.04V105.19H370.4V106.83H366.04V110.8H363.98V101.35H371.02V103.01Z" fill="white"/>
<path d="M376.87 111.06C375.45 111.06 374.37 110.69 373.62 109.96C372.61 109.06 372.11 107.76 372.11 106.06C372.11 104.36 372.61 103.02 373.62 102.16C374.37 101.42 375.45 101.05 376.87 101.05C378.29 101.05 379.38 101.42 380.13 102.16C381.13 103.03 381.63 104.33 381.63 106.06C381.63 107.79 381.13 109.06 380.13 109.96C379.38 110.7 378.29 111.06 376.87 111.06ZM378.83 108.52C379.31 107.94 379.55 107.12 379.55 106.06C379.55 105 379.31 104.18 378.83 103.6C378.35 103.02 377.69 102.73 376.87 102.73C376.05 102.73 375.39 103.02 374.9 103.6C374.41 104.18 374.17 105 374.17 106.06C374.17 107.12 374.41 107.95 374.9 108.52C375.39 109.1 376.04 109.39 376.87 109.39C377.7 109.39 378.35 109.1 378.83 108.52Z" fill="white"/>
<path d="M387.5 107.09H385.36V110.8H383.33V101.34H388.2C388.9 101.35 389.43 101.44 389.81 101.58C390.19 101.73 390.5 101.95 390.76 102.24C390.98 102.48 391.15 102.74 391.27 103.03C391.4 103.32 391.46 103.65 391.46 104.03C391.46 104.48 391.34 104.92 391.1 105.35C390.86 105.79 390.47 106.09 389.92 106.27C390.38 106.45 390.7 106.69 390.89 107.02C391.08 107.34 391.18 107.84 391.18 108.5V109.13C391.18 109.56 391.2 109.86 391.23 110.01C391.28 110.25 391.41 110.43 391.61 110.55V110.79H389.33C389.27 110.58 389.22 110.41 389.2 110.28C389.15 110.01 389.12 109.74 389.11 109.46V108.58C389.09 107.98 388.97 107.57 388.75 107.37C388.53 107.17 388.11 107.07 387.5 107.07V107.09ZM388.76 105.36C389.17 105.18 389.38 104.82 389.38 104.3C389.38 103.73 389.18 103.34 388.78 103.14C388.56 103.03 388.22 102.97 387.77 102.97H385.36V105.51H387.71C388.18 105.51 388.53 105.46 388.76 105.36Z" fill="white"/>
<path d="M395.22 110.79H393.29V101.33H396.31L398.11 108.77L399.9 101.33H402.89V110.79H400.95V104.39C400.95 104.21 400.95 103.95 400.95 103.62C400.95 103.29 400.95 103.03 400.95 102.85L399.07 110.79H397.05L395.18 102.85C395.18 103.03 395.18 103.29 395.18 103.62C395.18 103.95 395.18 104.21 395.18 104.39V110.79H395.22Z" fill="white"/>
<path d="M410.701 108.85H407.041L406.351 110.79H404.181L407.721 101.33H410.071L413.591 110.79H411.341L410.701 108.85ZM410.121 107.22L408.881 103.5L407.601 107.22H410.121Z" fill="white"/>
<path d="M421.12 101.33V103.01H418.15V110.8H416.06V103.01H413.07V101.33H421.12Z" fill="white"/>
<path d="M422.24 101.33H424.3V110.79H422.24V101.33Z" fill="white"/>
<path d="M430.7 111.06C429.28 111.06 428.2 110.69 427.45 109.96C426.44 109.06 425.94 107.76 425.94 106.06C425.94 104.36 426.44 103.02 427.45 102.16C428.2 101.42 429.28 101.05 430.7 101.05C432.12 101.05 433.21 101.42 433.96 102.16C434.96 103.03 435.46 104.33 435.46 106.06C435.46 107.79 434.96 109.06 433.96 109.96C433.21 110.7 432.12 111.06 430.7 111.06ZM432.66 108.52C433.14 107.94 433.38 107.12 433.38 106.06C433.38 105 433.14 104.18 432.66 103.6C432.18 103.02 431.52 102.73 430.7 102.73C429.88 102.73 429.22 103.02 428.73 103.6C428.24 104.18 428 105 428 106.06C428 107.12 428.24 107.95 428.73 108.52C429.22 109.1 429.87 109.39 430.7 109.39C431.53 109.39 432.18 109.1 432.66 108.52Z" fill="white"/>
<path d="M445.15 110.79H443.07L439.01 104.07V110.79H437.08V101.33H439.26L443.22 107.94V101.33H445.15V110.79Z" fill="white"/>
<path d="M460.27 108.85H456.61L455.92 110.79H453.75L457.3 101.33H459.64L463.16 110.79H460.91L460.27 108.85ZM459.69 107.22L458.45 103.5L457.17 107.22H459.69Z" fill="white"/>
<path d="M464.49 101.33H466.56V109.09H471.48V110.79H464.49V101.33Z" fill="white"/>
<path d="M472.99 101.33H475.06V109.09H479.98V110.79H472.99V101.33Z" fill="white"/>
<path d="M481.33 101.33H483.39V110.79H481.33V101.33Z" fill="white"/>
<path d="M491.21 108.85H487.55L486.86 110.79H484.69L488.23 101.33H490.58L494.1 110.79H491.85L491.21 108.85ZM490.63 107.22L489.39 103.5L488.11 107.22H490.63Z" fill="white"/>
<path d="M503.461 110.79H501.381L497.321 104.07V110.79H495.391V101.33H497.571L501.531 107.94V101.33H503.461V110.79Z" fill="white"/>
<path d="M512.47 110.09C511.73 110.74 510.78 111.06 509.63 111.06C508.2 111.06 507.08 110.62 506.26 109.75C505.44 108.87 505.03 107.67 505.03 106.14C505.03 104.49 505.49 103.21 506.42 102.32C507.23 101.54 508.26 101.15 509.51 101.15C511.18 101.15 512.4 101.67 513.18 102.72C513.61 103.31 513.84 103.9 513.87 104.49H511.8C511.67 104.04 511.49 103.69 511.28 103.46C510.9 103.05 510.34 102.84 509.6 102.84C508.86 102.84 508.25 103.13 507.81 103.71C507.37 104.29 507.16 105.11 507.16 106.17C507.16 107.23 507.39 108.03 507.85 108.55C508.31 109.08 508.9 109.34 509.61 109.34C510.32 109.34 510.89 109.11 511.27 108.66C511.48 108.42 511.66 108.05 511.8 107.56H513.85C513.67 108.59 513.21 109.43 512.47 110.08V110.09Z" fill="white"/>
<path d="M522.421 106.66H517.591V109.09H523.091V110.79H515.561V101.33H522.851V103.01H517.591V105.02H522.421V106.66Z" fill="white"/>
<path d="M537.901 108.85H534.241L533.551 110.79H531.381L534.931 101.33H537.271L540.791 110.79H538.541L537.901 108.85ZM537.321 107.22L536.081 103.5L534.801 107.22H537.321Z" fill="white"/>
<path d="M545.721 109.43C546.211 109.43 546.611 109.38 546.911 109.28C547.491 109.08 547.781 108.72 547.781 108.18C547.781 107.87 547.641 107.63 547.351 107.46C547.061 107.29 546.611 107.15 545.991 107.02L544.941 106.8C543.911 106.58 543.191 106.34 542.801 106.08C542.131 105.64 541.801 104.96 541.801 104.03C541.801 103.18 542.121 102.48 542.771 101.92C543.421 101.36 544.371 101.08 545.621 101.08C546.671 101.08 547.561 101.34 548.301 101.87C549.041 102.4 549.431 103.16 549.461 104.17H547.461C547.421 103.6 547.161 103.2 546.681 102.96C546.361 102.8 545.951 102.72 545.471 102.72C544.941 102.72 544.511 102.82 544.191 103.03C543.871 103.24 543.711 103.52 543.711 103.89C543.711 104.23 543.871 104.48 544.181 104.65C544.381 104.76 544.811 104.89 545.481 105.04L547.191 105.43C547.941 105.6 548.511 105.83 548.891 106.12C549.481 106.57 549.781 107.21 549.781 108.05C549.781 108.89 549.431 109.63 548.741 110.2C548.051 110.77 547.071 111.06 545.801 111.06C544.531 111.06 543.491 110.78 542.751 110.22C542.011 109.66 541.641 108.88 541.641 107.9H543.621C543.681 108.33 543.811 108.66 543.991 108.87C544.331 109.26 544.901 109.45 545.721 109.45V109.43Z" fill="white"/>
<path d="M555.001 109.43C555.491 109.43 555.891 109.38 556.191 109.28C556.771 109.08 557.061 108.72 557.061 108.18C557.061 107.87 556.921 107.63 556.631 107.46C556.341 107.29 555.891 107.15 555.281 107.02L554.231 106.8C553.201 106.58 552.481 106.34 552.091 106.08C551.421 105.64 551.091 104.96 551.091 104.03C551.091 103.18 551.411 102.48 552.061 101.92C552.711 101.36 553.661 101.08 554.911 101.08C555.961 101.08 556.851 101.34 557.591 101.87C558.331 102.4 558.721 103.16 558.751 104.17H556.761C556.721 103.6 556.461 103.2 555.981 102.96C555.661 102.8 555.261 102.72 554.771 102.72C554.231 102.72 553.811 102.82 553.491 103.03C553.171 103.24 553.011 103.52 553.011 103.89C553.011 104.23 553.171 104.48 553.481 104.65C553.681 104.76 554.111 104.89 554.771 105.04L556.481 105.43C557.231 105.6 557.801 105.83 558.181 106.12C558.771 106.57 559.071 107.21 559.071 108.05C559.071 108.89 558.721 109.63 558.031 110.2C557.331 110.77 556.351 111.06 555.091 111.06C553.831 111.06 552.781 110.78 552.041 110.22C551.301 109.66 550.931 108.88 550.931 107.9H552.911C552.971 108.33 553.101 108.66 553.281 108.87C553.621 109.26 554.191 109.45 555.011 109.45L555.001 109.43Z" fill="white"/>
<path d="M565.06 111.06C563.64 111.06 562.55 110.69 561.8 109.96C560.79 109.06 560.29 107.76 560.29 106.06C560.29 104.36 560.79 103.02 561.8 102.16C562.55 101.42 563.64 101.05 565.06 101.05C566.48 101.05 567.56 101.42 568.31 102.16C569.31 103.03 569.81 104.33 569.81 106.06C569.81 107.79 569.31 109.06 568.31 109.96C567.56 110.7 566.48 111.06 565.06 111.06ZM567.02 108.52C567.5 107.94 567.74 107.12 567.74 106.06C567.74 105 567.5 104.18 567.02 103.6C566.54 103.02 565.89 102.73 565.06 102.73C564.23 102.73 563.58 103.02 563.09 103.6C562.6 104.18 562.36 105 562.36 106.06C562.36 107.12 562.6 107.95 563.09 108.52C563.58 109.1 564.24 109.39 565.06 109.39C565.88 109.39 566.53 109.1 567.02 108.52Z" fill="white"/>
<path d="M578.48 110.09C577.74 110.74 576.79 111.06 575.63 111.06C574.2 111.06 573.08 110.62 572.26 109.75C571.44 108.87 571.03 107.67 571.03 106.14C571.03 104.49 571.49 103.21 572.42 102.32C573.23 101.54 574.26 101.15 575.51 101.15C577.18 101.15 578.4 101.67 579.18 102.72C579.61 103.31 579.84 103.9 579.87 104.49H577.79C577.66 104.04 577.48 103.69 577.27 103.46C576.89 103.05 576.33 102.84 575.59 102.84C574.85 102.84 574.24 103.13 573.8 103.71C573.36 104.29 573.15 105.11 573.15 106.17C573.15 107.23 573.38 108.03 573.84 108.55C574.3 109.08 574.88 109.34 575.6 109.34C576.32 109.34 576.88 109.11 577.26 108.66C577.47 108.42 577.65 108.05 577.79 107.56H579.85C579.67 108.59 579.21 109.43 578.47 110.08L578.48 110.09Z" fill="white"/>
<path d="M581.351 101.33H583.411V110.79H581.351V101.33Z" fill="white"/>
<path d="M591.23 108.85H587.57L586.88 110.79H584.71L588.25 101.33H590.59L594.11 110.79H591.86L591.22 108.85H591.23ZM590.65 107.22L589.41 103.5L588.13 107.22H590.65Z" fill="white"/>
<path d="M601.651 101.33V103.01H598.681V110.8H596.591V103.01H593.601V101.33H601.651Z" fill="white"/>
<path d="M602.771 101.33H604.831V110.79H602.771V101.33Z" fill="white"/>
<path d="M611.23 111.06C609.81 111.06 608.72 110.69 607.97 109.96C606.96 109.06 606.46 107.76 606.46 106.06C606.46 104.36 606.96 103.02 607.97 102.16C608.72 101.42 609.81 101.05 611.23 101.05C612.65 101.05 613.73 101.42 614.48 102.16C615.48 103.03 615.98 104.33 615.98 106.06C615.98 107.79 615.48 109.06 614.48 109.96C613.73 110.7 612.65 111.06 611.23 111.06ZM613.19 108.52C613.67 107.94 613.91 107.12 613.91 106.06C613.91 105 613.67 104.18 613.19 103.6C612.71 103.02 612.06 102.73 611.23 102.73C610.4 102.73 609.75 103.02 609.26 103.6C608.77 104.18 608.53 105 608.53 106.06C608.53 107.12 608.77 107.95 609.26 108.52C609.75 109.1 610.41 109.39 611.23 109.39C612.05 109.39 612.7 109.1 613.19 108.52Z" fill="white"/>
<path d="M625.671 110.79H623.591L619.531 104.07V110.79H617.601V101.33H619.781L623.741 107.94V101.33H625.671V110.79Z" fill="white"/>
</g>
<defs>
<linearGradient id="paint0_linear_206_48" x1="17.5602" y1="79.5698" x2="59.0102" y2="29.9898" gradientUnits="userSpaceOnUse">
<stop offset="0.14" stop-color="#7D7D7D"/>
<stop offset="0.99" stop-color="#231815"/>
</linearGradient>
<linearGradient id="paint1_linear_206_48" x1="66.47" y1="62.47" x2="86.35" y2="25.54" gradientUnits="userSpaceOnUse">
<stop stop-color="#7D7D7D"/>
<stop offset="0.99" stop-color="#231815"/>
</linearGradient>
<linearGradient id="paint2_linear_206_48" x1="102.77" y1="34.7299" x2="110.27" y2="78.5599" gradientUnits="userSpaceOnUse">
<stop stop-color="#7D7D7D"/>
<stop offset="0.58" stop-color="#231815"/>
</linearGradient>
<linearGradient id="paint3_linear_206_48" x1="50.6602" y1="108.15" x2="113.04" y2="108.15" gradientUnits="userSpaceOnUse">
<stop stop-color="#7D7D7D"/>
<stop offset="0.7" stop-color="#231815"/>
</linearGradient>
<linearGradient id="paint4_linear_206_48" x1="29.69" y1="117.52" x2="28.24" y2="73.7602" gradientUnits="userSpaceOnUse">
<stop stop-color="#7D7D7D"/>
<stop offset="0.7" stop-color="#231815"/>
</linearGradient>
<linearGradient id="paint5_linear_206_48" x1="56.2805" y1="145.42" x2="50.6905" y2="119.6" gradientUnits="userSpaceOnUse">
<stop stop-color="#7D7D7D"/>
<stop offset="0.99" stop-color="#231815"/>
</linearGradient>
<linearGradient id="paint6_linear_206_48" x1="10.7798" y1="64.2899" x2="58.3198" y2="84.4899" gradientUnits="userSpaceOnUse">
<stop stop-color="#7D7D7D"/>
<stop offset="0.49" stop-color="#231815"/>
</linearGradient>
<linearGradient id="paint7_linear_206_48" x1="106.45" y1="105.88" x2="70.0797" y2="8.88021" gradientUnits="userSpaceOnUse">
<stop stop-color="#7D7D7D"/>
<stop offset="0.65" stop-color="#231815"/>
</linearGradient>
<linearGradient id="paint8_linear_206_48" x1="61.4202" y1="75.2201" x2="112.06" y2="147.02" gradientUnits="userSpaceOnUse">
<stop offset="0.14" stop-color="#595757"/>
<stop offset="0.99" stop-color="#231815"/>
</linearGradient>
<linearGradient id="paint9_linear_206_48" x1="116.72" y1="72.59" x2="48.4902" y2="130.37" gradientUnits="userSpaceOnUse">
<stop stop-color="#7D7D7D"/>
<stop offset="0.99" stop-color="#231815"/>
</linearGradient>
<clipPath id="clip0_206_48">
<rect width="623.21" height="110.27" fill="white" transform="translate(7 20)"/>
</clipPath>
</defs>
</svg>
