<svg width="457" height="150" viewBox="0 0 457 150" fill="none" xmlns="http://www.w3.org/2000/svg">
<g clip-path="url(#clip0_206_95)">
<path d="M360.526 24.8595C360.059 26.7628 359.59 28.6695 359.087 30.7184H328.205C322.594 62.2706 317.002 93.7235 311.42 125.113H283.415C288.931 93.5646 294.407 62.2574 299.903 30.8078H268.634C269.183 28.5006 269.695 26.3491 270.208 24.2008C299.873 24.2008 329.538 24.1975 359.206 24.2339C359.62 24.2339 360.628 23.552 360.526 24.8595Z" fill="white"/>
<path d="M426 83.0749C416.292 83.1179 406.583 83.1576 396.874 83.2106C393.088 83.2305 389.302 83.3331 385.516 83.3C384.411 83.2901 383.876 83.6939 383.386 84.6472C379.061 93.0947 374.663 101.502 370.351 109.953C369.799 111.036 369.19 111.4 367.977 111.393C358.265 111.337 348.549 111.363 338.837 111.363H336.89C355.11 81.1418 373.168 51.195 391.375 21C391.779 21.6819 392.083 22.1652 392.361 22.665C403.141 42.0922 413.921 61.5226 424.711 80.9432C425.068 81.5853 425.567 82.1447 426 82.7439V83.0749Z" fill="white"/>
<path d="M426 100.741C416.175 100.735 406.348 100.741 396.523 100.691C395.515 100.685 395.085 101.135 394.648 101.91C390.022 110.099 385.35 118.265 380.743 126.467C380.142 127.537 379.533 128.007 378.22 128C365.102 127.94 351.981 127.964 338.863 127.964C338.327 127.964 337.792 127.964 337.306 127.964V115.878C338.096 115.878 338.675 115.875 339.257 115.878C349.848 115.981 360.443 116.06 371.035 116.213C372.255 116.229 372.863 115.859 373.419 114.779C377.949 105.921 382.549 97.1 387.125 88.2686C400.081 88.2686 413.041 88.2686 425.996 88.2686V100.741H426Z" fill="white"/>
<path d="M71.5576 93.5912C70.7672 94.8259 70.2051 96.0771 69.3156 97.0205C66.6635 99.844 63.8792 102.538 61.1611 105.296C59.8582 106.617 58.5719 107.951 57.2988 109.298C54.8683 111.873 52.4378 111.923 49.9875 109.394C47.3289 106.653 44.7231 103.859 42.0413 101.142C40.6294 99.7083 39.1149 98.3743 37.6202 97.0271C35.613 95.2198 35.4807 93.3098 37.3557 91.3701C41.7537 86.8187 46.155 82.2705 50.6092 77.7754C52.7487 75.6139 54.164 75.3954 56.5018 77.7787C60.8932 82.2573 65.4896 86.5274 69.9438 90.9431C70.592 91.5852 70.9293 92.5386 71.5542 93.5912H71.5576Z" fill="white"/>
<path d="M111.566 73.8729C111.004 76.1999 109.519 77.8815 107.879 79.5465C97.0954 90.4931 86.365 101.486 75.6246 112.476C72.8833 115.283 70.8595 115.312 68.105 112.525C67.7578 112.174 67.4205 111.814 67.0898 111.446C65.367 109.52 65.3141 107.947 67.1097 105.951C69.0177 103.83 71.0381 101.814 73.0123 99.7515C73.7331 98.9968 74.4672 98.2586 75.1782 97.494C77.9327 94.538 77.9228 91.6814 75.0261 88.8446C69.8113 83.7404 64.5502 78.6858 59.2991 73.618C58.2343 72.5886 57.1398 71.5889 56.032 70.6058C52.8707 67.7922 49.9608 67.9908 46.9781 71.099C44.8882 73.2738 42.719 75.3724 40.5662 77.4843C39.9809 78.0602 39.3494 78.5965 38.6913 79.0897C36.8693 80.4534 36.0723 80.3707 34.462 78.7256C33.6948 77.941 32.8879 77.193 32.1439 76.3886C30.7385 74.8626 30.603 73.2804 31.8959 71.6386C32.7028 70.6157 33.7378 69.7683 34.6769 68.8547C45.414 58.408 56.1543 47.9645 66.9013 37.5277C67.609 36.8425 68.3332 36.1506 69.14 35.5978C71.1968 34.191 73.5777 34.2672 75.5816 35.7303C75.9784 36.0215 76.3422 36.3592 76.6894 36.7067C87.3239 47.3356 97.9817 57.9445 108.55 68.6396C109.81 69.914 110.571 71.6783 111.566 73.2142V73.8729Z" fill="white"/>
<path d="M140.348 56.5808L106.441 22.6387C105.184 21.3808 103.147 21.3808 101.891 22.6387L89.1993 35.343C87.9427 36.6008 87.9427 38.6399 89.1993 39.8977L119.37 70.0994C121.434 72.1649 121.434 75.5147 119.37 77.5803L89.1993 107.782C87.9427 109.04 87.9427 111.079 89.1993 112.337L101.891 125.041C103.147 126.299 105.184 126.299 106.441 125.041L154.792 76.6402C156.34 75.091 156.34 72.582 154.792 71.0361L140.352 56.5808H140.348Z" fill="white"/>
<path d="M176.313 24.0586C183.234 24.0586 190.158 24.0586 197.079 24.0586C197.618 24.1248 198.154 24.2407 198.693 24.244C206.818 24.3069 214.939 24.3697 223.064 24.4062C229.651 24.4359 236.066 25.5084 242.263 27.7262C254.465 32.089 263.059 39.9472 266.167 52.9395C266.802 55.5942 267.146 58.3151 267.626 61.0063V68.2654C267.523 68.7387 267.365 69.2055 267.322 69.6854C266.789 75.6966 265.311 81.4828 262.94 87.0107C257.811 98.9602 250.507 109.059 238.672 115.286C227.366 121.234 215.614 125.428 202.615 125.335C189.659 125.243 176.7 125.309 163.744 125.302C161.938 125.302 160.133 125.302 158.241 125.302C158.575 123.389 158.883 121.608 159.2 119.831C162.666 100.493 166.134 81.1584 169.593 61.8206C171.845 49.2355 174.074 36.647 176.316 24.0619L176.313 24.0586ZM191.775 117.788C192.453 117.788 192.995 117.815 193.531 117.785C197.694 117.557 201.884 117.523 206.017 117.03C212.277 116.285 218.315 114.746 223.48 110.801C239.796 98.3379 249.558 82.8565 247.636 61.3108C246.41 47.5407 238.996 38.9078 226.923 33.6911C221.265 31.2449 215.101 31.5527 209.05 31.6752C208.041 31.6951 207.462 32.1486 207.327 33.2243C207.155 34.5848 206.867 35.9287 206.619 37.2793C202.714 58.4442 198.805 79.6092 194.9 100.774C193.865 106.382 192.84 111.989 191.775 117.788Z" fill="white"/>
</g>
<defs>
<clipPath id="clip0_206_95">
<rect width="395" height="107" fill="white" transform="translate(31 21)"/>
</clipPath>
</defs>
</svg>
