<?xml version="1.0" encoding="utf-8"?>
<!-- Generator: Adobe Illustrator 16.0.5, SVG Export Plug-In . SVG Version: 6.00 Build 0)  -->
<!DOCTYPE svg PUBLIC "-//W3C//DTD SVG 1.1//EN" "http://www.w3.org/Graphics/SVG/1.1/DTD/svg11.dtd">
<svg version="1.1" id="圖層_1" xmlns="http://www.w3.org/2000/svg" xmlns:xlink="http://www.w3.org/1999/xlink" x="0px" y="0px"
	 width="240px" height="120px" viewBox="70 15 240 120" enable-background="new 70 15 240 120" xml:space="preserve">
<g id="圖層_1_1_">
</g>
<g id="LOGO">
	<g>
		<path fill="#FFFFFF" d="M130.002,49.241h7.268v9.438h-7.222v12.738h-10.193V35.489h18.075v9.894h-7.928V49.241z"/>
		<path fill="#FFFFFF" d="M151.663,72.432c-2.203,0-4.075-0.381-5.616-1.143c-1.542-0.761-2.807-1.816-3.799-3.17
			c-0.991-1.353-1.715-2.943-2.171-4.769c-0.457-1.829-0.685-3.807-0.685-5.939V35.489h10.335v20.958
			c0,1.725,0.134,3.037,0.401,3.934c0.266,0.895,0.842,1.345,1.723,1.345s1.462-0.451,1.746-1.345
			c0.282-0.896,0.426-2.208,0.426-3.934V35.489h10.193v21.921c0,2.132-0.243,4.11-0.731,5.938c-0.488,1.826-1.244,3.417-2.265,4.769
			c-1.023,1.354-2.322,2.409-3.894,3.171C155.754,72.051,153.866,72.432,151.663,72.432z"/>
		<path fill="#FFFFFF" d="M180.782,71.417h-10.1v-26.59h-5.9v-9.338h21.898v9.338h-5.898V71.417z"/>
		<path fill="#FFFFFF" d="M199.517,72.432c-2.202,0-4.073-0.381-5.616-1.143c-1.54-0.761-2.808-1.816-3.799-3.17
			c-0.991-1.353-1.715-2.943-2.171-4.769c-0.456-1.829-0.683-3.807-0.683-5.939V35.489h10.335v20.958c0,1.725,0.134,3.037,0.4,3.934
			c0.271,0.895,0.843,1.345,1.724,1.345c0.882,0,1.463-0.451,1.746-1.345c0.283-0.896,0.427-2.208,0.427-3.934V35.489h10.192v21.921
			c0,2.132-0.245,4.11-0.729,5.938c-0.489,1.826-1.243,3.417-2.266,4.769c-1.024,1.354-2.323,2.409-3.896,3.171
			C203.606,72.051,201.717,72.432,199.517,72.432z"/>
		<path fill="#FFFFFF" d="M225.76,58.527h-0.854v12.89h-9.815V35.489h12.437c1.922,0,3.602,0.271,5.035,0.812
			c1.434,0.542,2.61,1.318,3.522,2.334c0.916,1.014,1.6,2.241,2.058,3.679c0.456,1.438,0.686,3.054,0.686,4.846
			c0,1.219-0.125,2.319-0.377,3.299c-0.252,0.98-0.571,1.852-0.947,2.613c-0.379,0.761-0.806,1.395-1.28,1.903
			c-0.474,0.507-0.949,0.88-1.421,1.116l5.348,15.325h-10.842L225.76,58.527z M224.906,44.674v6.292h0.852
			c0.281,0,0.595-0.042,0.943-0.126c0.344-0.084,0.66-0.246,0.942-0.483c0.284-0.236,0.521-0.558,0.708-0.964
			c0.189-0.406,0.285-0.931,0.285-1.573c0-0.677-0.088-1.217-0.26-1.625c-0.175-0.405-0.396-0.727-0.664-0.964
			c-0.266-0.236-0.551-0.389-0.846-0.457c-0.301-0.067-0.577-0.102-0.828-0.102h-1.133V44.674z"/>
		<path fill="#FFFFFF" d="M241.379,35.489h17.838v9.692h-8.07v3.604h7.314v8.983h-7.314v3.754h8.684v9.896h-18.451V35.489z"/>
		<path fill="#FFFFFF" d="M118.558,94.124h-0.189l-4.153,20.503h-6.513l-3.822-20.503h-0.19l0.426,20.503h-9.203v-35.93h12.223
			l3.917,18.776h0.189l3.871-18.776h12.977v35.93h-10.004L118.558,94.124z"/>
		<path fill="#FFFFFF" d="M146.071,109.652h-5.758l-0.896,4.975h-10.242l7.881-35.93h12.695l7.928,35.93h-10.713L146.071,109.652z
			 M141.446,101.127h3.397l-1.558-11.67h-0.188L141.446,101.127z"/>
		<path fill="#FFFFFF" d="M167.638,97.676h-0.142l0.377,16.951h-9.108v-35.93h10.902l5.237,17.509h0.188l-0.283-17.509h8.778v35.93
			h-10.618L167.638,97.676z"/>
		<path fill="#FFFFFF" d="M201.568,109.652h-5.757l-0.897,4.975h-10.24l7.882-35.93h12.696l7.928,35.93h-10.714L201.568,109.652z
			 M196.944,101.127h3.397l-1.557-11.67h-0.19L196.944,101.127z"/>
		<path fill="#FFFFFF" d="M227.006,115.489c-2.232,0-4.238-0.458-6.016-1.37c-1.777-0.914-3.279-2.2-4.508-3.855
			c-1.226-1.658-2.17-3.637-2.83-5.939c-0.662-2.3-0.992-4.854-0.992-7.662c0-2.875,0.337-5.48,1.014-7.816
			c0.678-2.335,1.628-4.33,2.856-5.986c1.228-1.657,2.689-2.936,4.39-3.83c1.697-0.896,3.554-1.346,5.568-1.346
			c1.323,0,2.518,0.127,3.587,0.379c1.069,0.256,2.03,0.584,2.878,0.99c0.85,0.406,1.582,0.871,2.194,1.396
			c0.613,0.525,1.142,1.059,1.579,1.598l-5.331,8.273c-0.471-0.609-1.023-1.093-1.651-1.446c-0.631-0.355-1.415-0.534-2.36-0.534
			c-0.847,0-1.573,0.229-2.169,0.685c-0.599,0.456-1.103,1.065-1.512,1.828c-0.41,0.759-0.711,1.64-0.897,2.637
			c-0.189,1-0.282,2.059-0.282,3.172c0,1.049,0.078,2.082,0.234,3.097c0.157,1.014,0.409,1.921,0.756,2.714
			c0.346,0.794,0.805,1.44,1.37,1.93c0.563,0.49,1.257,0.736,2.075,0.736c0.568,0,1.055-0.12,1.463-0.357v-3.094h-2.924v-9.589
			h11.513v20.497c-1.132,0.883-2.535,1.584-4.198,2.107C231.145,115.227,229.209,115.489,227.006,115.489z"/>
		<path fill="#FFFFFF" d="M240.034,78.697h17.837v9.693h-8.069v3.604h7.313v8.981h-7.313v3.757h8.681v9.895h-18.449L240.034,78.697
			L240.034,78.697z"/>
		<path fill="#FFFFFF" d="M271.559,101.736h-0.851v12.891h-9.816v-35.93h12.436c1.925,0,3.604,0.272,5.038,0.814
			c1.434,0.54,2.608,1.316,3.523,2.332c0.912,1.016,1.598,2.242,2.058,3.68c0.454,1.439,0.682,3.054,0.682,4.846
			c0,1.22-0.124,2.319-0.375,3.301c-0.253,0.981-0.569,1.853-0.948,2.611c-0.38,0.764-0.807,1.396-1.279,1.904
			c-0.474,0.508-0.946,0.881-1.42,1.116l5.346,15.325h-10.84L271.559,101.736z M270.708,87.883v6.293h0.851
			c0.28,0,0.597-0.042,0.944-0.127c0.343-0.084,0.66-0.245,0.942-0.482c0.281-0.236,0.518-0.559,0.707-0.963
			c0.189-0.408,0.285-0.932,0.285-1.576c0-0.674-0.089-1.215-0.26-1.623c-0.176-0.404-0.395-0.726-0.66-0.963
			c-0.266-0.236-0.553-0.389-0.85-0.457c-0.303-0.067-0.575-0.102-0.828-0.102H270.708z"/>
	</g>
</g>
</svg>
