<svg width="387" height="150" viewBox="0 0 387 150" fill="none" xmlns="http://www.w3.org/2000/svg">
<path d="M30 126.319H89.1119V134.646H30V126.319ZM30 118.747H89.1119V110.42H30V118.747ZM46.8823 102.847H72.2057V94.5204H46.8823V102.847ZM46.8823 86.9481H72.2057V78.621H46.8823V86.9481ZM46.8823 71.0487H72.2057V62.7216H46.8823V71.0487ZM72.2296 46.8223H46.9062V55.1494H72.2296V46.8223ZM30 39.25H89.1119V30.9229H30V39.25ZM30 23.3271H89.1119V15H30V23.3271ZM97.553 118.747H187.656C189.162 116.176 190.31 113.368 191.051 110.42H97.553V118.747ZM180.601 78.621H114.435V86.9481H187.632C185.766 83.7871 183.399 80.9799 180.577 78.621H180.601ZM114.435 62.7216V71.0487H180.601C183.399 68.6898 185.79 65.8826 187.656 62.7216H114.459H114.435ZM187.656 30.8993H97.553V39.2265H191.051C190.31 36.2542 189.162 33.4706 187.656 30.8993ZM159.75 15H97.5769V23.3271H181.51C175.771 18.161 168.143 15 159.75 15ZM114.435 55.1494H139.759V46.8223H114.435V55.1494ZM163.576 55.1494H190.86C191.577 52.4838 191.984 49.7002 191.984 46.8223H163.576V55.1494ZM114.435 102.847H139.759V94.5204H114.435V102.847ZM163.576 94.5204V102.847H191.984C191.984 99.9695 191.577 97.1624 190.86 94.5204H163.576ZM97.553 134.67H159.726C168.167 134.67 175.747 131.509 181.486 126.343H97.553V134.67ZM266.447 134.67L269.389 126.343H263.53L266.471 134.67H266.447ZM260.804 118.747H272.067L275.032 110.42H257.839L260.804 118.747ZM255.161 102.847H277.734L280.699 94.5204H252.196L255.161 102.847ZM249.493 86.9481H283.401L286.367 78.621H246.528L249.493 86.9481ZM215.777 55.1494H261.402L258.461 46.8223H215.777V55.1494ZM277.089 39.25H334V30.9229H280.03L277.089 39.25ZM285.625 15L282.684 23.3271H333.977V15H285.625ZM198.894 134.67H241.124V126.343H198.894V134.67ZM198.894 118.747H241.124V110.42H198.894V118.747ZM215.777 102.847H241.1V94.5204H215.777V102.847ZM215.777 86.9481H241.1V78.621H215.777V86.9481ZM317.118 46.8223H274.434L271.493 55.1494H317.118V46.8223ZM291.771 71.0487H317.094V62.7216H268.791L266.424 69.4447L264.056 62.7216H215.753V71.0487H241.076V63.3821L243.802 71.0487H289.021L291.747 63.4057V71.0487H291.771ZM317.118 78.621H291.795V86.9481H317.118V78.621ZM291.771 102.847H317.094V94.5204H291.771V102.847ZM291.771 118.747H334V110.42H291.771V118.747ZM291.771 134.67H334V126.343H291.771V134.67ZM255.806 39.25L252.865 30.9229H198.894V39.25H255.806ZM250.187 23.3271L247.246 15H198.894V23.3271H250.187ZM343.087 128.442C343.087 124.715 345.957 121.884 349.544 121.884C353.131 121.884 356 124.715 356 128.442C356 132.169 353.131 135 349.544 135C345.957 135 343.087 132.169 343.087 128.442ZM354.47 128.867V128.041C354.47 125.375 352.341 123.276 349.544 123.276C346.746 123.276 344.618 125.375 344.618 128.041V128.867C344.618 131.532 346.746 133.632 349.544 133.632C352.341 133.632 354.47 131.532 354.47 128.867ZM348.587 131.815H346.937V125.163H349.998C351.504 125.163 352.294 126.06 352.294 127.263C352.294 128.301 351.815 128.985 351.074 129.268L352.581 131.815H350.763L349.496 129.527H348.563V131.815H348.587ZM349.807 128.324C350.333 128.324 350.62 128.112 350.62 127.616V127.145C350.62 126.673 350.333 126.437 349.807 126.437H348.587V128.324H349.807Z" fill="white"/>
</svg>
