<svg width="358" height="150" viewBox="0 0 358 150" fill="none" xmlns="http://www.w3.org/2000/svg">
<g clip-path="url(#clip0_206_459)">
<path d="M32 108.596H46.7391V16.2295H32V108.596ZM32.866 17.0955H45.8731V107.73H32.866V17.0955Z" fill="white"/>
<path d="M204.47 16.2295H172.039V108.596H203.57C220.214 108.596 228.813 98.9747 232.459 93.2332C236.685 86.643 237.664 83.0058 237.664 62.4126C237.664 43.3869 237.326 39.7584 232.719 31.8692C226.778 21.7891 216.741 16.2382 204.462 16.2382L204.47 16.2295ZM231.732 92.7655C228.181 98.3512 219.798 107.721 203.57 107.721H172.905V17.0955H204.47C216.43 17.0955 226.198 22.4992 231.983 32.3022C236.477 40.0095 236.806 43.5861 236.806 62.4126C236.806 82.7807 235.845 86.3486 231.732 92.7655Z" fill="white"/>
<path d="M202.929 29.3407H185.921V95.4849H202.929C210.835 95.4849 216.499 92.8176 220.249 87.3273C223.392 82.6163 223.791 79.8798 223.791 62.9237C223.791 45.9677 223.427 42.3825 219.591 37.2212C215.434 31.549 210.757 29.332 202.92 29.332L202.929 29.3407ZM219.539 86.8423C215.962 92.0729 210.532 94.6189 202.938 94.6189H186.796V30.2067H202.938C210.558 30.2067 214.88 32.2504 218.906 37.7408C222.587 42.6856 222.933 46.6431 222.933 62.9237C222.933 79.2043 222.587 82.2786 219.539 86.8423Z" fill="white"/>
<path d="M292.324 16.5153L292.22 16.2295H280.045L246.436 108.596H262.015L269.081 88.1671H303.166L310.233 108.596H325.812L292.324 16.5153ZM303.799 87.2925H268.475L261.408 107.721H247.683L280.659 17.0955H291.623L324.591 107.73H310.865L303.799 87.3011V87.2925Z" fill="white"/>
<path d="M285.7 34.9868L272.173 75.8268H300.101L286.583 34.9868H285.7ZM273.368 74.9608L286.133 36.407L298.897 74.9608H273.368Z" fill="white"/>
<path d="M108.085 34.9612C108.873 35.7493 110.172 35.7493 110.96 34.9612L119.205 26.717C119.993 25.929 119.993 24.63 119.205 23.842L110.96 15.5891C110.172 14.801 108.873 14.801 108.085 15.5891L99.841 23.8333C99.053 24.6213 99.053 25.9203 99.841 26.7084L108.085 34.9526V34.9612Z" fill="white"/>
<path d="M150.441 95.5456C150.441 95.2425 150.381 94.9567 150.277 94.6969C150.268 94.671 150.259 94.6363 150.251 94.6103C150.251 94.6103 150.207 94.5411 150.19 94.4978C150.06 94.2206 149.904 93.9782 149.688 93.7703L124.756 68.8299C124.133 68.2064 124.133 67.1931 124.756 66.5696L149.497 41.811C149.541 41.7677 149.584 41.7071 149.636 41.6378C150.129 41.1962 150.441 40.5553 150.441 39.8452V29.2109C150.441 27.8686 149.341 26.7861 148.008 26.7861H137.382C136.689 26.7861 136.066 27.0806 135.616 27.5482L135.546 27.6002L110.649 52.4627C110.052 53.0602 108.986 53.0602 108.389 52.4627L83.5263 27.6608L83.5003 27.6348C83.05 27.1152 82.4005 26.7861 81.6644 26.7861H71.0388C69.6965 26.7861 68.6053 27.8773 68.6053 29.2196V39.8452C68.6053 40.6073 68.9604 41.2741 69.506 41.7244L94.2819 66.5696C94.9054 67.1931 94.9054 68.2064 94.2819 68.8299L69.3761 93.7443C69.2289 93.8916 69.1163 94.0388 69.0124 94.2033C68.7526 94.593 68.5967 95.052 68.5967 95.5543V95.7534C68.5967 95.9526 68.5967 96.1605 68.5967 96.3856V96.6454V106.18C68.5967 107.522 69.6878 108.613 71.0301 108.613H80.8071H81.3787H81.6558C82.288 108.613 82.8855 108.371 83.3445 107.921L83.4397 107.851L108.38 82.9282C109.004 82.3046 110.017 82.3046 110.64 82.9282L135.564 107.843C135.771 108.05 135.997 108.198 136.256 108.319C136.594 108.492 136.966 108.605 137.373 108.605H137.503C137.607 108.605 137.72 108.605 137.832 108.605C137.936 108.605 138.049 108.605 138.162 108.605H138.534H147.999C149.341 108.605 150.433 107.514 150.433 106.171V96.3077C150.433 96.0565 150.433 95.8314 150.433 95.6062V95.5456H150.441ZM148.008 27.6435C148.865 27.6435 149.575 28.3449 149.575 29.2109V39.8366C149.575 40.2956 149.376 40.7026 149.056 40.9883H149.047C148.839 41.1702 148.484 41.3954 148.008 41.3954H137.382C136.516 41.3954 135.815 40.6939 135.815 39.8279V29.2022C135.815 29.0983 135.823 29.0031 135.841 28.9078C135.901 28.622 136.04 28.3536 136.248 28.1371C136.334 28.0332 136.438 27.9552 136.542 27.8859L136.559 27.9119H136.577L136.655 27.86V27.8426C136.863 27.7214 137.114 27.6435 137.391 27.6435H148.016H148.008ZM69.4713 38.9792V29.2022C69.4713 28.3363 70.1728 27.6348 71.0388 27.6348H81.6644C82.1321 27.6348 82.5478 27.8426 82.8335 28.1631H82.8249C83.0154 28.3882 83.2319 28.7346 83.2319 29.1936V39.8193C83.2319 40.2349 83.0673 40.6246 82.7729 40.9277C82.4785 41.2222 82.0801 41.3867 81.6644 41.3867H71.0388C70.5885 41.3867 70.2421 41.1875 70.0256 40.997L69.9736 40.9537C69.7311 40.7372 69.5666 40.4428 69.506 40.105C69.506 40.0964 69.506 40.0791 69.506 40.0704H69.5406L69.5233 39.9925H69.4973C69.4973 39.9405 69.48 39.8885 69.48 39.8279V38.9706L69.4713 38.9792ZM81.3873 107.739H71.0388C70.1728 107.739 69.4713 107.037 69.4713 106.171V95.5456C69.4713 95.5456 69.4713 95.5196 69.4713 95.5023H69.48C69.4886 95.3464 69.5233 95.1906 69.5752 95.0174H69.5579C69.5579 95.0174 69.5839 94.9394 69.5926 94.9134C69.7744 94.4978 70.1295 94.1947 70.5365 94.0648C70.5625 94.0648 70.5885 94.0474 70.6058 94.0388C70.7357 94.0041 70.8742 93.9782 71.0128 93.9782H81.6385C82.5045 93.9782 83.2059 94.6796 83.2059 95.5456V106.171C83.2059 106.483 83.1193 106.777 82.9461 107.037C82.9115 107.081 82.8768 107.124 82.8422 107.167C82.8162 107.202 82.7902 107.236 82.7556 107.271C82.6517 107.366 82.5564 107.436 82.4612 107.488C82.4092 107.514 82.3572 107.548 82.3053 107.574C82.2273 107.617 82.1407 107.652 82.0628 107.669V107.643C81.9502 107.669 81.8376 107.704 81.7251 107.713V107.73C81.7251 107.73 81.6731 107.73 81.6471 107.73H81.37L81.3873 107.739ZM109.523 81.5945C108.891 81.5945 108.259 81.837 107.783 82.3133L84.1065 105.981V95.5456C84.1065 94.2033 83.0067 93.1122 81.6731 93.1122H71.2293L94.9054 69.4361C95.373 68.9684 95.6242 68.3536 95.6242 67.6954C95.6242 67.0373 95.373 66.4138 94.9054 65.9548L71.2639 42.2787H81.6731C82.3226 42.2787 82.9288 42.0275 83.3878 41.5599C83.8467 41.0923 84.1065 40.4861 84.0979 39.8452V29.4534L107.774 53.0775C108.701 54.0041 110.337 54.0041 111.264 53.0775L134.949 29.4274V39.8452C134.949 41.1875 136.04 42.2787 137.382 42.2787H147.809L124.141 65.9548C123.18 66.916 123.18 68.4835 124.141 69.4447L147.809 93.1208H137.382C136.04 93.1208 134.949 94.212 134.949 95.5543V105.998L111.264 82.322C110.788 81.8457 110.155 81.6032 109.523 81.6032V81.5945ZM149.575 96.706V106.171C149.575 107.037 148.874 107.739 148.008 107.739H137.382H137.365C137.174 107.721 136.992 107.678 136.819 107.617C136.819 107.617 136.785 107.617 136.767 107.617C136.629 107.557 136.499 107.47 136.386 107.375C136.386 107.375 136.369 107.366 136.36 107.358C136.144 107.176 135.988 106.933 135.901 106.665C135.893 106.639 135.884 106.613 135.875 106.587C135.841 106.457 135.815 106.318 135.815 106.18V95.5543C135.815 94.6883 136.516 93.9868 137.382 93.9868H148.008C148.146 93.9868 148.285 94.0128 148.415 94.0474C148.449 94.0561 148.475 94.0648 148.51 94.0734C148.631 94.1167 148.753 94.1687 148.856 94.238C148.856 94.238 148.865 94.238 148.874 94.2466C148.986 94.3246 149.082 94.4112 149.177 94.5151C149.194 94.5324 149.212 94.5584 149.229 94.5844C149.315 94.6969 149.393 94.8095 149.445 94.9394C149.515 95.1126 149.558 95.3118 149.567 95.5543V95.6235V96.7147L149.575 96.706Z" fill="white"/>
<path d="M32.5283 122.201H36.5898V135H38.8327V122.201H42.8855V120.2H32.5283V122.201Z" fill="white"/>
<path d="M91.5368 120.2L86.1504 135H88.5232L89.6663 131.692H95.2779L96.421 135H98.7938L93.4074 120.2H91.5368ZM90.3158 129.7L92.4548 123.24H92.4981L94.6371 129.7H90.3158Z" fill="white"/>
<path d="M147.385 120.2H145.142V135H147.385V120.2Z" fill="white"/>
<path d="M206.081 130.722H206.037L203.171 120.2H201.543L198.676 130.722H198.633L196.312 120.2H193.939L197.637 135H199.508L202.34 124.34H202.374L205.206 135H207.076L210.774 120.2H208.401L206.081 130.722Z" fill="white"/>
<path d="M260.404 120.2L255.018 135H257.39L258.533 131.692H264.145L265.288 135H267.661L262.275 120.2H260.404ZM259.174 129.7L261.313 123.24H261.357L263.496 129.7H259.174Z" fill="white"/>
<path d="M322.859 130.722H322.816L316.122 120.2H314.009V135H316.252V124.487H316.295L322.989 135H325.102V120.2H322.859V130.722Z" fill="white"/>
</g>
<defs>
<clipPath id="clip0_206_459">
<rect width="293.821" height="120" fill="white" transform="translate(32 15)"/>
</clipPath>
</defs>
</svg>
