<svg width="130" height="50" viewBox="0 0 130 50" fill="none" xmlns="http://www.w3.org/2000/svg">
<path d="M22.3086 31.1801L22.204 30.5991L20.9676 23.5854L20.8599 22.9759L20.2512 23.118L18.5425 23.5159L18.0004 23.6454L18.0955 24.1917L19.3255 31.0917L19.427 31.6633L20.0039 31.5654L21.7221 31.278L22.3086 31.1801Z" fill="white"/>
<path d="M34.0445 32.6643V24.7885H42.5373H43.1269V24.2011V22.5211V21.9369H42.5373H22.9997H22.4101V22.5211V24.2011V24.7885H22.9997H31.1153V32.6643H21.7063H21.1166V33.2516V35.0485V35.6358H21.7063H43.669H44.2587V35.0485V33.2516V32.6643H43.669H34.0445Z" fill="white"/>
<path d="M59.8716 29.2506L59.6466 28.7517L58.9523 27.2201L58.7209 26.7085L58.1978 26.9138L54.4095 28.4138V18.2359H58.8921V15.3875H54.4095V6.4317H59.1615V3.5896H46.8043V6.4317H51.4739V15.3875H46.8043V18.2359H51.4739V29.3833L47.1277 30.6149L46.4873 30.7949L46.7473 31.4075L47.413 32.977L47.6095 33.4412L48.1009 33.3149C53.3982 31.957 57.196 30.6749 59.3898 29.5064L59.8748 29.2475L59.8716 29.2506Z" fill="white"/>
<path d="M20.1434 21.5927L20.3114 22.1201L20.8503 21.9811L22.5051 21.558L23.0853 21.4096L22.9236 20.8348C22.5907 19.638 21.7982 17.5601 20.435 14.2885L20.2226 13.7769L19.6964 13.9601L18.0479 14.5348L17.4519 14.7433L17.7024 15.3211L18.5932 17.3738L13.9426 17.8348C17.0081 14.219 19.0528 10.7517 20.0134 7.51167L20.1814 6.94009L19.6045 6.77904L17.9433 6.31799L17.4044 6.16641L17.2268 6.69694C16.6784 8.32957 15.8859 10.0033 14.8175 11.7938L12.8616 10.0569C14.2025 7.63167 15.2201 5.55378 15.8827 3.88957L16.0856 3.37799L15.5847 3.1443L14.0313 2.41799L13.4671 2.15588L13.2356 2.73378C12.4051 4.79588 11.5364 6.66851 10.6456 8.31378L9.33003 7.45167L8.82914 7.12325L8.50896 7.63167L7.61181 9.05273L7.29163 9.5643L7.81153 9.87062C9.56145 10.9033 11.3431 12.318 13.242 14.1717C12.1736 15.6275 11.0926 16.979 9.96088 18.2769L8.19195 18.4254L7.5072 18.4822L7.66887 19.1485L8.06831 20.7843L8.18878 21.2801L8.69917 21.2296L13.914 20.718V36.7348H16.8337V20.4559L19.6837 20.159L20.1465 21.6022L20.1434 21.5927Z" fill="white"/>
<path d="M121.423 32.8348C113.067 26.1243 108.223 20.1274 106.175 13.9569C105.347 11.5853 104.859 9.24847 104.726 7.00636C104.726 7.0411 104.726 6.66847 104.726 6.66847C104.726 6.69373 104.796 5.01689 104.796 5.01689C104.796 4.99163 104.796 2.38321 104.796 2.38321V1.79584H101.289V5.11794C101.289 15.0495 98.5029 22.4832 92.7745 27.8485C90.7678 29.86 88.2634 31.2116 85.4324 32.6453L84.7889 32.9706L85.2391 33.5327L86.6276 35.2632L86.9509 35.6643L87.3916 35.399C92.9393 32.0548 96.3251 29.2 98.7153 25.8558C100.9 22.6095 102.405 19.4832 103.382 16.1548C105.154 20.9895 108.448 25.6948 113.596 30.7853L113.612 30.8011L113.628 30.8137L118.766 35.1969L119.131 35.5064L119.511 35.2158L121.41 33.7537L122 33.299L121.42 32.8316L121.423 32.8348Z" fill="white"/>
<path d="M42.1886 8.34848L41.6655 8.11796L40.0741 7.42006L39.4464 7.14532L39.2689 7.80532C38.7046 9.88322 37.8708 11.6106 36.7169 13.0853C36.3048 13.638 36.3207 14.2348 36.7518 14.6958C37.8296 15.9022 38.9487 17.7243 40.1565 20.2506L40.4387 20.8411L40.9966 20.4969L42.4897 19.578L42.9716 19.2811L42.6926 18.7885C41.3295 16.3916 40.2199 14.6895 39.4654 13.8401C40.3309 12.4916 41.1741 10.8243 41.973 8.87901L42.1886 8.35164V8.34848Z" fill="white"/>
<path d="M10.4428 23.1559L9.82142 23.0295L9.74217 23.658C9.42516 26.1148 8.57556 29.3138 7.2124 33.1664L7 33.7632L7.61184 33.9274L9.30152 34.3822L9.82142 34.5243L10.0053 34.019C11.4382 30.1064 12.3036 26.8822 12.6428 24.1632L12.7094 23.6264L12.1768 23.5159L10.4396 23.159L10.4428 23.1559Z" fill="white"/>
<path d="M42.8162 6.42219H43.4059V5.83482V4.17692V3.59271H42.8162H21.8363H21.2466V4.17692V5.83482V6.42219H21.8363H42.8162Z" fill="white"/>
<path d="M29.8694 15.34C30.7887 16.3695 31.8919 18.1095 33.0712 20.3863L33.3724 20.9674L33.9208 20.6106L35.3664 19.6663L35.8419 19.3569L35.5471 18.8737C34.1554 16.5842 32.992 14.9137 32.0821 13.8874C32.8525 12.8895 33.8511 11.3074 35.1318 9.04634L35.4171 8.54108L34.9131 8.25055L33.4199 7.38529L32.8462 7.05371L32.583 7.66318C31.6542 9.82318 30.5985 11.5695 29.3527 13.0032L29.378 12.9748C28.5791 13.7863 29.4858 14.8758 29.8726 15.34H29.8694Z" fill="white"/>
<path d="M28.0815 8.41485L27.5616 8.16222L26.0177 7.41064L25.4217 7.12012L25.203 7.74538C24.4263 9.96854 23.4562 11.797 22.3213 13.1801C21.6683 13.9601 22.5369 15.1127 22.8666 15.5454C23.8113 16.8875 24.6926 18.5549 25.5517 20.6201L25.8085 21.2422L26.3918 20.9012L27.8976 20.0233L28.3763 19.7454L28.1258 19.2527C26.899 16.8464 25.8782 15.1412 25.0096 14.0359C25.8624 12.8264 26.8134 11.118 27.8405 8.94222L28.0878 8.41801L28.0815 8.41485Z" fill="white"/>
<path d="M81.6822 1L75.6589 6.61789L72.5839 4.03789L72.1654 3.68737H60.1189V9.87684L58.8128 11.0263L60.1189 12.2232V22.0221H68.7385V25.1895H59.4405V28.0505H68.7385V32.6674H57.6557V35.6389H82.8361V32.6674H71.6645V28.0505H81.4793V25.1895H71.6645V22.0221H80.8484V10.9821L80.3158 10.5368L78.1475 8.71789L83.4923 2.42421L81.6695 1.00316L81.6822 1ZM71.5187 7.03474L73.4652 8.67053L71.5187 10.5147V7.03474ZM63.1147 19.0442V14.9611L67.5782 19.0442H63.1147ZM63.1147 9.28316V6.66842H68.7543V13.5179L68.5673 13.4011L63.1147 9.28631V9.28316ZM77.8685 19.0442H69.3345L72.4792 15.3432L77.8685 15.3337V19.0442ZM77.8685 12.5484H74.9076L76.2295 10.9916L77.8685 12.3684V12.5484Z" fill="white"/>
<path d="M110.207 32.4464H110.93V32.1369H110.857H109.088V32.4464H109.884V33.5927H108.98V33.9053H109.884V35.5506H110.207V33.9053H111.066V33.5927H110.207V32.4464Z" fill="white"/>
<path d="M108.118 32.1274H105.499C105.423 32.1274 105.376 32.178 105.373 32.2474V33.7948C105.366 34.2306 105.227 34.739 104.957 35.3011L104.932 35.3737L105.249 35.4748L105.278 35.4148C105.442 35.0895 105.563 34.7232 105.645 34.3222H107.921V35.1022C107.921 35.1022 107.921 35.1274 107.921 35.1401C107.887 35.1622 107.741 35.2064 107.173 35.0769L107.085 35.0611V35.399L107.138 35.4116C107.398 35.4653 107.614 35.4969 107.779 35.4969C107.944 35.4969 108.07 35.4527 108.162 35.3769C108.216 35.3295 108.251 35.2569 108.251 35.1622V32.2474C108.251 32.1843 108.197 32.1306 108.118 32.1243V32.1274ZM107.921 34.0095H105.693C105.699 33.959 105.702 33.8895 105.702 33.8895V33.3843H107.921V34.0095ZM107.921 33.0748H105.702V32.4432H107.921V33.0748Z" fill="white"/>
<path d="M111.558 32.1275H111.488H111.228V34.7517H111.558V32.1275Z" fill="white"/>
<path d="M112.436 31.9695H112.182V35.1495C112.182 35.1495 112.179 35.1558 112.173 35.1558C112.087 35.2 111.887 35.2221 111.421 35.1053L111.329 35.0769V35.399L111.386 35.4147C111.875 35.5442 112.195 35.5442 112.379 35.4274C112.461 35.3832 112.505 35.2979 112.512 35.2V31.9758H112.436V31.9695Z" fill="white"/>
<path d="M8.8577 46.2715H9.56147V40.6346H8.8577V40.4641H11.2036L12.2466 44.061L13.2864 40.4641H15.5245V40.6346H14.8144V46.2715H15.5245V46.442H12.6967V46.2715H13.4068V40.6441L11.6981 46.4388H11.4984L9.73266 40.6536V46.2683H10.4459V46.4388H8.86087V46.2683L8.8577 46.2715Z" fill="white"/>
<path d="M17.4329 42.3052L18.1779 44.4904H16.6721L17.4361 42.3052H17.4329ZM15.1979 46.442H16.913V46.2715H16.0634L16.6213 44.6704H18.2444L18.7739 46.2715H18.032V46.442H20.8376V46.2715H20.3272L18.2444 40.4199H17.9147L15.87 46.2715H15.1979V46.442Z" fill="white"/>
<path d="M20.6221 46.2715H21.3227V40.6346H20.6221V40.4641H22.9204L25.2568 44.2694V40.6346H24.534V40.4641H26.1381V40.6346H25.4248V46.4388H24.9018L21.4907 40.8967V46.2715H22.204V46.442H20.6189V46.2715H20.6221Z" fill="white"/>
<path d="M27.5647 42.3052L28.3097 44.4904H26.8039L27.5647 42.3052ZM25.3298 46.442H27.0448V46.2715H26.1921L26.7563 44.6704H28.3794L28.9089 46.2715H28.1639V46.442H30.9695V46.2715H30.4622L28.3763 40.4199H28.0434L26.0018 46.2715H25.3298V46.442Z" fill="white"/>
<path d="M35.097 40.4358H35.2586L35.3442 42.1632H35.173C35.0843 41.8758 35.0082 41.6674 34.948 41.5442C34.8877 41.4179 34.7419 41.2158 34.5073 40.9284C34.2759 40.6379 33.8986 40.4958 33.3724 40.4958C33.1124 40.4958 32.8747 40.5526 32.6718 40.6726C32.4594 40.7895 32.2946 40.9789 32.1709 41.2505C32.0473 41.5221 31.9871 42.2579 31.9871 43.4579C31.9871 44.0768 32.0029 44.5505 32.0378 44.8853C32.0695 45.2137 32.1487 45.5516 32.2724 45.8895C32.3928 46.2305 32.713 46.4011 33.2297 46.4011C33.5246 46.4011 33.737 46.3095 33.8701 46.1358C34.0064 45.9653 34.073 45.681 34.073 45.2895V44.0863H33.3851V43.9189H36.1716V44.0863H35.5471V45.2895C35.4774 45.3874 35.4171 45.4758 35.3537 45.5484C35.2903 45.6211 35.1857 45.7442 35.0336 45.9116C34.8814 46.0821 34.6405 46.2274 34.3171 46.3568C33.9937 46.4863 33.6419 46.5495 33.2646 46.5495C32.3706 46.5495 31.6764 46.221 31.1755 45.5737C30.6778 44.9295 30.4305 44.2253 30.4305 43.4737C30.4305 42.5989 30.7063 41.8568 31.2579 41.2505C31.8064 40.6505 32.4784 40.3505 33.2741 40.3505C33.5785 40.3505 33.8321 40.3853 34.0318 40.4484C34.2315 40.5147 34.482 40.6474 34.7831 40.8495L35.1128 40.4389L35.097 40.4358Z" fill="white"/>
<path d="M36.0004 46.2715H36.7264V40.6346H36.0004V40.4641H40.6954L40.7873 42.0967H40.6162C40.5432 41.7494 40.3974 41.421 40.1755 41.102C39.9568 40.7894 39.6334 40.6346 39.2149 40.6346H38.1244V43.3441H38.2607C38.3368 43.3441 38.4097 43.3441 38.4826 43.3378C38.5524 43.3378 38.657 43.3157 38.7997 43.2778C38.9423 43.2367 39.0564 43.1483 39.1547 43.0031C39.2308 42.902 39.2879 42.7946 39.3227 42.6778C39.3544 42.561 39.3861 42.3841 39.4052 42.1473H39.5732V44.7115H39.402C39.3766 44.4904 39.3513 44.3231 39.3196 44.2094C39.2879 44.0988 39.2149 43.9504 39.104 43.7704C38.9899 43.5904 38.7299 43.4988 38.3273 43.4988H38.1244V46.2652H39.234C39.4274 46.2652 39.6302 46.2052 39.8426 46.0883C40.055 45.9715 40.2294 45.8325 40.3594 45.662C40.4925 45.4915 40.5845 45.3367 40.6415 45.2041C40.7049 45.0683 40.7683 44.8504 40.8412 44.5504H40.9807L40.9046 46.4357H36.0004V46.2652V46.2715Z" fill="white"/>
<path d="M43.2125 40.6347H44.0272C44.3062 40.6347 44.5123 40.7357 44.6549 40.941C44.7944 41.1494 44.8642 41.4873 44.8642 41.9547C44.8642 42.3968 44.7849 42.7189 44.6296 42.9084C44.4711 43.1105 44.2111 43.2052 43.8561 43.2052H43.2157V40.6315L43.2125 40.6347ZM41.0885 46.4389H43.9385V46.2684H43.2125V43.3726H43.7388C44.0177 43.3726 44.2365 43.4673 44.4013 43.6536C44.5662 43.8399 44.6486 44.0957 44.6486 44.4241L44.693 45.1599C44.693 45.5926 44.8134 45.9241 45.0575 46.1515C45.3048 46.382 45.6377 46.4989 46.0656 46.4989C46.2115 46.4989 46.3414 46.4862 46.4587 46.461C46.5792 46.4326 46.7314 46.3884 46.9121 46.3157L46.8613 46.1705C46.7441 46.2336 46.6521 46.2684 46.5887 46.2684C46.4239 46.2684 46.3161 46.202 46.2622 46.0726C46.2083 45.9399 46.1798 45.6999 46.1798 45.3526C46.1798 45.0431 46.1512 44.7905 46.0942 44.5789C46.0403 44.3673 45.9515 44.181 45.8342 44.0136C45.7169 43.8462 45.5965 43.7199 45.4697 43.6378C45.3397 43.5526 45.2097 43.4926 45.0702 43.4578C44.9307 43.4199 44.7342 43.382 44.4837 43.341C44.7342 43.2968 44.9371 43.2526 45.0861 43.202C45.2382 43.1547 45.3936 43.0915 45.5616 43.0031C45.8279 42.8578 46.0149 42.6968 46.1259 42.5168C46.24 42.3368 46.2939 42.1062 46.2939 41.8189C46.2939 41.3862 46.1227 41.0515 45.7835 40.8147C45.4475 40.5778 44.9751 40.4578 44.3664 40.4578H41.079V40.6284H41.8018V46.2652H41.079V46.4357L41.0885 46.4389Z" fill="white"/>
<path d="M48.6367 42.8515C48.8966 42.7031 49.0931 42.5704 49.2231 42.4504C49.3531 42.3336 49.4545 42.2357 49.5306 42.1599C49.6067 42.0873 49.6765 42.0052 49.7462 41.9231C49.8159 41.8409 49.8825 41.7557 49.9459 41.6609C50.0093 41.5725 50.0822 41.4494 50.1647 41.3104H50.3327V42.8546H51.046V43.0252H50.3327V45.5767C50.3327 45.9241 50.45 46.0978 50.6846 46.0978C50.897 46.0978 51.0745 45.9146 51.2171 45.5452L51.3693 45.5925C51.2964 45.7978 51.2235 45.9494 51.1569 46.0441C51.084 46.142 50.9667 46.2336 50.805 46.3283C50.637 46.4231 50.3961 46.4704 50.0886 46.4704C49.4355 46.4704 49.109 46.2115 49.109 45.6904V43.0252H48.6303V42.8515H48.6367Z" fill="white"/>
<path d="M52.4915 44.4337C52.4915 43.7863 52.5391 43.36 52.631 43.161C52.7229 42.9589 52.9163 42.8579 53.2016 42.8579C53.4679 42.8579 53.6328 42.9495 53.693 43.1263C53.7596 43.3063 53.8008 43.4958 53.8198 43.6916C53.8325 43.8874 53.842 44.1716 53.842 44.5442C53.842 44.8916 53.8357 45.1821 53.8135 45.4221C53.7944 45.6589 53.7564 45.8705 53.6962 46.0505C53.6423 46.2305 53.4616 46.3189 53.1572 46.3189C52.8529 46.3189 52.6817 46.2305 52.6247 46.0537C52.5708 45.8768 52.5327 45.6937 52.5169 45.5074C52.5042 45.3179 52.4915 45.0084 52.4915 44.5758V44.4337ZM51.7782 43.2589C51.3946 43.6158 51.2044 44.061 51.2044 44.5947C51.2044 45.1284 51.3946 45.5579 51.7782 45.921C52.1618 46.2874 52.6215 46.4705 53.1604 46.4705C53.6993 46.4705 54.1622 46.2874 54.5489 45.921C54.9357 45.5516 55.1291 45.1126 55.1291 44.5947C55.1291 44.0768 54.942 43.6316 54.5616 43.2684C54.1812 42.9053 53.7279 42.7189 53.1953 42.7189C52.6342 42.7189 52.1618 42.8958 51.7782 43.2589Z" fill="white"/>
<path d="M58.0297 45.3843C58.0107 45.4727 57.9663 45.5832 57.9029 45.7158C57.8364 45.8548 57.7476 45.9748 57.624 46.079C57.5003 46.1864 57.3735 46.2337 57.2467 46.2337C57.1041 46.2337 56.9899 46.1864 56.9075 46.079C56.8251 45.9779 56.7744 45.8706 56.7522 45.7727C56.7268 45.6716 56.7173 45.5232 56.7173 45.3179V44.0106C56.7173 43.9664 56.7173 43.9032 56.7237 43.8211C56.7237 43.7422 56.7395 43.6411 56.7585 43.5306C56.7966 43.3885 56.8695 43.2716 56.9678 43.1737C57.0692 43.0758 57.1706 43.0222 57.2784 43.0222C57.4084 43.0222 57.532 43.0916 57.6652 43.2274C57.7888 43.3632 57.8903 43.5085 57.96 43.6664C58.0266 43.8211 58.0583 43.9727 58.0583 44.1085V45.1158C58.0583 45.2106 58.0519 45.3022 58.0329 45.3843H58.0297ZM58.0551 43.4011C57.8871 43.1611 57.7286 42.9874 57.5764 42.8895C57.4211 42.7979 57.234 42.7474 57.0121 42.7474C56.562 42.7474 56.1816 42.9401 55.8582 43.3158C55.538 43.6948 55.3763 44.1527 55.3763 44.6864C55.3763 45.1885 55.5317 45.6085 55.8424 45.9464C56.1467 46.2874 56.5239 46.4548 56.9678 46.4548C57.4116 46.4548 57.681 46.3758 57.7888 46.2179C57.9029 46.0601 57.9759 45.9527 58.0107 45.8958C58.0456 45.839 58.0741 45.7853 58.0995 45.7348V46.3569H59.8145V46.1895H59.2693V40.3853H57.5003V40.5558H58.0551V43.3979V43.4011Z" fill="white"/>
<path d="M62.0304 45.3021C62.0304 45.4916 61.9797 45.6589 61.8719 45.8042C61.7705 45.9432 61.6469 46.0126 61.5042 46.0126C61.3615 46.0126 61.2538 45.9495 61.1808 45.82C61.1016 45.6905 61.0636 45.5137 61.0636 45.2832C61.0636 45.081 61.1016 44.9232 61.1872 44.8095C61.2474 44.7179 61.352 44.6421 61.4979 44.5853C61.6405 44.5253 61.818 44.4968 62.0304 44.4968V45.3021ZM62.0304 44.3389L61.7863 44.361C61.482 44.4084 61.2569 44.4432 61.1111 44.4779C60.9653 44.5063 60.7941 44.5632 60.5944 44.6421C60.3915 44.721 60.2425 44.8095 60.1474 44.9042C60.0491 44.9958 59.9762 45.1 59.935 45.2168C59.8906 45.3337 59.8684 45.4505 59.8684 45.5642C59.8684 45.8232 59.9572 46.0347 60.1442 46.2021C60.3249 46.3695 60.5595 46.4516 60.848 46.4516C61.0889 46.4516 61.314 46.3884 61.5232 46.2621C61.6976 46.1705 61.8656 46.0126 62.0304 45.7916C62.1002 46.0284 62.208 46.1989 62.3411 46.2968C62.4743 46.3979 62.6645 46.4484 62.9086 46.4484C63.2224 46.4484 63.4633 46.3568 63.6314 46.1863L63.7582 46.0126L63.6916 45.8989C63.5902 46 63.495 46.0442 63.4158 46.0442C63.3048 46.0442 63.2541 45.9874 63.2541 45.8705V43.5621C63.2541 43.0316 62.7564 42.7568 61.761 42.7568C61.2411 42.7568 60.8353 42.8421 60.5405 43.0095C60.2425 43.1737 60.0935 43.401 60.0935 43.6821C60.0935 43.8242 60.1474 43.9442 60.252 44.0389C60.3566 44.1337 60.4961 44.181 60.6609 44.181C60.8258 44.181 60.9653 44.1305 61.0762 44.0232C61.1872 43.9189 61.2442 43.7926 61.2442 43.641C61.2442 43.5368 61.2126 43.4453 61.1491 43.3758C61.0857 43.3032 61.0509 43.2621 61.0477 43.2432C61.0445 43.2274 61.035 43.2116 61.0287 43.1926C61.0287 43.1232 61.0857 43.0568 61.1872 43.0032C61.295 42.9495 61.4218 42.9242 61.5676 42.9242C61.7388 42.9242 61.8593 42.9653 61.9258 43.0474C61.9924 43.1263 62.0273 43.2716 62.0273 43.4737V44.3421L62.0304 44.3389Z" fill="white"/>
<path d="M63.3365 42.8548H65.6254V43.0253H65.0833L65.9868 45.0684L66.7825 43.0253H66.0724V42.8548H67.4799V43.0253H66.9695L64.9565 48.0463C64.6965 48.6842 64.3795 49 64.0181 49C63.8533 49 63.7106 48.9463 63.5997 48.8358C63.4855 48.7284 63.4317 48.5958 63.4317 48.4348C63.4317 48.2863 63.4887 48.1506 63.6028 48.0274C63.7201 47.9042 63.8533 47.8442 64.0054 47.8442C64.1069 47.8442 64.183 47.86 64.2337 47.8948C64.2876 47.9295 64.3383 47.9832 64.3985 48.0558C64.4556 48.1316 64.4905 48.1758 64.5032 48.1884C64.5158 48.1979 64.5349 48.2074 64.5571 48.22C64.6014 48.22 64.6458 48.1884 64.6965 48.1253C64.7441 48.0653 64.7885 47.9706 64.8329 47.8442L65.3718 46.4453L63.7518 43.019H63.3429V42.8484L63.3365 42.8548Z" fill="white"/>
</svg>
