<?xml version="1.0" encoding="utf-8"?>
<!-- Generator: Adobe Illustrator 16.2.1, SVG Export Plug-In . SVG Version: 6.00 Build 0)  -->
<!DOCTYPE svg PUBLIC "-//W3C//DTD SVG 1.1//EN" "http://www.w3.org/Graphics/SVG/1.1/DTD/svg11.dtd">
<svg version="1.1" id="圖層_1" xmlns="http://www.w3.org/2000/svg" xmlns:xlink="http://www.w3.org/1999/xlink" x="0px" y="0px"
	 width="750px" height="400px" viewBox="1174.89 643 750 400" enable-background="new 1174.89 643 750 400" xml:space="preserve">
<g>
	<g>
		<polygon fill="#FFFFFF" points="1299.28,879.578 1298.709,876.148 1291.278,834.427 1290.707,830.998 1287.278,831.57 
			1276.99,834.427 1273.562,834.999 1274.134,838.428 1281.562,879.006 1282.135,882.436 1285.563,881.863 1295.851,880.148 		"/>
		<polygon fill="#FFFFFF" points="1369.004,888.723 1369.004,841.857 1419.299,841.857 1422.728,841.857 1422.728,838.428 
			1422.728,828.141 1422.728,824.711 1419.299,824.711 1303.28,824.711 1299.852,824.711 1299.852,828.141 1299.852,838.428 
			1299.852,841.857 1303.28,841.857 1351.287,841.857 1351.287,888.723 1295.851,888.723 1292.422,888.723 1292.422,892.15 
			1292.422,903.01 1292.422,906.439 1295.851,906.439 1426.157,906.439 1429.586,906.439 1429.586,903.01 1429.586,892.15 
			1429.586,888.723 1426.157,888.723 		"/>
		<path fill="#FFFFFF" d="M1522.171,868.146l-1.714-2.857l-4.001-9.145l-1.143-2.857l-3.429,1.143l-22.29,9.145v-60.581h22.861
			h3.429v-3.429v-9.716v-4.001h-3.429h-22.861v-53.15h24.575h3.431v-3.429v-9.716v-3.429h-3.431h-66.295h-3.429v3.429v9.716v3.429
			h3.429h24.003v53.15h-24.003h-3.429v3.43v9.715v4.001h3.429h24.003v66.297l-25.718,7.43l-3.43,0.57l1.716,3.43l4,9.145
			l1.143,2.857l2.858-0.572c31.433-8.002,53.722-16.002,66.867-22.859L1522.171,868.146z"/>
		<path fill="#FFFFFF" d="M1286.707,822.997l1.143,3.43l3.429-0.572l9.716-2.286l3.43-1.144l-1.144-3.429
			c-1.715-6.858-6.858-19.431-14.859-38.863l-1.144-2.858l-2.857,1.144l-9.715,3.429l-3.43,1.144l1.714,3.429l5.145,12.002
			l-27.434,2.858c18.289-21.718,30.291-42.292,36.007-61.724l1.143-3.429l-4.573-1.714l-9.715-2.858l-3.429-1.143l-1.144,3.43
			c-3.43,9.715-8.001,19.431-14.288,30.29l-11.43-10.287c8.001-14.288,13.717-26.861,17.717-36.577l1.143-2.858l-2.857-1.143
			l-9.145-4.572l-3.429-1.715l-1.143,3.429c-5.145,12.001-10.288,23.433-15.432,33.148l-8.001-5.143l-2.857-1.715l-1.715,2.857
			l-5.144,8.573l-1.715,2.858l2.857,1.714c10.287,6.287,21.146,14.289,32.005,25.719c-6.286,8.573-12.573,16.574-19.431,24.575
			l-10.288,1.143l-4,0.571l1.143,4.001l2.286,9.716l0.571,2.858l2.858-0.572l30.861-2.857v92.014v3.43h3.43h10.287h3.429v-3.43
			v-93.729l17.146-1.714L1286.707,822.997z"/>
		<path fill="#FFFFFF" d="M1887.372,889.865c-49.723-40.006-78.298-75.441-90.3-112.59c-5.144-14.287-8.002-28.004-8.573-41.148
			v-2.286l0.571-9.716v-15.432v-3.429h-3.429h-13.717h-3.429v3.429v16.003c0,58.866-16.574,103.444-50.293,135.449
			c-12.002,12.002-26.862,20.004-43.437,28.578l-4,1.713l2.857,3.43l8.002,10.287l1.714,2.287l2.857-1.715
			c33.148-20.004,53.151-37.148,66.868-56.582c13.145-19.431,21.717-37.719,27.433-57.722c10.288,28.576,30.291,56.58,60.582,86.871
			l0,0l0,0l30.29,26.289l2.285,1.717l2.287-1.717l11.43-8.572l3.429-2.857L1887.372,889.865z"/>
		<path fill="#FFFFFF" d="M1417.013,744.127l-2.857-1.144l-9.717-4l-4-1.715l-1.144,4.001c-3.429,12.573-8.571,22.86-14.858,31.434
			c-2.287,3.429-2.287,6.858,0,9.715c6.287,7.43,13.145,18.289,20.002,33.148l1.715,3.429l3.43-2.287l8.572-5.715l2.858-1.714
			l-1.715-2.858c-8.001-14.288-14.86-24.576-18.86-29.719c5.144-8.001,10.288-17.717,14.86-29.719L1417.013,744.127z"/>
		<path fill="#FFFFFF" d="M1228.982,832.142l-3.429-0.571l-0.571,4c-1.715,14.86-6.858,33.721-14.859,56.581l-1.143,3.43
			l3.429,1.143l10.287,2.857l2.857,0.572l1.144-2.857c8.572-23.432,13.716-42.293,15.431-58.867l0.572-3.43l-3.43-0.571
			L1228.982,832.142z"/>
		<polygon fill="#FFFFFF" points="1421.014,732.125 1424.441,732.125 1424.441,728.696 1424.441,718.98 1424.441,715.552 
			1421.014,715.552 1296.422,715.552 1292.993,715.552 1292.993,718.98 1292.993,728.696 1292.993,732.125 1296.422,732.125 		"/>
		<path fill="#FFFFFF" d="M1344.43,785.277c5.715,6.287,12.001,16.574,18.859,30.29l1.715,3.429l3.43-2.287l8.572-5.715l2.858-1.714
			l-2.287-2.858c-8.001-13.716-15.431-23.432-20.574-29.719c4.572-5.715,10.287-15.432,18.288-28.576l1.715-2.857l-2.857-1.715
			l-9.145-5.143l-3.429-1.715l-1.143,2.857c-5.716,12.573-12.002,23.433-19.432,32.005l0,0
			C1336.429,776.132,1341.572,782.991,1344.43,785.277z"/>
		<path fill="#FFFFFF" d="M1333.571,744.127l-2.858-1.714l-9.144-4.573l-3.429-1.714l-1.715,4
			c-4.572,13.145-10.287,24.003-17.146,32.577c-4.001,4.571,1.143,11.43,3.429,14.288c5.715,8,10.858,17.716,16.003,30.29
			l1.714,3.429l3.43-2.286l9.144-5.144l2.857-1.715l-2.285-2.857c-7.43-14.288-13.146-24.575-18.289-30.862
			c5.144-7.43,10.859-17.146,16.573-30.291L1333.571,744.127z"/>
		<path fill="#FFFFFF" d="M1651.335,700.121l-35.434,33.72l-18.288-15.432l-2.286-2.286h-72.012V752.7l-8.002,6.858l8.002,6.858
			v58.294h50.864v18.861h-51.437h-3.429V847v10.289v3.428h3.429h51.437v28.006h-61.724h-3.43v3.428v10.859v3.43h3.43h142.308h3.43
			v-3.43V892.15v-3.428h-3.43h-62.866v-27.434h54.865h3.43v-3.43v-10.287v-3.43h-3.43h-54.865v-18.859h54.294v-65.725l-3.43-2.857
			l-12.573-10.859l31.434-37.72L1651.335,700.121z M1591.326,736.126l11.431,9.715l-11.431,10.859V736.126z M1541.032,807.566
			v-24.575l26.29,24.575H1541.032z M1541.032,749.271V733.84h33.72v40.577l-1.144-0.571L1541.032,749.271z M1629.046,807.566
			h-50.865l18.86-22.289h32.005V807.566z M1629.046,768.703h-17.718l8.001-9.145l9.717,8.001V768.703z"/>
	</g>
	<g>
		<polygon fill="#FFFFFF" points="1820.504,887.58 1825.076,887.58 1825.076,885.293 1824.505,885.293 1813.646,885.293 
			1813.646,887.58 1818.79,887.58 1818.79,894.438 1813.074,894.438 1813.074,896.15 1818.79,896.15 1818.79,905.867 
			1820.504,905.867 1820.504,896.15 1825.647,896.15 1825.647,894.438 1820.504,894.438 		"/>
		<path fill="#FFFFFF" d="M1807.931,885.293H1792.5c-0.571,0-0.571,0.57-0.571,0.57v9.145c0,2.857-1.143,5.715-2.287,9.145v0.572
			l1.716,0.572v-0.572c1.143-1.715,1.714-4.002,2.285-6.287h13.717v4.572l0,0c0,0-1.143,0.57-4.571-0.572h-0.572v2.287h0.572
			c1.714,0.572,2.856,0.572,4,0.572c1.143,0,1.715,0,2.286-0.572c0.571,0,0.571-0.572,0.571-1.145v-17.145
			C1809.074,885.863,1808.503,885.293,1807.931,885.293z M1806.788,896.723h-13.146c0-0.572,0-0.572,0-0.572v-2.855h13.146V896.723z
			 M1806.788,891.008h-13.146v-4h13.146V891.008z"/>
		<polygon fill="#FFFFFF" points="1828.506,885.293 1827.935,885.293 1826.791,885.293 1826.791,901.295 1828.506,901.295 		"/>
		<path fill="#FFFFFF" d="M1833.649,884.721h-1.715v18.859l0,0c-0.571,0-1.714,0.572-4.572-0.57h-0.571v1.715h0.571
			c2.858,0.572,4.572,0.572,5.716,0c0.571,0,0.571-0.572,0.571-1.145V884.721L1833.649,884.721z"/>
	</g>
	<g>
		<g>
			<path fill="#FFFFFF" d="M1219.268,969.877h4v-33.719h-4v-1.145h13.716l6.287,21.146l6.286-21.146h13.145v1.145h-4v33.719h4v1.143
				h-16.573v-1.143h4v-33.719l-10.287,34.289h-1.143l-10.287-34.289v33.146h4.571v1.143h-9.144v-0.57H1219.268z"/>
			<path fill="#FFFFFF" d="M1270.133,945.873l4.572,13.146h-9.146L1270.133,945.873z M1256.988,970.447h10.286v-1.143h-5.144
				l3.429-9.715h9.717l3.429,9.715h-4.571v1.143h16.573v-1.143h-2.857l-12.573-34.861h-1.715l-12.002,34.861h-4.001
				C1256.988,969.877,1256.988,970.447,1256.988,970.447z"/>
			<path fill="#FFFFFF" d="M1289.563,969.877h4.001v-33.719h-4.001v-1.145h13.717l13.718,22.861v-21.717h-4.001v-1.145h9.716v1.145
				h-4.001v34.289h-4.001l-20.003-33.146v32.004h4.001v1.143h-9.146V969.877L1289.563,969.877z"/>
			<path fill="#FFFFFF" d="M1330.713,945.873l4.573,13.146h-9.145L1330.713,945.873z M1316.998,970.447h10.286v-1.143h-5.143
				l3.428-9.715h9.717l2.857,9.715h-4.572v1.143h16.573v-1.143h-2.857l-12.573-34.861h-1.715l-12.001,34.861h-4
				C1316.998,969.877,1316.998,970.447,1316.998,970.447z"/>
			<path fill="#FFFFFF" d="M1375.291,935.014h1.144l0.571,10.287h-1.143c-0.572-1.715-1.144-2.857-1.144-3.428
				c-0.571-0.572-1.143-1.715-2.856-3.43c-1.144-1.715-3.43-2.857-6.859-2.857c-1.715,0-2.857,0.572-4,1.143
				c-1.144,0.572-2.286,1.715-2.858,3.43c-0.571,1.715-1.143,6.287-1.143,13.145c0,3.43,0,6.287,0.571,8.572
				c0,1.715,0.571,4.002,1.144,5.717c0.571,2.285,2.857,2.855,5.715,2.855c1.715,0,2.857-0.57,4.001-1.713
				c0.57-1.143,1.143-2.857,1.143-5.145v-7.43h-4v-1.143h16.573v1.143h-4.572v7.43c-0.571,0.572-0.571,1.143-1.143,1.715
				s-1.144,1.143-1.715,2.287c-1.143,1.143-2.285,1.713-4,2.855c-1.716,0.572-4.001,1.145-6.287,1.145
				c-5.144,0-9.145-1.715-12.574-5.715c-2.856-4.002-4.571-8.002-4.571-12.574c0-5.145,1.715-9.717,5.144-13.145
				c3.429-3.43,7.43-5.145,12.002-5.145c1.715,0,3.43,0,4.571,0.572c1.144,0.572,2.859,1.143,4.573,2.285L1375.291,935.014z"/>
			<path fill="#FFFFFF" d="M1380.436,969.877h4.572v-33.719h-4.572v-1.145h28.004l0.572,9.717h-1.144
				c-0.571-2.287-1.143-4-2.857-5.717c-1.144-1.713-3.429-2.855-5.716-2.855h-6.286v16.002h0.571c0.571,0,1.144,0,1.144,0
				c0.571,0,1.143,0,1.715-0.572c0.571,0,1.714-0.57,2.286-1.715c0.57-0.57,0.57-1.143,1.142-1.715c0-0.57,0.572-1.713,0.572-3.428
				h1.144v15.432h-1.144c0-1.143-0.572-2.287-0.572-2.859c0-0.57-0.571-1.713-1.142-2.857c-0.572-1.143-2.286-1.713-4.573-1.713
				h-1.143v16.572h6.857c1.145,0,2.287-0.57,3.43-1.143c1.143-0.57,2.286-1.715,2.857-2.285c0.572-1.145,1.144-1.715,1.715-2.857
				c0.571-0.572,0.571-2.287,1.144-4h0.571l-0.571,11.428h-29.147C1380.436,970.447,1380.436,969.877,1380.436,969.877z"/>
			<path fill="#FFFFFF" d="M1423.3,936.158h4.572c1.714,0,2.856,0.57,3.428,1.713c0.572,1.143,1.144,3.43,1.144,6.287
				c0,2.859-0.571,4.572-1.144,5.715c-0.571,1.145-2.285,1.715-4,1.715h-4V936.158L1423.3,936.158z M1410.727,970.447h17.146v-1.143
				h-4.572V952.16h2.857c1.715,0,2.857,0.572,4,1.715s1.715,2.857,1.715,4.572v4.572c0,2.285,0.571,4.572,2.286,5.715
				s3.429,2.285,5.716,2.285c0.571,0,1.714,0,2.285,0s1.715-0.572,2.858-0.572l-0.571-1.143c-0.572,0.572-1.145,0.572-1.716,0.572
				c-1.143,0-1.714-0.572-1.714-1.143c-0.571-0.572-0.571-2.287-0.571-4.572c0-1.715,0-3.43-0.571-4.572
				c-0.572-1.143-0.572-2.287-1.715-3.43c-0.572-1.143-1.144-1.715-2.286-2.285c-0.572-0.572-1.715-1.143-2.286-1.143
				s-2.287-0.572-3.43-0.572c1.715,0,2.858-0.572,3.43-0.572c1.143,0,1.714-0.57,2.856-1.143c1.716-1.143,2.858-1.715,3.431-2.857
				c0.57-1.143,1.143-2.287,1.143-4.002c0-2.855-1.143-4.572-2.857-5.715c-1.716-1.143-4.572-2.285-8.573-2.285h-19.432v1.143h4.001
				v33.719h-4.001H1410.727L1410.727,970.447z"/>
		</g>
		<g>
			<path fill="#FFFFFF" d="M1455.304,949.303c1.716-1.145,2.858-1.715,3.43-2.285c0.571-0.572,1.143-1.145,1.715-1.717
				c0.571-0.57,1.143-1.143,1.143-1.143c0.572-0.572,0.572-1.143,1.144-1.715c0.571-0.57,0.571-1.143,1.143-2.285h1.143v9.145h4.001
				v1.143h-4.001v15.432c0,2.285,0.572,2.857,2.286,2.857c1.145,0,2.287-1.143,3.43-3.43h1.143
				c-0.571,1.143-1.143,2.287-1.143,2.857c-0.571,0.572-1.143,1.143-2.285,1.715c-1.145,0.57-2.287,0.57-4.001,0.57
				c-4.001,0-5.716-1.713-5.716-4.57v-16.004h-2.857L1455.304,949.303L1455.304,949.303z"/>
			<path fill="#FFFFFF" d="M1478.164,958.447c0-4.002,0-6.287,0.572-7.43c0.571-1.145,1.715-1.715,3.429-1.715
				c1.715,0,2.286,0.57,2.857,1.715c0.572,1.143,0.572,2.285,0.572,3.428c0,1.145,0,2.857,0,5.145c0,2.285,0,4,0,5.143
				c0,1.145-0.572,2.859-0.572,4.002c-0.571,1.143-1.143,1.713-3.428,1.713c-1.715,0-2.858-0.57-3.431-1.713
				c-0.57-1.143-0.57-2.287-0.57-3.43s0-2.857,0-5.715L1478.164,958.447L1478.164,958.447z M1474.164,951.588
				c-2.286,2.287-3.429,4.572-3.429,8.002c0,2.857,1.143,5.715,3.429,8.002c2.287,2.285,5.144,3.428,8.001,3.428
				c3.43,0,5.716-1.143,8.001-3.428c2.287-2.287,3.43-4.572,3.43-8.002c0-2.857-1.143-5.715-3.43-8.002
				c-2.285-2.285-5.144-3.43-8.001-3.43C1479.308,948.73,1476.451,949.303,1474.164,951.588z"/>
			<path fill="#FFFFFF" d="M1511.313,964.162c0,0.57-0.572,1.143-0.572,1.715c-0.572,0.57-1.143,1.715-1.715,2.285
				c-0.571,0.572-1.714,1.143-2.285,1.143c-0.572,0-1.715-0.57-2.287-1.143c-0.571-0.57-0.571-1.143-1.143-1.715
				c0-0.57,0-1.715,0-2.857v-0.57v-6.859c0,0,0-0.57,0-1.143s0-1.143,0-1.715c0-0.57,0.571-1.715,1.143-2.285
				c0.572-0.572,1.144-1.145,1.715-1.145c0.572,0,1.715,0.572,2.286,1.145c0.571,0.57,1.143,1.715,1.714,2.857
				c0.572,1.143,0.572,1.713,0.572,2.857v5.715C1511.313,963.59,1511.313,963.59,1511.313,964.162z M1511.313,952.732
				c-1.145-1.715-1.716-2.287-2.858-2.859c-1.143-0.57-2.286-1.143-3.429-1.143c-2.858,0-5.144,1.143-6.859,3.43
				c-1.714,2.285-2.856,5.143-2.856,8c0,2.859,1.143,5.717,2.856,7.432c1.716,2.285,4.001,2.855,6.859,2.855
				c2.857,0,4-0.57,5.143-1.143c0.572-1.143,1.145-1.713,1.145-1.713c0-0.572,0.571-0.572,0.571-1.145v3.43h10.286v-1.143h-3.428
				v-34.291h-10.288v1.143h3.43v17.146H1511.313z"/>
			<path fill="#FFFFFF" d="M1534.745,963.59c0,1.143-0.571,2.287-1.143,2.857c-0.572,0.572-1.144,1.145-2.286,1.145
				c-0.571,0-1.714-0.572-1.714-1.145c-0.572-0.57-0.572-1.715-0.572-3.428c0-1.145,0-2.287,0.572-2.859
				c0.57-0.57,1.142-1.141,1.714-1.141c0.571-0.572,1.714-0.572,3.429-0.572V963.59L1534.745,963.59z M1534.745,957.875h-1.715
				c-1.714,0-2.857,0.572-4,0.572c-1.144,0-1.715,0.572-2.858,1.143c-1.143,0.57-2.285,1.143-2.856,1.715
				c-0.572,0.57-1.145,1.143-1.145,1.715c0,0.57-0.57,1.143-0.57,2.285c0,1.715,0.57,2.857,1.715,4c1.143,1.143,2.286,1.715,4,1.715
				c1.143,0,2.858-0.572,4.001-1.143c1.143-0.572,2.286-1.715,2.857-2.857c0.571,1.143,1.144,2.285,1.715,2.857
				c0.571,0.57,1.715,1.143,3.428,1.143c1.716,0,3.431-0.572,4.001-1.715l0.572-1.143l-0.572-0.57
				c-0.57,0.57-1.142,1.143-1.713,1.143c-0.572,0-1.145-0.572-1.145-1.143v-1.145v-12.572c0-3.43-2.856-4.572-8.572-4.572
				c-2.857,0-5.716,0.57-7.43,1.715c-1.715,1.143-2.857,2.285-2.857,4c0,0.57,0.57,1.715,1.143,2.285
				c0.572,0.572,1.715,0.572,2.286,0.572c0.572,0,1.715-0.572,2.286-1.143c0.571-0.572,1.143-1.145,1.143-2.287
				c0-0.57,0-1.143-0.571-1.713c-0.571-0.572-0.571-0.572-0.571-0.572s0,0,0-0.572c0-0.57,0.571-0.57,1.143-1.143
				c0.572-0.572,1.145-0.572,2.286-0.572c1.144,0,1.715,0,2.286,0.572c0.572,0.572,0.572,1.143,0.572,2.287L1534.745,957.875
				L1534.745,957.875z"/>
			<path fill="#FFFFFF" d="M1542.747,949.303h13.716v1.143h-3.429l5.144,12.002l4.572-12.002h-4.001v-1.143h8.573v1.143h-2.858
				l-12.002,29.719c-1.714,4.002-3.429,5.715-5.715,5.715c-1.143,0-1.715-0.57-2.286-1.143c-1.144-0.57-1.144-1.143-1.144-2.287
				c0-1.143,0.572-1.713,1.144-2.285c0.571-0.57,1.715-1.143,2.286-1.143s1.144,0,1.144,0.572c0.571,0,0.571,0.57,1.143,1.143
				c0.572,0.57,0.572,0.57,0.572,0.57s0,0,0.571,0c0,0,0.571,0,0.571-0.57c0-0.572,0.57-1.143,0.57-1.715l3.431-8.574l-9.717-20.574
				h-2.285C1542.747,950.445,1542.747,949.303,1542.747,949.303z"/>
		</g>
	</g>
</g>
</svg>
