<svg width="220" height="50" viewBox="0 0 220 50" fill="none" xmlns="http://www.w3.org/2000/svg">
<path d="M53.0923 13.6145H47.9505C47.5039 12.5339 46.7583 11.1184 46.0883 10L43.7416 10.6339C44.1883 11.5289 44.7483 12.6456 45.195 13.6145H38.7872V15.664H53.1318L53.094 13.6145H53.0923ZM44.1505 20.3212C44.001 19.0912 43.4805 17.2668 42.8088 15.8495L40.871 16.2962C41.4293 17.7495 41.9516 19.6495 42.101 20.8418L44.1505 20.3195V20.3212ZM41.2816 30.3814C40.6116 32.5047 39.4932 34.7397 38.1893 36.2687C38.6738 36.5298 39.4932 37.1637 39.9038 37.4609C41.1338 35.822 42.5116 33.2503 43.295 30.9414L41.2833 30.3831L41.2816 30.3814ZM53.2417 28.6308V26.5435H47.3183V23.1163H53.6145V21.0668H49.4417C50.0756 19.689 50.6717 17.9368 51.2678 16.3357L49.0328 15.889C48.6222 17.3802 47.8784 19.5774 47.2445 21.0685H38.191V23.118H44.8978V26.5452H38.3783V28.6325H44.8978V39.9965H47.2823V28.6325H53.2434L53.2417 28.6308ZM48.77 31.0531C49.7389 32.6181 50.9311 34.8909 51.4534 36.3064L53.2039 35.3375C52.6456 33.922 51.4894 31.7986 50.4467 30.1958L48.77 31.0531ZM67.8835 21.1424H57.4506V14.9184C60.8779 14.3961 64.6418 13.5767 67.3235 12.5717L65.3857 10.7834C63.039 11.7523 58.8662 12.7573 55.1778 13.3534V24.6418C55.1778 29.0002 54.9167 34.6263 52.1594 38.5397C52.6817 38.8009 53.6506 39.5464 54.0216 40.0309C57.0022 35.7842 57.4489 29.3386 57.4489 24.6435V23.4891H61.9567V39.9948H64.3034V23.453H67.8801V21.1424H67.8835Z" fill="white"/>
<path d="M94.597 30.3435V34.1436H86.8097V30.3435H94.597ZM96.6087 35.9319V28.4796H84.6486V37.4214H86.7719V35.9302H96.6087V35.9319ZM103.24 20.5446H95.7875C96.6448 19.3901 97.5381 17.9368 98.3215 16.6329L95.8631 16.0745C95.3409 17.3784 94.3359 19.2046 93.4787 20.5463H78.3146V40.0687H80.6252V22.558H86.2514C85.8047 25.0919 84.5008 26.3958 80.663 27.0658C81.1097 27.4763 81.6319 28.258 81.8552 28.7802C86.3631 27.7735 87.9281 25.9491 88.4125 22.558H92.1009V24.6452C92.1009 26.583 92.5115 27.4403 94.4854 27.4403H97.9126C98.6204 27.4403 99.4038 27.4403 99.8126 27.2908C99.7388 26.7686 99.6632 26.0986 99.6632 25.5403C99.2165 25.6519 98.3593 25.6897 97.8748 25.6897H94.932C94.4098 25.6897 94.2981 25.4286 94.2981 24.7208V22.5975H100.929V37.3887C100.929 37.911 100.744 38.0587 100.221 38.0587C99.6992 38.0587 97.7992 38.1326 95.7497 38.0587C96.0847 38.581 96.3837 39.3248 96.4953 39.9209C99.2904 39.9209 100.929 39.8831 101.898 39.5859C102.867 39.2131 103.164 38.6548 103.164 37.387V20.5446H103.238H103.24ZM83.4186 16.5951C84.0885 17.8251 84.9836 19.464 85.468 20.3951L87.5553 19.5379C87.1447 18.569 86.2136 17.0417 85.5058 15.8873L83.4186 16.5951ZM92.5098 13.7261C92.137 12.6456 91.5409 11.1922 91.0942 10.0378L88.8214 10.6339C89.232 11.565 89.6408 12.7212 89.9758 13.7261H76.4507V15.8134H105.028V13.7261H92.5098Z" fill="white"/>
<path d="M123.771 33.9941C121.61 35.4097 117.437 36.6775 114.083 37.2359C114.568 37.6825 115.238 38.4659 115.574 39.062C119.002 38.2803 123.286 36.6037 125.635 34.8153L123.772 33.9959L123.771 33.9941ZM131.707 35.1486C134.837 36.303 138.973 37.9797 141.134 39.0242L142.625 37.497C140.352 36.4542 136.217 34.8892 133.125 33.8464L131.709 35.1503L131.707 35.1486ZM133.645 18.0467C133.199 19.0156 132.379 20.3573 131.707 21.2884L132.862 21.6612H123.808L125.15 21.2884C124.853 20.3934 124.181 19.0534 123.4 18.0467H133.645ZM129.584 30.3041V27.8457H139.83V25.9835H129.584V23.599H141.469V21.6252H133.942C134.65 20.8057 135.434 19.6873 136.215 18.6068L134.092 18.0107H142.625V15.9612H137.557C138.414 14.7312 139.495 12.9067 140.426 11.23L137.93 10.5601C137.371 12.0512 136.327 14.2106 135.396 15.5523L136.7 15.9629H132.75V10.1855H130.44V15.9973H126.528V10.1855H124.217V15.9973H120.23L121.869 15.3273C121.422 14.0234 120.23 11.9739 119.074 10.5205L117.024 11.2283C118.031 12.7195 119.148 14.6556 119.632 15.9973H114.305V18.0467H122.762L121.012 18.4934C121.682 19.4623 122.353 20.7284 122.688 21.6234H115.609V23.5973H127.158V25.944H117.286V27.8062H127.158V30.2646H114.193V32.314H127.158V40.1013H129.543V32.314H142.695V30.3023H129.581L129.584 30.3041Z" fill="white"/>
<path d="M169.971 20.3951C169.375 19.799 168.517 19.165 167.624 18.6067C168.332 17.9367 168.966 17.229 169.524 16.5195L167.809 15.9611C167.363 16.595 166.767 17.1912 166.171 17.7117C165.313 17.265 164.456 16.7428 163.637 16.4078L162.407 17.4884C163.152 17.8612 163.972 18.27 164.753 18.7545C163.784 19.4245 162.704 20.0584 161.623 20.5428C162.034 20.8778 162.742 21.5117 162.965 21.8089C164.046 21.2128 165.164 20.5428 166.244 19.6856C167.213 20.3556 168.033 20.9895 168.591 21.5856L169.969 20.3934L169.971 20.3951ZM169.859 14.5456C169.263 14.0989 168.481 13.5767 167.586 13.0183C168.256 12.3484 168.852 11.7144 169.375 11.0067L167.66 10.56C167.249 11.0823 166.691 11.6406 166.133 12.1628C165.276 11.7162 164.456 11.2678 163.674 10.9328L162.482 12.0134C163.19 12.3484 164.009 12.7211 164.793 13.2056C163.862 13.8395 162.893 14.4356 161.886 14.8823C162.297 15.1812 163.004 15.7773 163.264 16.0745C164.271 15.5523 165.313 14.8445 166.318 14.1006C167.213 14.659 168.069 15.2929 168.591 15.7773L169.857 14.5473L169.859 14.5456ZM154.621 23.7107H177.684V27.7718H180.069V21.8484H177.499C177.76 18.9417 178.057 14.695 178.206 11.4533H170.642V13.13H175.858L175.746 14.9184H170.792V16.595H175.635L175.485 18.3834H170.605V20.0601H175.373C175.3 20.7301 175.224 21.2901 175.188 21.8862H157.229L157.079 20.0601H161.625V18.3834H156.968L156.818 16.595H161.476V14.9184H156.707L156.557 13.3155C158.272 12.9806 160.208 12.57 161.625 12.0494L160.544 10.5583C158.942 11.0427 156.11 11.8244 154.21 12.1611L154.88 21.8862H152.273V27.8096H154.583L154.621 23.7107ZM180.701 31.6835H167.586V31.0874C170.194 30.0446 172.951 28.5535 175.001 27.0262L173.51 25.7962L173.025 25.9457H157.6V27.7718H170.417C168.852 28.7407 166.952 29.634 165.202 30.2679V31.6835H151.565V33.733H165.238V37.4213C165.238 37.868 165.088 37.9797 164.568 38.0175C164.083 38.0175 162.257 38.0175 160.209 37.9436C160.544 38.5775 160.917 39.3969 161.067 39.9931C163.674 39.9931 165.313 40.0309 166.358 39.6581C167.365 39.2853 167.624 38.727 167.624 37.4591V33.6969H180.739V31.6852H180.701V31.6835Z" fill="white"/>
<path d="M218.443 14.9923H208.906L211.029 14.0234C210.507 12.8689 209.39 11.2283 208.272 10.0361L206.222 10.9311C207.229 12.1611 208.272 13.8739 208.83 15.0301H200.558V17.3029H218.442V14.9923H218.443ZM210.991 19.2029C213.078 21.2523 215.537 24.2329 216.579 26.1707L218.368 24.6796C217.287 22.8174 214.753 19.9484 212.63 17.9728L210.991 19.2029ZM204.918 18.1223C203.764 20.4329 201.714 23.1902 199.591 24.9029C200.113 25.3135 200.895 25.9457 201.305 26.3941C203.467 24.4941 205.664 21.699 207.155 19.129L204.92 18.1223H204.918ZM199.964 27.1019C199.405 26.1329 196.872 21.8107 196.088 20.694V19.3901H199.777V17.0795H196.088V10.1855H193.853V17.1156H189.606V19.4262H193.406C192.475 23.934 190.538 29.1135 188.526 31.8708C188.973 32.4669 189.569 33.5097 189.83 34.1814C191.321 31.8708 192.773 28.1463 193.853 24.2707V40.1426H196.088V23.8979C196.983 25.6863 198.062 27.8474 198.473 28.9658L199.964 27.1036V27.1019ZM212.333 23.8601C211.625 26.4679 210.544 28.8146 209.053 30.8641C207.45 28.8146 206.184 26.5418 205.291 23.9718L203.204 24.5679C204.284 27.5863 205.738 30.3436 207.562 32.6902C205.401 35.0008 202.682 36.9008 199.366 38.3164C199.85 38.727 200.596 39.6203 200.893 40.1426C204.173 38.6514 206.892 36.7514 209.089 34.4786C211.362 36.8253 214.157 38.7253 217.361 39.8814C217.734 39.2114 218.442 38.2425 219 37.7942C215.758 36.7136 212.965 34.9252 210.654 32.6524C212.443 30.3058 213.784 27.5485 214.642 24.4185L212.331 23.8601H212.333Z" fill="white"/>
<path fill-rule="evenodd" clip-rule="evenodd" d="M16.169 25.1263L23.2108 18.0845L15.1263 10L7.04174 18.0845L0 25.1263L7.00394 32.0941L15.0885 40.1786L23.173 32.0941L16.169 25.1263Z" fill="white"/>
</svg>
