<svg width="722" height="150" viewBox="0 0 722 150" fill="none" xmlns="http://www.w3.org/2000/svg">
<g clip-path="url(#clip0_219_2)">
<path d="M90.6628 42.7926C82.4623 44.7663 76.6327 51.9744 76.0748 60.5842C75.8517 63.8736 76.3817 66.877 77.4137 69.5371V69.4799L77.86 69.0223L102.601 43.6507C99.0306 42.1919 94.9583 41.7343 90.6628 42.7926Z" fill="white"/>
<path d="M77.4697 78.6044L60.7897 95.7667L60.4271 96.1386L54.737 101.945L54.6533 102.088C57.331 103.146 60.2598 103.633 63.328 103.404C72.5326 102.632 80.0637 95.1088 80.9841 85.6982C81.291 82.3801 80.8447 79.1765 79.729 76.3447L77.4697 78.633V78.6044Z" fill="white"/>
<path d="M31 24V121.653H126.226V24H31ZM81.4302 75.7729C85.5305 79.7774 87.9292 85.6698 87.2598 92.1056C86.3672 101.402 78.9757 108.896 69.9105 109.811C63.2441 110.441 57.1914 107.58 53.2585 102.861L49.2419 98.7131L49.0745 98.5415L72.114 74.9147L76.2143 70.71C71.5004 66.4766 68.8785 59.6117 69.9105 52.5466C71.2772 43.3648 80.2029 35.6131 89.2123 35.7562C94.9861 35.842 99.8116 38.6737 103.8 42.7927L107.315 46.3968L107.817 46.9116L108.124 47.2263L80.8445 75.1436C81.0676 75.3724 81.235 75.544 81.4302 75.7729Z" fill="white"/>
<path d="M186.419 61.3279C186.921 62.6437 187.869 63.8736 189.236 64.9606C190.603 66.0475 192.472 67.0487 194.843 67.9354C197.241 68.8221 200.31 69.6802 204.047 70.4811C211.606 72.1973 217.185 74.6001 220.755 77.6607C224.325 80.7213 226.138 84.926 226.138 90.3035C226.138 93.2783 225.553 96.0243 224.409 98.4556C223.265 100.916 221.676 103.004 219.667 104.72C217.659 106.436 215.232 107.78 212.387 108.696C209.542 109.611 206.446 110.097 203.099 110.097C197.66 110.097 192.723 109.211 188.232 107.409C183.741 105.607 179.474 102.832 175.401 99.0849L180.143 93.3355C183.686 96.6536 187.284 99.1135 190.91 100.744C194.536 102.374 198.692 103.175 203.406 103.175C208.12 103.175 211.662 102.088 214.396 99.8858C217.129 97.7119 218.524 94.8229 218.524 91.2189C218.524 89.5598 218.273 88.0724 217.743 86.7853C217.241 85.4981 216.32 84.3253 215.037 83.267C213.754 82.2087 211.941 81.2361 209.654 80.378C207.367 79.5199 204.438 78.6904 200.868 77.8895C196.99 77.0314 193.587 76.0302 190.715 74.9147C187.842 73.7992 185.443 72.4262 183.574 70.8244C181.705 69.2226 180.311 67.3633 179.39 65.2466C178.47 63.1299 178.023 60.6128 178.023 57.6952C178.023 54.7776 178.581 52.3463 179.669 50.0294C180.757 47.7125 182.319 45.7102 184.327 43.994C186.335 42.3064 188.678 40.9906 191.384 40.0181C194.09 39.0456 197.074 38.5879 200.31 38.5879C205.275 38.5879 209.626 39.2744 213.336 40.7046C217.045 42.1062 220.644 44.2228 224.13 47.0546L219.667 53.1186C216.515 50.4585 213.336 48.542 210.128 47.3693C206.92 46.1679 203.601 45.5672 200.114 45.5672C197.911 45.5672 195.93 45.8533 194.145 46.4539C192.36 47.0546 190.854 47.8555 189.599 48.828C188.344 49.8292 187.367 51.0305 186.698 52.4035C186.029 53.8051 185.694 55.2925 185.694 56.8943C185.694 58.4961 185.945 60.0407 186.475 61.3851" fill="white"/>
<path d="M253 36.5571H245.524V109.096H253V36.5571Z" fill="white"/>
<path d="M281.171 93.6501C282.203 95.7954 283.514 97.626 285.132 99.1134C286.75 100.601 288.563 101.716 290.571 102.489C292.579 103.261 294.671 103.633 296.875 103.633C300.362 103.633 303.346 102.975 305.829 101.631C308.311 100.315 310.598 98.5414 312.662 96.3675L317.32 100.629C314.81 103.547 311.937 105.893 308.702 107.637C305.466 109.382 301.477 110.269 296.68 110.269C293.249 110.269 290.041 109.611 287.001 108.324C283.961 107.037 281.311 105.206 279.024 102.861C276.736 100.515 274.951 97.6832 273.584 94.3652C272.246 91.0472 271.576 87.4145 271.576 83.4386C271.576 79.7201 272.162 76.2304 273.361 72.941C274.561 69.6515 276.206 66.8197 278.354 64.3884C280.474 61.9571 283.012 60.0693 285.969 58.6677C288.898 57.2661 292.133 56.5796 295.62 56.5796C299.302 56.5796 302.593 57.2947 305.494 58.7249C308.395 60.1551 310.849 62.0715 312.858 64.5314C314.866 66.9914 316.372 69.8518 317.404 73.1698C318.436 76.4878 318.938 80.0347 318.938 83.8104V84.8973C318.938 85.2978 318.91 85.7269 318.854 86.1845H279.219C279.47 88.9591 280.111 91.4476 281.171 93.5929M311.323 80.5782C311.128 78.2613 310.654 76.0302 309.929 73.9135C309.204 71.7968 308.172 69.9376 306.833 68.3357C305.522 66.7339 303.904 65.4754 302.007 64.5028C300.111 63.5303 297.907 63.0726 295.397 63.0726C293.221 63.0726 291.185 63.5303 289.344 64.417C287.475 65.3037 285.857 66.5337 284.435 68.0783C283.012 69.6515 281.869 71.4822 280.976 73.5988C280.083 75.7155 279.498 78.0324 279.247 80.5496H311.323V80.5782Z" fill="white"/>
<path d="M342.898 93.6501C343.93 95.7954 345.241 97.626 346.859 99.1134C348.476 100.601 350.289 101.716 352.298 102.489C354.306 103.261 356.398 103.633 358.602 103.633C362.088 103.633 365.073 102.975 367.555 101.631C370.038 100.315 372.325 98.5414 374.389 96.3675L379.047 100.629C376.537 103.547 373.664 105.893 370.428 107.637C367.193 109.382 363.204 110.269 358.406 110.269C354.975 110.269 351.768 109.611 348.727 108.324C345.687 107.037 343.037 105.206 340.75 102.861C338.463 100.515 336.678 97.6832 335.311 94.3652C333.972 91.0472 333.303 87.4145 333.303 83.4386C333.303 79.7201 333.888 76.2304 335.088 72.941C336.287 69.6515 337.933 66.8197 340.081 64.3884C342.201 61.9571 344.739 60.0693 347.695 58.6677C350.624 57.2661 353.86 56.5796 357.346 56.5796C361.028 56.5796 364.32 57.2947 367.22 58.7249C370.121 60.1551 372.576 62.0715 374.584 64.5314C376.592 66.9914 378.099 69.8518 379.131 73.1698C380.163 76.4878 380.665 80.0347 380.665 83.8104V84.8973C380.665 85.2978 380.637 85.7269 380.581 86.1845H340.945C341.196 88.9591 341.838 91.4476 342.898 93.5929M373.022 80.5782C372.827 78.2613 372.353 76.0302 371.627 73.9135C370.902 71.7968 369.87 69.9376 368.531 68.3357C367.22 66.7339 365.603 65.4754 363.706 64.5028C361.809 63.5303 359.606 63.0726 357.095 63.0726C354.92 63.0726 352.883 63.5303 351.043 64.417C349.174 65.3037 347.556 66.5337 346.133 68.0783C344.711 69.6515 343.567 71.4822 342.675 73.5988C341.782 75.7155 341.196 78.0324 340.945 80.5496H373.022V80.5782Z" fill="white"/>
<path d="M442.587 109.096H433.661L415.754 85.155L405.573 95.6812V109.096H398.126V36.5571H405.573V86.6424L432.602 57.7239H441.918L420.887 79.7775L442.587 109.096Z" fill="white"/>
<path d="M465.542 61.3279C466.044 62.6437 466.993 63.8736 468.359 64.9606C469.726 66.0475 471.595 67.0487 473.966 67.9354C476.364 68.8221 479.433 69.6802 483.17 70.4811C490.729 72.1973 496.308 74.6001 499.878 77.6607C503.448 80.7213 505.261 84.926 505.261 90.3035C505.261 93.2783 504.676 96.0243 503.532 98.4556C502.389 100.916 500.799 103.004 498.79 104.72C496.782 106.436 494.355 107.78 491.51 108.696C488.665 109.611 485.569 110.097 482.222 110.097C476.783 110.097 471.846 109.211 467.355 107.409C462.864 105.607 458.597 102.832 454.524 99.0849L459.266 93.3355C462.809 96.6536 466.407 99.1135 470.033 100.744C473.659 102.374 477.815 103.175 482.529 103.175C487.243 103.175 490.785 102.088 493.519 99.8858C496.252 97.7119 497.647 94.8229 497.647 91.2189C497.647 89.5598 497.396 88.0724 496.866 86.7853C496.364 85.4981 495.443 84.3253 494.16 83.267C492.877 82.2087 491.064 81.2361 488.777 80.378C486.49 79.5199 483.561 78.6904 479.991 77.8895C476.113 77.0314 472.711 76.0302 469.838 74.9147C466.965 73.7992 464.566 72.4262 462.697 70.8244C460.828 69.2226 459.434 67.3633 458.513 65.2466C457.593 63.1299 457.146 60.6128 457.146 57.6952C457.146 54.7776 457.704 52.3463 458.792 50.0294C459.88 47.7125 461.442 45.7102 463.45 43.994C465.458 42.3064 467.801 40.9906 470.507 40.0181C473.213 39.0456 476.197 38.5879 479.433 38.5879C484.398 38.5879 488.749 39.2744 492.459 40.7046C496.168 42.1062 499.767 44.2228 503.253 47.0546L498.79 53.1186C495.638 50.4585 492.459 48.542 489.251 47.3693C486.043 46.1679 482.724 45.5672 479.237 45.5672C477.034 45.5672 475.054 45.8533 473.268 46.4539C471.483 47.0546 469.977 47.8555 468.722 48.828C467.467 49.8292 466.49 51.0305 465.821 52.4035C465.152 53.8051 464.817 55.2925 464.817 56.8943C464.817 58.4961 465.068 60.0407 465.598 61.3851" fill="white"/>
<path d="M533.573 94.4799C533.573 97.6549 534.354 99.886 535.889 101.145C537.423 102.403 539.459 103.032 541.997 103.032C543.28 103.032 544.507 102.889 545.623 102.632C546.739 102.375 547.966 101.917 549.249 101.23V107.781C547.966 108.496 546.572 109.068 545.121 109.411C543.671 109.783 542.025 109.955 540.24 109.955C538.232 109.955 536.363 109.697 534.633 109.154C532.904 108.61 531.398 107.781 530.115 106.608C528.86 105.464 527.883 103.948 527.158 102.089C526.433 100.229 526.098 98.0268 526.098 95.4238V64.4173H519.125V57.6668H526.098V42.1636H533.573V57.6668H549.472V64.4173H533.573V94.4227V94.4799Z" fill="white"/>
<path d="M574.436 109.096H566.961V57.7238H574.436V71.139C575.329 69.0223 576.472 67.0773 577.839 65.2752C579.206 63.4732 580.74 61.9286 582.497 60.6414C584.227 59.3542 586.151 58.3817 588.215 57.7238C590.279 57.0659 592.511 56.7513 594.91 56.8371V65.075H594.324C591.618 65.075 589.052 65.5899 586.625 66.5624C584.199 67.5635 582.079 69.0509 580.294 71.0246C578.481 73.0269 577.058 75.4868 576.026 78.433C574.994 81.3792 574.492 84.783 574.492 88.6159V109.096H574.436Z" fill="white"/>
<path d="M610.78 38.0444H619.315V46.4826H610.78V38.0444ZM611.254 57.7238H618.73V109.096H611.254V57.7238Z" fill="white"/>
<path d="M688.964 94.68C687.597 97.9981 685.812 100.773 683.581 103.09C681.349 105.378 678.811 107.123 675.938 108.353C673.065 109.583 670.109 110.183 667.068 110.183C664.753 110.183 662.605 109.897 660.681 109.297C658.728 108.696 656.999 107.895 655.437 106.922C653.875 105.921 652.48 104.777 651.225 103.433C649.97 102.117 648.854 100.715 647.878 99.2567V125H640.431V57.7239H647.878V68.0499C648.91 66.5339 650.054 65.0751 651.309 63.6735C652.564 62.272 653.987 61.0706 655.521 60.0409C657.083 59.0111 658.784 58.1816 660.709 57.5523C662.605 56.923 664.725 56.6084 667.04 56.6084C670.025 56.6084 672.926 57.2091 675.799 58.4104C678.672 59.6118 681.238 61.328 683.497 63.6163C685.756 65.9046 687.57 68.7078 688.936 72.0258C690.303 75.3439 690.972 79.1196 690.972 83.3529C690.972 87.5863 690.303 91.362 688.936 94.68M681.935 75.2581C680.987 72.8268 679.732 70.7101 678.114 68.9652C676.496 67.2204 674.627 65.876 672.507 64.9607C670.388 64.0454 668.1 63.5591 665.729 63.5591C663.359 63.5591 661.155 64.0454 659.007 64.9893C656.832 65.9332 654.907 67.2776 653.206 68.9938C651.504 70.7101 650.137 72.7981 649.133 75.2295C648.129 77.6608 647.627 80.3782 647.627 83.3243C647.627 86.2705 648.129 89.0165 649.133 91.4764C650.137 93.9364 651.504 96.053 653.206 97.7693C654.907 99.4855 656.86 100.83 659.007 101.774C661.183 102.718 663.414 103.204 665.729 103.204C668.045 103.204 670.388 102.775 672.563 101.86C674.711 100.973 676.608 99.6857 678.17 97.9981C679.76 96.3105 681.015 94.251 681.935 91.7625C682.884 89.3025 683.33 86.4994 683.33 83.4102C683.33 80.3209 682.856 77.6322 681.935 75.2009" fill="white"/>
</g>
<defs>
<clipPath id="clip0_219_2">
<rect width="660" height="101" fill="white" transform="translate(31 24)"/>
</clipPath>
</defs>
</svg>
