<svg width="441" height="76" viewBox="0 0 441 76" fill="none" xmlns="http://www.w3.org/2000/svg">
<path d="M5.97931 9.18365H5.87041V32.1575H0.833557V0.438599H7.88515L13.5482 19.4265H13.6571V0.438599H18.6667V32.1575H12.8948L5.97931 9.18365Z" fill="#2EA7E0"/>
<path d="M45.9747 32.1575H40.3116L39.3315 26.408H32.4432L31.4631 32.1575H26.3173L32.0348 0.438599H40.2572L45.9747 32.1575ZM33.1511 22.108H38.5691L35.9282 6.06732H35.8193L33.1783 22.108H33.1511Z" fill="#2EA7E0"/>
<path d="M60.8402 26.3114H60.9491L65.1964 0.438599H70.3421L64.8424 32.1575H56.4567L50.9298 0.438599H56.5929L60.8402 26.3114Z" fill="#2EA7E0"/>
<path d="M78.0744 0.438599H83.683V32.1575H78.0744V0.438599Z" fill="#2EA7E0"/>
<path d="M101.298 14.4742H109.167V24.5237C109.167 29.5968 106.308 32.4958 100.781 32.4958C95.2541 32.4958 92.3954 29.5968 92.3954 24.5237V8.04824C92.3954 2.97515 95.2541 0.0762329 100.781 0.0762329C106.308 0.0762329 109.167 2.97515 109.167 8.04824V11.1163H103.858V7.71004C103.858 5.43922 102.741 4.59371 100.944 4.59371C99.1475 4.59371 98.0312 5.46338 98.0312 7.71004V24.8378C98.0312 27.1086 99.1475 27.93 100.944 27.93C102.741 27.93 103.858 27.1086 103.858 24.8378V18.9916H101.298V14.4742Z" fill="#2EA7E0"/>
<path d="M136.039 32.1575H130.376L129.396 26.408H122.508L121.527 32.1575H116.382L122.099 0.438599H130.322L136.039 32.1575ZM123.215 22.108H128.633L125.993 6.06732H125.884L123.243 22.108H123.215Z" fill="#2EA7E0"/>
<path d="M140.177 0.438599H157.521V4.98023H151.64V32.1575H146.031V4.98023H140.15V0.438599H140.177Z" fill="#2EA7E0"/>
<path d="M170.725 13.7978H178.43V18.3152H170.725V27.5918H180.418V32.1092H165.117V0.438599H180.418V4.98023H170.725V13.8219V13.7978Z" fill="#2EA7E0"/>
<path d="M200.402 0.438599H217.745V4.98023H211.864V32.1575H206.255V4.98023H200.375V0.438599H200.402Z" fill="#2EA7E0"/>
<path d="M230.95 32.1575H225.341V0.438599H230.95V14.0393H237.321V0.438599H243.038V32.1575H237.321V18.5568H230.95V32.1575Z" fill="#2EA7E0"/>
<path d="M257.876 13.7978H265.581V18.3152H257.876V27.5918H267.569V32.1092H252.268V0.438599H267.569V4.98023H257.876V13.8219V13.7978Z" fill="#2EA7E0"/>
<path d="M294.795 14.5225H302.037V19.04H294.795V32.1334H289.187V0.438599H304.052V4.98023H294.822V14.5466L294.795 14.5225Z" fill="#2EA7E0"/>
<path d="M317.23 0.438599V24.9103C317.23 27.1811 318.346 27.9783 320.143 27.9783C321.94 27.9783 323.056 27.1569 323.056 24.9103V0.438599H328.365V24.5721C328.365 29.6452 325.506 32.5441 319.979 32.5441C314.452 32.5441 311.594 29.6452 311.594 24.5721V0.438599H317.202H317.23Z" fill="#2EA7E0"/>
<path d="M335.662 0.438599H353.032V4.98023H347.151V32.1575H341.543V4.98023H335.662V0.438599Z" fill="#2EA7E0"/>
<path d="M365.964 0.438599V24.9103C365.964 27.1811 367.081 27.9783 368.878 27.9783C370.675 27.9783 371.791 27.1569 371.791 24.9103V0.438599H377.1V24.5721C377.1 29.6452 374.241 32.5441 368.714 32.5441C363.187 32.5441 360.329 29.6452 360.329 24.5721V0.438599H365.937H365.964Z" fill="#2EA7E0"/>
<path d="M397.792 32.1575C397.493 31.3362 397.275 30.853 397.275 28.2682V23.2917C397.275 20.3445 396.158 19.2574 393.599 19.2574H391.666V32.1575H386.057V0.438599H394.525C400.351 0.438599 402.856 2.8302 402.856 7.7342V10.2224C402.856 13.4837 401.685 15.5613 399.181 16.6V16.6967C401.985 17.7354 402.91 20.1029 402.91 23.4125V28.3165C402.91 29.8626 402.965 30.998 403.537 32.1575H397.819H397.792ZM391.666 4.98023V14.7157H393.871C395.968 14.7157 397.247 13.8944 397.247 11.3578V8.24151C397.247 5.97069 396.376 4.98023 394.389 4.98023H391.693H391.666Z" fill="#2EA7E0"/>
<path d="M417.286 13.7978H424.991V18.3152H417.286V27.5918H426.978V32.1092H411.677V0.438599H426.978V4.98023H417.286V13.8219V13.7978Z" fill="#2EA7E0"/>
<path d="M441 10.0775V14.8849H435.582V10.0775H441ZM441 27.326V32.1334H435.582V27.326H441Z" fill="#2EA7E0"/>
<path d="M11.7345 75.1963C11.435 74.3749 11.2172 73.8918 11.2172 71.3069V66.3305C11.2172 63.3832 10.1009 62.2961 7.54168 62.2961H5.6086V75.1963H0V43.4774H8.46736C14.2938 43.4774 16.7986 45.869 16.7986 50.773V53.2612C16.7986 56.5225 15.6278 58.6 13.123 59.6388V59.7354C15.9273 60.7742 16.853 63.1417 16.853 66.4512V71.3552C16.853 72.9013 16.9075 74.0367 17.4792 75.1963H11.7617H11.7345ZM5.6086 48.019V57.7545H7.81391C9.91033 57.7545 11.19 56.9331 11.19 54.3966V51.2803C11.19 49.0094 10.3187 48.019 8.33122 48.019H5.63581H5.6086Z" fill="#2EA7E0"/>
<path d="M31.2557 56.8365H38.9607V61.354H31.2557V70.6305H40.9482V75.148H25.6471V43.4774H40.9482V48.019H31.2557V56.8607V56.8365Z" fill="#2EA7E0"/>
<path d="M57.1206 43.115C62.593 43.115 65.3974 46.0139 65.3974 51.087V52.0775H60.0882V50.773C60.0882 48.5021 59.0808 47.6566 57.2839 47.6566C55.487 47.6566 54.4796 48.5263 54.4796 50.773C54.4796 53.0196 55.5959 54.8073 59.2715 57.6579C63.9816 61.3298 65.4518 63.963 65.4518 67.5867C65.4518 72.6598 62.593 75.5587 57.0661 75.5587C51.5392 75.5587 48.6805 72.6598 48.6805 67.5867V65.6299H53.9896V67.9007C53.9896 70.1715 55.1058 70.9929 56.9027 70.9929C58.6997 70.9929 59.816 70.1715 59.816 67.9007C59.816 65.6299 58.6997 63.8664 55.0241 61.0158C50.314 57.3438 48.8438 54.7106 48.8438 51.087C48.8438 46.0139 51.6481 43.115 57.1206 43.115Z" fill="#2EA7E0"/>
<path d="M81.1068 62.5377L79.3644 65.4366V75.1721H73.7558V43.4774H79.3644V57.1989H79.4733L86.7154 43.4774H92.3241L84.5101 57.6096L92.3241 75.1963H86.5521L81.0796 62.5619L81.1068 62.5377Z" fill="#2EA7E0"/>
<path d="M100.029 43.4774H105.638V75.1963H100.029V43.4774Z" fill="#2EA7E0"/>
<path d="M114.84 43.4774H120.449V70.6547H129.678V75.1721H114.813V43.4774H114.84Z" fill="#2EA7E0"/>
<path d="M137.247 43.4774H142.856V70.6547H152.086V75.1721H137.22V43.4774H137.247Z" fill="#2EA7E0"/>
<path d="M172.723 43.4774H178.332V75.1963H172.723V43.4774Z" fill="#2EA7E0"/>
<path d="M192.626 52.2224H192.517V75.1963H187.453V43.4774H194.504L200.167 62.4652H200.276V43.4774H205.286V75.1963H199.514L192.626 52.2224Z" fill="#2EA7E0"/>
<path d="M225.841 43.4774H243.212V48.019H237.331V75.1963H231.722V48.019H225.841V43.4774Z" fill="#2EA7E0"/>
<path d="M256.362 75.1963H250.753V43.4774H256.362V57.0781H262.76V43.4774H268.478V75.1963H262.76V61.5956H256.362V75.1963Z" fill="#2EA7E0"/>
<path d="M283.289 56.8365H290.994V61.354H283.289V70.6305H292.981V75.148H277.68V43.4774H292.981V48.019H283.289V56.8607V56.8365Z" fill="#2EA7E0"/>
<path d="M332.786 75.1963H327.123L326.143 69.4468H319.255L318.275 75.1963H313.129L318.846 43.4774H327.069L332.786 75.1963ZM319.963 65.1467H325.381L322.712 49.1061H322.604L319.935 65.1467H319.963Z" fill="#2EA7E0"/>
<path d="M340.518 43.4774H346.127V75.1963H340.518V43.4774Z" fill="#2EA7E0"/>
<path d="M386.531 75.1963H380.868L379.887 69.4468H372.999L372.019 75.1963H366.873L372.591 43.4774H380.813L386.531 75.1963ZM373.707 65.1467H379.125L376.457 49.1061H376.348L373.68 65.1467H373.707Z" fill="#2EA7E0"/>
<path d="M402.621 57.5129H410.49V67.5625C410.49 72.6356 407.631 75.5345 402.104 75.5345C396.577 75.5345 393.718 72.6356 393.718 67.5625V51.087C393.718 46.0139 396.577 43.115 402.104 43.115C407.631 43.115 410.49 46.0139 410.49 51.087V54.155H405.181V50.7488C405.181 48.478 404.064 47.6325 402.267 47.6325C400.471 47.6325 399.354 48.5021 399.354 50.7488V67.8765C399.354 70.1474 400.471 70.9687 402.267 70.9687C404.064 70.9687 405.181 70.1474 405.181 67.8765V62.0304H402.621V57.5129Z" fill="#2EA7E0"/>
<path d="M424.838 56.8365H432.543V61.354H424.838V70.6305H434.53V75.148H419.229V43.4774H434.53V48.019H424.838V56.8607V56.8365Z" fill="#2EA7E0"/>
</svg>
