<svg width="839" height="150" viewBox="0 0 839 150" fill="none" xmlns="http://www.w3.org/2000/svg">
<g clip-path="url(#clip0_206_225)">
<path d="M322.055 93.8506C322.583 93.8506 322.849 94.0817 322.849 94.5324C322.832 94.9888 322.565 95.2142 322.055 95.2142H314.446V114.738C314.446 115.263 314.214 115.529 313.762 115.529C313.304 115.512 313.078 115.246 313.078 114.738V95.2142H305.55C304.999 95.2142 304.727 94.9888 304.727 94.5324C304.727 94.0759 304.999 93.8506 305.55 93.8506H322.061H322.055Z" fill="white"/>
<path d="M338.776 110.641C338.776 112.062 338.839 112.998 338.967 113.455C339.094 113.946 339.378 114.189 339.813 114.189C340.34 114.189 340.607 114.414 340.607 114.87C340.59 115.327 340.323 115.552 339.813 115.552C338.752 115.552 338.08 115.09 337.785 114.16C337.674 113.796 337.593 113.414 337.535 113.016C337.24 113.49 336.921 113.888 336.579 114.218C335.391 115.292 333.484 115.83 330.853 115.83C329.335 115.83 328.158 115.414 327.318 114.576C326.477 113.738 326.06 112.64 326.06 111.271C326.077 110.231 326.396 109.358 327.016 108.648C327.805 107.769 328.969 107.134 330.523 106.735C332.441 106.227 334.725 105.834 337.367 105.562V106.926C333.293 107.452 330.644 108.001 329.427 108.567C328.094 109.202 327.428 110.104 327.428 111.271C327.428 112.218 327.671 112.946 328.164 113.455C328.842 114.131 330.007 114.466 331.67 114.466C333.809 114.466 335.321 114.027 336.214 113.154C336.817 112.536 337.211 111.727 337.39 110.722V104.909C337.39 103.546 337.025 102.552 336.295 101.934C335.49 101.264 334.261 100.923 332.598 100.923C331.027 100.923 329.792 101.206 328.9 101.772C328.06 102.356 327.642 103.176 327.642 104.228C327.642 104.753 327.41 105.019 326.958 105.019C326.501 105.002 326.275 104.736 326.275 104.228C326.275 102.754 326.877 101.57 328.083 100.68C329.12 99.9346 330.627 99.5591 332.598 99.5591C334.585 99.5764 336.11 100.004 337.17 100.842C338.225 101.732 338.758 103.089 338.758 104.909V110.641H338.776Z" fill="white"/>
<path d="M347.382 94.0412C347.585 94.2607 347.684 94.515 347.684 94.8039C347.684 95.1505 347.591 95.4163 347.411 95.5954C347.226 95.7803 346.971 95.867 346.646 95.867C346.322 95.867 346.09 95.7745 345.904 95.5954C345.702 95.3585 345.603 95.0927 345.603 94.8039C345.62 94.4572 345.725 94.1972 345.904 94.0123C346.107 93.8332 346.351 93.7407 346.646 93.7407C346.953 93.7581 347.203 93.8621 347.382 94.0412ZM345.957 100.431C345.957 99.8826 346.183 99.611 346.64 99.611C347.098 99.611 347.324 99.8826 347.324 100.431V114.951C347.324 115.483 347.092 115.743 346.64 115.743C346.183 115.725 345.957 115.46 345.957 114.951V100.431Z" fill="white"/>
<path d="M360.237 102.535C360.382 101.951 360.538 101.489 360.701 101.142C360.828 100.813 361.118 100.651 361.576 100.651C362.034 100.668 362.323 100.824 362.451 101.113C362.619 101.46 362.781 101.934 362.943 102.535L366.201 114.027L370.089 100.512C370.182 100.183 370.292 99.9288 370.42 99.7497C370.547 99.6052 370.727 99.5417 370.965 99.559C371.22 99.5937 371.405 99.6803 371.509 99.8074C371.637 99.9923 371.666 100.223 371.591 100.518L367.673 114.033C367.51 114.524 367.337 114.969 367.151 115.373C366.971 115.737 366.647 115.916 366.195 115.916C365.743 115.916 365.418 115.743 365.291 115.396C365.128 114.997 364.978 114.541 364.85 114.033L361.564 102.54L358.278 114.033C358.133 114.541 357.977 114.992 357.814 115.373C357.669 115.737 357.368 115.916 356.91 115.916C356.4 115.916 356.064 115.725 355.896 115.344C355.734 114.98 355.583 114.541 355.456 114.033L351.538 100.518C351.462 100.281 351.48 100.073 351.596 99.8883C351.706 99.6861 351.868 99.5763 352.088 99.559C352.326 99.5243 352.511 99.5705 352.639 99.6977C352.807 99.8421 352.94 100.119 353.05 100.518L356.91 114.033L360.225 102.54L360.237 102.535Z" fill="white"/>
<path d="M386.949 110.641C386.949 112.062 387.013 112.998 387.14 113.455C387.268 113.946 387.552 114.189 387.992 114.189C388.52 114.189 388.786 114.414 388.786 114.87C388.769 115.327 388.502 115.552 387.992 115.552C386.932 115.552 386.254 115.09 385.964 114.16C385.854 113.796 385.773 113.414 385.72 113.016C385.425 113.49 385.106 113.888 384.758 114.218C383.57 115.292 381.663 115.83 379.032 115.83C377.514 115.83 376.337 115.414 375.497 114.576C374.657 113.738 374.239 112.64 374.239 111.271C374.257 110.231 374.575 109.358 375.196 108.648C375.978 107.769 377.149 107.134 378.702 106.735C380.62 106.227 382.898 105.834 385.546 105.562V106.926C381.478 107.452 378.829 108.001 377.607 108.567C376.274 109.202 375.607 110.104 375.607 111.271C375.607 112.218 375.856 112.946 376.349 113.455C377.021 114.131 378.192 114.466 379.855 114.466C381.994 114.466 383.506 114.027 384.399 113.154C385.002 112.536 385.396 111.727 385.581 110.722V104.909C385.581 103.546 385.216 102.552 384.486 101.934C383.68 101.264 382.452 100.923 380.788 100.923C379.218 100.923 377.989 101.206 377.091 101.772C376.25 102.356 375.833 103.176 375.833 104.228C375.833 104.753 375.607 105.019 375.149 105.019C374.691 105.002 374.465 104.736 374.465 104.228C374.465 102.754 375.068 101.57 376.274 100.68C377.317 99.9346 378.818 99.5591 380.788 99.5591C382.776 99.5764 384.306 100.004 385.361 100.842C386.416 101.732 386.949 103.089 386.949 104.909V110.641Z" fill="white"/>
<path d="M394.141 100.431C394.141 99.8823 394.367 99.6108 394.825 99.6108C395.283 99.6108 395.509 99.8823 395.509 100.431V102.534C396.112 101.621 396.72 100.969 397.346 100.57C398.366 99.8765 399.653 99.5356 401.206 99.5356C402.319 99.553 403.316 99.7899 404.191 100.246C405.014 100.668 405.651 101.24 406.109 101.968C406.671 102.823 406.955 104.135 406.955 105.897V114.963C406.955 115.494 406.729 115.754 406.271 115.754C405.813 115.737 405.587 115.471 405.587 114.963V105.897C405.587 104.169 405.193 102.916 404.411 102.13C403.571 101.275 402.296 100.847 400.58 100.847C399.502 100.865 398.61 101.101 397.897 101.558C397.022 102.141 396.419 102.823 396.088 103.603C395.775 104.297 395.584 105.129 395.515 106.117V114.963C395.515 115.494 395.283 115.754 394.831 115.754C394.373 115.737 394.147 115.471 394.147 114.963V100.443L394.141 100.431Z" fill="white"/>
<path d="M424.151 93.8506H430.393C433.859 93.8506 436.397 94.7808 438.002 96.6355C439.666 98.5307 440.494 100.957 440.494 103.927C440.477 107.787 439.666 110.728 438.06 112.744C436.524 114.674 433.951 115.639 430.335 115.639H424.313C423.345 115.622 422.864 115.165 422.864 114.275V95.2199C422.882 94.3128 423.311 93.8564 424.151 93.8564V93.8506ZM424.203 114.27H430.335C433.441 114.27 435.673 113.443 437.046 111.785C438.437 110.109 439.127 107.486 439.127 103.921C439.127 101.339 438.414 99.1893 436.988 97.4791C435.707 95.9711 433.511 95.2142 430.387 95.2142H424.197V114.27H424.203Z" fill="white"/>
<path d="M447.658 94.0412C447.861 94.2607 447.959 94.515 447.959 94.8039C447.959 95.1505 447.866 95.4163 447.687 95.5954C447.507 95.7803 447.246 95.867 446.922 95.867C446.609 95.867 446.365 95.7745 446.18 95.5954C445.977 95.3585 445.878 95.0927 445.878 94.8039C445.896 94.4572 446 94.1972 446.18 94.0123C446.383 93.8332 446.626 93.7407 446.922 93.7407C447.235 93.7581 447.478 93.8621 447.663 94.0412H447.658ZM446.232 100.431C446.232 99.8826 446.458 99.611 446.916 99.611C447.374 99.611 447.6 99.8826 447.6 100.431V114.951C447.6 115.483 447.368 115.743 446.916 115.743C446.458 115.725 446.232 115.46 446.232 114.951V100.431Z" fill="white"/>
<path d="M452.955 103.488C453.506 102.327 454.282 101.379 455.285 100.651C456.311 99.9231 457.597 99.5591 459.15 99.5591C460.993 99.5764 462.419 100.252 463.422 101.581C463.914 102.257 464.28 102.876 464.517 103.436V100.432C464.517 99.8826 464.743 99.6111 465.201 99.6111C465.659 99.6111 465.885 99.8826 465.885 100.432V115.119C465.868 116.771 465.601 118.048 465.091 118.938C464.436 119.995 463.63 120.77 462.68 121.261C461.695 121.752 460.368 122 458.71 122C457.139 122 455.824 121.677 454.763 121.018C453.616 120.307 452.862 119.233 452.52 117.794C452.393 117.228 452.584 116.922 453.094 116.864C453.459 116.812 453.726 117.118 453.888 117.794C454.201 118.707 454.746 119.406 455.534 119.897C456.334 120.388 457.394 120.637 458.71 120.637C460.646 120.637 462.089 120.192 463.034 119.296C464.019 118.389 464.511 116.95 464.511 114.986V111.843C464.256 112.351 463.874 112.998 463.364 113.784C462.413 115.148 461.011 115.83 459.145 115.83C457.684 115.83 456.45 115.518 455.447 114.905C454.531 114.374 453.766 113.53 453.146 112.369C452.509 111.184 452.19 109.63 452.19 107.7C452.19 105.99 452.445 104.586 452.955 103.494V103.488ZM453.558 107.694C453.558 109.838 454.085 111.525 455.146 112.744C456.148 113.888 457.481 114.466 459.145 114.466C460.808 114.466 462.025 113.802 463.034 112.473C463.799 111.456 464.181 109.925 464.181 107.885C464.181 105.591 463.677 103.812 462.674 102.535C461.851 101.46 460.675 100.923 459.145 100.923C457.429 100.923 456.067 101.524 455.065 102.725C454.062 103.996 453.558 105.655 453.558 107.694Z" fill="white"/>
<path d="M472.55 94.0412C472.753 94.2607 472.852 94.515 472.852 94.8039C472.852 95.1505 472.759 95.4163 472.579 95.5954C472.4 95.7803 472.145 95.867 471.814 95.867C471.501 95.867 471.258 95.7745 471.072 95.5954C470.87 95.3585 470.771 95.0927 470.771 94.8039C470.788 94.4572 470.887 94.1972 471.072 94.0123C471.275 93.8332 471.519 93.7407 471.814 93.7407C472.127 93.7581 472.371 93.8621 472.556 94.0412H472.55ZM471.125 100.431C471.125 99.8826 471.351 99.611 471.808 99.611C472.266 99.611 472.492 99.8826 472.492 100.431V114.951C472.492 115.483 472.266 115.743 471.808 115.743C471.351 115.725 471.125 115.46 471.125 114.951V100.431Z" fill="white"/>
<path d="M481.186 111.733C481.186 112.767 481.331 113.518 481.626 113.969C481.951 114.442 483.168 114.541 485.266 114.269C485.868 114.159 486.228 114.304 486.332 114.708C486.46 115.199 486.268 115.506 485.758 115.638C484.901 115.766 483.944 115.829 482.884 115.829C481.823 115.829 481.07 115.529 480.612 114.928C480.084 114.234 479.818 113.171 479.818 111.733V101.876H477.488C476.943 101.876 476.665 101.644 476.665 101.194C476.665 100.743 476.937 100.512 477.488 100.512H479.818V96.716C479.818 96.1728 480.044 95.8955 480.502 95.8955C480.96 95.8955 481.186 96.1671 481.186 96.716V100.512H485.185C485.712 100.512 485.979 100.737 485.979 101.194C485.961 101.644 485.695 101.876 485.185 101.876H481.186V111.733Z" fill="white"/>
<path d="M502.09 110.641C502.09 112.062 502.154 112.998 502.282 113.455C502.409 113.946 502.693 114.189 503.133 114.189C503.661 114.189 503.927 114.414 503.927 114.87C503.91 115.327 503.644 115.552 503.133 115.552C502.073 115.552 501.395 115.09 501.105 114.16C500.995 113.796 500.914 113.414 500.862 113.016C500.566 113.49 500.247 113.888 499.905 114.218C498.717 115.292 496.81 115.83 494.179 115.83C492.667 115.83 491.484 115.414 490.65 114.576C489.809 113.738 489.392 112.64 489.392 111.271C489.409 110.231 489.728 109.358 490.348 108.648C491.131 107.769 492.301 107.134 493.855 106.735C495.767 106.227 498.051 105.834 500.699 105.562V106.926C496.625 107.452 493.982 108.001 492.754 108.567C491.421 109.202 490.754 110.104 490.754 111.271C490.754 112.218 490.997 112.946 491.49 113.455C492.168 114.131 493.333 114.466 494.996 114.466C497.135 114.466 498.648 114.027 499.54 113.154C500.143 112.536 500.537 111.727 500.717 110.722V104.909C500.717 103.546 500.352 102.552 499.621 101.934C498.816 101.264 497.587 100.923 495.924 100.923C494.353 100.923 493.124 101.206 492.226 101.772C491.386 102.356 490.969 103.176 490.969 104.228C490.969 104.753 490.742 105.019 490.285 105.019C489.827 105.002 489.601 104.736 489.601 104.228C489.601 102.754 490.203 101.57 491.409 100.68C492.452 99.9346 493.953 99.5591 495.93 99.5591C497.917 99.5764 499.447 100.004 500.502 100.842C501.563 101.732 502.09 103.089 502.09 104.909V110.641Z" fill="white"/>
<path d="M509.277 94.5089C509.277 93.96 509.503 93.6885 509.961 93.6885C510.419 93.6885 510.645 93.96 510.645 94.5089V114.957C510.645 115.488 510.413 115.748 509.961 115.748C509.503 115.731 509.277 115.465 509.277 114.957V94.5089Z" fill="white"/>
<path d="M526.855 95.2428C526.855 94.3473 527.301 93.9024 528.2 93.9024H541.564C542.126 93.833 542.41 94.0468 542.41 94.5553C542.41 95.0117 542.126 95.2371 541.564 95.2371H528.2V103.863H540.66C541.188 103.811 541.454 104.025 541.454 104.522C541.437 104.979 541.17 105.204 540.66 105.204H528.2V114.16H541.564C542.126 114.09 542.41 114.321 542.41 114.87C542.41 115.361 542.126 115.61 541.564 115.61H528.2C527.301 115.61 526.855 115.165 526.855 114.275V95.2486V95.2428Z" fill="white"/>
<path d="M548.067 100.431C548.067 99.8823 548.293 99.6108 548.751 99.6108C549.209 99.6108 549.435 99.8823 549.435 100.431V102.534C550.037 101.621 550.646 100.969 551.272 100.57C552.292 99.8765 553.579 99.5356 555.132 99.5356C556.245 99.553 557.241 99.7899 558.116 100.246C558.939 100.668 559.577 101.24 560.035 101.968C560.597 102.823 560.881 104.135 560.881 105.897V114.963C560.881 115.494 560.655 115.754 560.197 115.754C559.739 115.737 559.513 115.471 559.513 114.963V105.897C559.513 104.169 559.119 102.916 558.337 102.13C557.496 101.275 556.216 100.847 554.5 100.847C553.422 100.865 552.53 101.101 551.817 101.558C550.942 102.141 550.339 102.823 550.008 103.603C549.695 104.297 549.504 105.129 549.435 106.117V114.963C549.435 115.494 549.209 115.754 548.751 115.754C548.293 115.737 548.067 115.471 548.067 114.963V100.443V100.431Z" fill="white"/>
<path d="M569.412 111.733C569.412 112.767 569.557 113.518 569.853 113.969C570.183 114.442 571.394 114.541 573.492 114.269C574.095 114.159 574.449 114.304 574.559 114.708C574.686 115.199 574.495 115.506 573.985 115.638C573.127 115.766 572.171 115.829 571.11 115.829C570.05 115.829 569.296 115.529 568.838 114.928C568.305 114.234 568.044 113.171 568.044 111.733V101.876H565.72C565.17 101.876 564.897 101.644 564.897 101.194C564.897 100.743 565.17 100.512 565.72 100.512H568.044V96.716C568.044 96.1728 568.27 95.8955 568.728 95.8955C569.186 95.8955 569.412 96.1671 569.412 96.716V100.512H573.411C573.939 100.512 574.205 100.737 574.205 101.194C574.188 101.644 573.921 101.876 573.411 101.876H569.412V111.733Z" fill="white"/>
<path d="M581.09 112.906C582.076 113.998 583.554 114.547 585.53 114.547C586.66 114.529 587.61 114.217 588.376 113.616C589.071 113.067 589.535 112.432 589.772 111.704C589.975 111.051 590.219 110.693 590.514 110.641C590.804 110.606 591.042 110.675 591.227 110.86C591.43 111.097 591.476 111.38 591.366 111.71C591.001 112.987 590.317 114.015 589.314 114.795C588.347 115.546 587.089 115.916 585.536 115.916C583.015 115.916 581.143 115.205 579.92 113.79C578.604 112.276 577.949 110.34 577.949 107.977C577.949 105.244 578.633 103.147 580.001 101.673C581.299 100.269 582.957 99.5703 584.985 99.5703C587.176 99.5703 588.903 100.373 590.161 101.974C591.291 103.378 591.859 104.978 591.859 106.781C591.841 107.763 591.354 108.254 590.41 108.254H579.404C579.439 110.167 580.007 111.721 581.102 112.923L581.09 112.906ZM590.398 106.793C590.381 105.337 589.923 104.037 589.03 102.887C587.987 101.575 586.637 100.922 584.979 100.922C583.409 100.922 582.093 101.477 581.038 102.586C580.123 103.569 579.589 104.973 579.421 106.793H590.404H590.398Z" fill="white"/>
<path d="M596.489 100.431C596.489 99.8826 596.715 99.611 597.173 99.611C597.631 99.611 597.857 99.8826 597.857 100.431V103.569C598.077 103.187 598.321 102.823 598.599 102.477C599.967 100.53 601.647 99.5532 603.641 99.5532C605.102 99.5532 606.324 100.027 607.31 100.975C607.785 101.448 607.878 101.847 607.588 102.176C607.258 102.5 606.846 102.442 606.353 101.986C605.571 101.24 604.597 100.865 603.45 100.865C602.082 100.882 600.813 101.581 599.642 102.968C598.581 104.17 597.985 105.262 597.863 106.244V114.951C597.863 115.483 597.637 115.743 597.179 115.743C596.721 115.725 596.495 115.46 596.495 114.951V100.431H596.489Z" fill="white"/>
<path d="M611.512 99.6111C611.969 99.6111 612.195 99.8826 612.195 100.432V102.835C612.416 102.488 612.688 102.124 613.018 101.743C614.241 100.287 615.957 99.5591 618.165 99.5591C619.828 99.5591 621.312 100.252 622.627 101.633C623.868 102.945 624.488 104.863 624.488 107.394C624.488 110.433 623.763 112.646 622.326 114.027C621.121 115.229 619.602 115.83 617.782 115.83C615.829 115.812 614.27 115.194 613.1 113.975C612.717 113.576 612.416 113.149 612.195 112.692V120.637C612.195 121.163 611.969 121.428 611.512 121.428C611.054 121.411 610.828 121.145 610.828 120.637V100.437C610.828 99.8884 611.054 99.6169 611.512 99.6169V99.6111ZM613.975 102.448C612.914 103.684 612.387 105.458 612.387 107.769C612.404 110.046 612.943 111.791 614.004 113.016C614.896 114.033 616.067 114.541 617.51 114.541C619.063 114.541 620.356 114.015 621.399 112.958C622.546 111.773 623.126 109.919 623.126 107.388C623.126 105.441 622.552 103.806 621.399 102.477C620.466 101.385 619.144 100.836 617.429 100.836C616.078 100.853 614.925 101.391 613.975 102.448Z" fill="white"/>
<path d="M629.049 100.431C629.049 99.8826 629.275 99.611 629.733 99.611C630.19 99.611 630.417 99.8826 630.417 100.431V103.569C630.637 103.187 630.88 102.823 631.158 102.477C632.526 100.53 634.207 99.5532 636.195 99.5532C637.655 99.5532 638.878 100.027 639.863 100.975C640.339 101.448 640.426 101.847 640.136 102.176C639.805 102.5 639.394 102.442 638.901 101.986C638.119 101.24 637.151 100.865 635.998 100.865C634.63 100.882 633.361 101.581 632.19 102.968C631.129 104.17 630.538 105.262 630.411 106.244V114.951C630.411 115.483 630.185 115.743 629.727 115.743C629.269 115.725 629.043 115.46 629.043 114.951V100.431H629.049Z" fill="white"/>
<path d="M644.836 94.0412C645.039 94.2607 645.137 94.515 645.137 94.8039C645.137 95.1505 645.045 95.4163 644.865 95.5954C644.685 95.7803 644.424 95.867 644.1 95.867C643.787 95.867 643.544 95.7745 643.364 95.5954C643.161 95.3585 643.062 95.0927 643.062 94.8039C643.08 94.4572 643.184 94.1972 643.364 94.0123C643.561 93.8332 643.81 93.7407 644.1 93.7407C644.413 93.7581 644.656 93.8621 644.842 94.0412H644.836ZM643.41 100.431C643.41 99.8826 643.636 99.611 644.094 99.611C644.552 99.611 644.778 99.8826 644.778 100.431V114.951C644.778 115.483 644.552 115.743 644.094 115.743C643.636 115.725 643.41 115.46 643.41 114.951V100.431Z" fill="white"/>
<path d="M655.912 99.559C656.972 99.5763 657.917 99.7323 658.763 100.021C659.603 100.31 660.247 100.732 660.705 101.281C661.197 101.824 661.446 102.563 661.446 103.488C661.446 104.02 661.22 104.28 660.763 104.28C660.305 104.262 660.079 103.996 660.079 103.488C660.079 102.725 659.696 102.095 658.931 101.604C658.143 101.096 657.14 100.842 655.917 100.842C654.474 100.842 653.315 101.125 652.44 101.685C651.617 102.234 651.211 102.951 651.211 103.84C651.211 104.626 651.843 105.244 653.101 105.695C655.181 106.464 656.932 107.059 658.357 107.498C659.818 107.931 660.832 108.428 661.4 108.971C662.003 109.555 662.304 110.317 662.304 111.265C662.304 112.213 662.032 112.969 661.481 113.64C660.989 114.275 660.276 114.795 659.343 115.2C658.485 115.616 657.343 115.824 655.917 115.824C654.492 115.824 653.286 115.633 652.359 115.252C651.443 114.888 650.713 114.298 650.168 113.478C649.618 112.623 649.345 111.814 649.345 111.045C649.345 110.496 649.571 110.225 650.029 110.225C650.487 110.225 650.713 110.496 650.713 111.045C650.713 112.01 651.159 112.831 652.058 113.501C652.915 114.137 654.202 114.454 655.917 114.454C657.633 114.454 658.914 114.061 659.806 113.281C660.554 112.663 660.931 111.947 660.931 111.126C660.931 110.213 660.166 109.514 658.63 109.023C656.677 108.364 654.984 107.787 653.564 107.278C652.249 106.822 651.333 106.377 650.823 105.944C650.168 105.377 649.838 104.649 649.838 103.76C649.838 102.87 650.093 102.084 650.603 101.518C651.188 100.899 651.872 100.426 652.654 100.096C653.547 99.7323 654.637 99.5532 655.912 99.5532V99.559Z" fill="white"/>
<path d="M669.12 112.906C670.105 113.998 671.583 114.547 673.559 114.547C674.689 114.529 675.64 114.217 676.411 113.616C677.106 113.067 677.57 112.432 677.807 111.704C678.01 111.051 678.254 110.693 678.549 110.641C678.839 110.606 679.077 110.675 679.262 110.86C679.465 111.097 679.511 111.38 679.395 111.71C679.03 112.987 678.346 114.015 677.344 114.795C676.376 115.546 675.118 115.916 673.565 115.916C671.044 115.916 669.172 115.205 667.949 113.79C666.633 112.276 665.979 110.34 665.979 107.977C665.979 105.244 666.662 103.147 668.036 101.673C669.334 100.269 670.992 99.5703 673.02 99.5703C675.211 99.5703 676.938 100.373 678.196 101.974C679.326 103.378 679.894 104.978 679.894 106.781C679.876 107.763 679.39 108.254 678.445 108.254H667.439C667.474 110.167 668.042 111.721 669.137 112.923L669.12 112.906ZM678.433 106.793C678.416 105.337 677.958 104.037 677.066 102.887C676.028 101.575 674.672 100.922 673.014 100.922C671.444 100.922 670.128 101.477 669.068 102.586C668.152 103.569 667.619 104.973 667.451 106.793H678.433Z" fill="white"/>
<path d="M711.949 115.558C711.839 115.702 711.648 115.806 711.376 115.858C711.173 115.876 711.01 115.795 710.883 115.61C710.755 115.431 710.634 115.194 710.524 114.899L708.171 109.029H697.188L694.858 114.899C694.713 115.28 694.586 115.535 694.476 115.662C694.366 115.806 694.192 115.87 693.954 115.852C693.699 115.818 693.514 115.714 693.403 115.552C693.293 115.35 693.293 115.13 693.403 114.899L701.349 95.2717C701.494 94.8904 701.622 94.5783 701.732 94.3415C701.929 93.885 702.253 93.6597 702.688 93.6597C703.128 93.677 703.43 93.8619 703.592 94.2086C703.737 94.5379 703.893 94.8904 704.056 95.2717L711.973 114.899C712.065 115.153 712.054 115.373 711.944 115.552L711.949 115.558ZM697.739 107.665H707.626L702.694 95.2717L697.739 107.665Z" fill="white"/>
<path d="M715.38 94.5089C715.38 93.96 715.606 93.6885 716.064 93.6885C716.522 93.6885 716.748 93.96 716.748 94.5089V114.957C716.748 115.488 716.522 115.748 716.064 115.748C715.606 115.731 715.38 115.465 715.38 114.957V94.5089Z" fill="white"/>
<path d="M722.294 94.5089C722.294 93.96 722.52 93.6885 722.978 93.6885C723.436 93.6885 723.662 93.96 723.662 94.5089V114.957C723.662 115.488 723.436 115.748 722.978 115.748C722.52 115.731 722.294 115.465 722.294 114.957V94.5089Z" fill="white"/>
<path d="M730.634 94.0412C730.837 94.2607 730.936 94.515 730.936 94.8039C730.936 95.1505 730.843 95.4163 730.663 95.5954C730.484 95.7745 730.223 95.867 729.898 95.867C729.585 95.867 729.342 95.7745 729.156 95.5954C728.954 95.3585 728.855 95.0927 728.855 94.8039C728.872 94.4572 728.971 94.1972 729.156 94.0123C729.359 93.8332 729.603 93.7407 729.898 93.7407C730.211 93.7581 730.455 93.8621 730.64 94.0412H730.634ZM729.209 100.431C729.209 99.8826 729.435 99.611 729.892 99.611C730.35 99.611 730.576 99.8826 730.576 100.431V114.951C730.576 115.483 730.344 115.743 729.892 115.743C729.435 115.725 729.209 115.46 729.209 114.951V100.431Z" fill="white"/>
<path d="M747.598 110.641C747.598 112.062 747.662 112.998 747.789 113.455C747.917 113.946 748.201 114.189 748.635 114.189C749.169 114.189 749.429 114.414 749.429 114.87C749.412 115.327 749.145 115.552 748.635 115.552C747.575 115.552 746.902 115.09 746.607 114.16C746.497 113.796 746.416 113.414 746.363 113.016C746.074 113.49 745.749 113.888 745.407 114.218C744.219 115.292 742.312 115.83 739.681 115.83C738.169 115.83 736.986 115.414 736.152 114.576C735.311 113.738 734.888 112.64 734.888 111.271C734.906 110.231 735.224 109.358 735.85 108.648C736.633 107.769 737.803 107.134 739.357 106.735C741.269 106.227 743.553 105.834 746.201 105.562V106.926C742.127 107.452 739.478 108.001 738.261 108.567C736.928 109.202 736.262 110.104 736.262 111.271C736.262 112.218 736.511 112.946 737.004 113.455C737.676 114.131 738.847 114.466 740.51 114.466C742.648 114.466 744.161 114.027 745.059 113.154C745.662 112.536 746.056 111.727 746.236 110.722V104.909C746.236 103.546 745.871 102.552 745.141 101.934C744.335 101.264 743.101 100.923 741.443 100.923C739.872 100.923 738.638 101.206 737.745 101.772C736.905 102.356 736.488 103.176 736.488 104.228C736.488 104.753 736.262 105.019 735.804 105.019C735.346 105.002 735.12 104.736 735.12 104.228C735.12 102.754 735.723 101.57 736.928 100.68C737.966 99.9346 739.472 99.5591 741.443 99.5591C743.431 99.5764 744.961 100.004 746.016 100.842C747.076 101.732 747.604 103.089 747.604 104.909V110.641H747.598Z" fill="white"/>
<path d="M754.785 100.431C754.785 99.8823 755.011 99.6108 755.469 99.6108C755.926 99.6108 756.152 99.8823 756.152 100.431V102.534C756.755 101.621 757.369 100.969 757.984 100.57C759.01 99.8765 760.296 99.5356 761.844 99.5356C762.956 99.553 763.953 99.7899 764.828 100.246C765.651 100.668 766.289 101.24 766.747 101.968C767.309 102.823 767.593 104.135 767.593 105.897V114.963C767.593 115.494 767.367 115.754 766.909 115.754C766.451 115.737 766.225 115.471 766.225 114.963V105.897C766.225 104.169 765.837 102.916 765.049 102.13C764.208 101.275 762.927 100.847 761.212 100.847C760.134 100.865 759.241 101.101 758.529 101.558C757.653 102.141 757.051 102.823 756.72 103.603C756.413 104.297 756.216 105.129 756.147 106.117V114.963C756.147 115.494 755.921 115.754 755.463 115.754C755.005 115.737 754.779 115.471 754.779 114.963V100.443L754.785 100.431Z" fill="white"/>
<path d="M774.183 101.662C775.55 100.258 777.249 99.5591 779.277 99.5591C781.306 99.5591 783.009 100.102 784.18 101.2C785.148 102.107 785.722 103.228 785.907 104.557C786 105.175 785.762 105.487 785.194 105.487C784.789 105.487 784.539 105.175 784.429 104.557C784.261 103.702 783.925 103.003 783.415 102.454C782.43 101.437 781.051 100.923 779.283 100.923C777.515 100.923 776.217 101.477 775.122 102.587C773.951 103.806 773.377 105.626 773.394 108.047C773.412 110.052 773.87 111.554 774.762 112.553C775.875 113.83 777.394 114.466 779.306 114.466C780.732 114.449 781.891 114.073 782.783 113.345C783.693 112.6 784.244 111.727 784.424 110.722C784.493 110.196 784.65 109.896 784.887 109.821C785.16 109.728 785.444 109.774 785.733 109.953C785.913 110.081 785.971 110.335 785.896 110.722C785.548 112.305 784.765 113.57 783.543 114.518C782.43 115.39 781.016 115.83 779.3 115.83C776.855 115.812 775.017 115.084 773.794 113.646C772.606 112.224 772.015 110.364 772.015 108.047C772.015 105.279 772.734 103.153 774.177 101.662H774.183Z" fill="white"/>
<path d="M792.705 112.906C793.69 113.998 795.174 114.547 797.145 114.547C798.275 114.529 799.225 114.217 799.99 113.616C800.686 113.067 801.149 112.432 801.387 111.704C801.59 111.051 801.833 110.693 802.129 110.641C802.419 110.606 802.656 110.675 802.842 110.86C803.045 111.097 803.091 111.38 802.981 111.71C802.616 112.987 801.932 114.015 800.929 114.795C799.961 115.546 798.704 115.916 797.15 115.916C794.629 115.916 792.757 115.205 791.534 113.79C790.219 112.276 789.564 110.34 789.564 107.977C789.564 105.244 790.248 103.147 791.616 101.673C792.914 100.269 794.577 99.5703 796.6 99.5703C798.791 99.5703 800.518 100.373 801.775 101.974C802.905 103.378 803.473 104.978 803.473 106.781C803.456 107.763 802.969 108.254 802.025 108.254H791.013C791.048 110.167 791.616 111.721 792.711 112.923L792.705 112.906ZM802.019 106.793C802.001 105.337 801.543 104.037 800.651 102.887C799.614 101.575 798.257 100.922 796.6 100.922C795.029 100.922 793.714 101.477 792.659 102.586C791.743 103.569 791.21 104.973 791.042 106.793H802.025H802.019Z" fill="white"/>
<path d="M329.393 35.9676H349.028V39.6538H329.393V41.2774H344.884V44.7672H308.378V41.2774H323.377V39.6538H304.286V35.9676H323.377V33.46H329.393V35.9676ZM329.393 73.7836V75.4072H348.733V79.4402H304.68V75.4072H323.377V73.7836H309.566V70.2418H323.377V68.7165C322.258 68.7165 319.882 68.7396 316.248 68.7916C312.614 68.8378 309.989 68.8667 308.378 68.8667L308.129 65.3249C309.578 65.3595 312.058 65.3769 315.576 65.3769C316.167 64.5564 316.561 63.9844 316.758 63.6551H310.099V62.8693H304.871V55.2945H348.379V62.8693H342.757V59.0328H310.198V60.5061H342.56V63.6551H338.961C341.627 65.0995 343.696 66.4226 345.18 67.636L342.021 70.2418H344.189V73.7836H329.387H329.393ZM310.203 46.2464H343.354V53.8211H310.203V46.2464ZM337.437 50.9149V49.1468H315.732V50.9149H337.437ZM331.514 63.6551H323.278C323.18 63.7879 323.023 63.9728 322.809 64.2213C322.594 64.4697 322.403 64.6893 322.241 64.8857C322.079 65.0822 321.928 65.2613 321.795 65.4289C327.022 65.4289 331.004 65.4115 333.734 65.3826C332.911 64.9204 332.007 64.464 331.021 64.0075L331.514 63.6608V63.6551ZM329.393 68.624V70.2476H341.332C340.607 69.6583 339.784 69.0689 338.863 68.4796C337.843 68.5142 336.266 68.5431 334.128 68.5778C331.989 68.6125 330.413 68.6298 329.393 68.6298V68.624Z" fill="white"/>
<path d="M378.818 52.0014L375.265 56.5774C373.718 54.9365 371.301 53.2147 368.015 51.412L371.272 47.2346C374.627 48.8409 377.143 50.4298 378.818 52.0071V52.0014ZM379.751 39.1167L376.1 43.6408C374.651 41.9363 372.303 40.099 369.046 38.1345L372.5 34.0553C375.989 35.9909 378.406 37.678 379.751 39.1225V39.1167ZM374.471 79.8853L369.145 76.8866C371.544 71.675 373.636 66.2958 375.41 60.7548L380.145 63.7535C378.273 69.8838 376.378 75.263 374.471 79.8853ZM383.651 58.8366V51.9031C382.99 54.4627 382.173 56.6063 381.182 58.3454C380.127 57.7214 379.061 57.1956 377.977 56.7739C378.963 55.2312 379.739 53.0703 380.296 50.2796L383.651 51.0191V49.0489C382.764 49.1124 381.234 49.228 379.061 49.3955L378.667 45.8075L381.727 45.7093C382.515 44.7559 382.991 44.1666 383.159 43.9412C381.814 42.4968 380.481 41.3008 379.165 40.3532L381.037 37.4527C381.136 37.5163 381.269 37.5971 381.431 37.6954C381.594 37.7936 381.727 37.8745 381.826 37.9438C382.846 36.1065 383.599 34.5522 384.097 33.2695L387.499 34.9393C387.071 35.6269 386.445 36.6091 385.628 37.8918C384.805 39.1687 384.376 39.8447 384.347 39.9083C384.445 40.0065 384.625 40.1625 384.891 40.3763C385.152 40.5901 385.338 40.7634 385.436 40.8905C385.633 40.5959 385.883 40.2203 386.178 39.7581C386.474 39.3016 386.734 38.8972 386.966 38.5505C387.198 38.2096 387.395 37.886 387.557 37.5914L390.565 39.2612V38.4234H402.649V39.2612L403.982 37.5394L404.626 38.0305C405.808 35.8349 406.584 34.2922 406.944 33.4082L410.398 35.0318C410.102 35.4593 409.558 36.2682 408.769 37.4643C407.981 38.6603 407.39 39.5385 406.996 40.0932C407.425 40.4514 407.784 40.8154 408.08 41.1736C409.494 39.2034 410.352 37.9438 410.647 37.3891L413.951 39.2092C411.58 42.127 409.789 44.2417 408.572 45.5533L411.337 45.507C411.006 44.7848 410.763 44.259 410.595 43.9355L413.458 42.7568C414.64 44.9235 415.417 46.9053 415.776 48.708L412.768 50.0369C412.734 49.8058 412.652 49.3955 412.519 48.8062L410.549 48.9506V58.8366H406.7V51.9031C406.173 54.1623 405.402 56.2654 404.382 58.1952C403.791 57.7388 402.887 57.2419 401.67 56.7219V58.3917H392.003V50.8169H401.67V55.7859C402.359 54.3414 402.939 52.5098 403.397 50.2796L406.7 51.0191V49.1529L402.359 49.4013L402.012 45.8133L404.376 45.767C404.475 45.6342 404.683 45.3915 404.991 45.0275C405.304 44.6692 405.541 44.4035 405.704 44.2417C404.747 42.9937 403.733 41.9132 402.643 40.9945V41.5839H390.56V39.7638C388.618 42.2541 387.071 44.155 385.923 45.4666L388.091 45.4204C387.894 44.831 387.743 44.4035 387.644 44.1435L390.16 43.2075C391.116 45.3048 391.707 47.2404 391.933 49.0084L389.221 50.0427C389.122 49.3551 389.059 48.8929 389.024 48.6675L387.447 48.8178V58.8481H383.651V58.8366ZM388.288 69.6065H413.545C413.481 70.5887 413.383 71.311 413.249 71.7732C412.496 75.6097 411.476 78.0537 410.189 79.0995C409.106 79.8853 407.523 80.3302 405.454 80.4284C403.843 80.4631 401.247 80.4284 397.659 80.3302C397.561 78.9204 397.016 77.4644 396.031 75.9506C398.366 76.1817 400.916 76.2972 403.675 76.2972C404.73 76.2972 405.437 76.1644 405.796 75.9044C406.324 75.5115 406.799 74.6448 407.228 73.2985H387.349C387.152 73.9514 387.001 74.431 386.903 74.7257L381.478 74.0381C382.463 71.1838 383.286 68.0522 383.947 64.6433H405.506V63.0717H382.417V59.6801H411.076V68.0407H388.682L388.288 69.6123V69.6065ZM391.84 55.7339L388.832 56.6179C388.635 55.2427 388.224 53.4054 387.598 51.1116L390.461 50.4702C391.116 52.5387 391.58 54.2894 391.84 55.7339ZM401.652 42.8492V45.5533H392.032V42.8492H401.652ZM392.037 49.4418V46.7377H401.658V49.4418H392.037ZM401.16 34.2922V37.1465H392.379V34.2922H401.16ZM398.007 55.6876V53.4747H395.492V55.6876H398.007ZM410.682 51.1636L413.69 50.2796C414.843 53.0009 415.579 55.1156 415.91 56.6236L412.803 57.6579C412.444 55.757 411.737 53.5903 410.682 51.1636Z" fill="white"/>
<path d="M480.872 48.1645H478.206C477.221 56.1321 475.575 62.5398 473.274 67.3932C475.378 71.1314 477.992 73.9337 481.122 75.8057C479.545 77.152 478.241 78.7409 477.227 80.5782C474.364 78.6773 471.918 76.1524 469.878 73.0035C467.577 76.0542 464.714 78.608 461.295 80.6765C460.965 79.8213 460.113 78.4289 458.727 76.4933L455.227 79.9369C453.876 78.9836 452.103 77.9031 449.901 76.6897C446.875 78.4578 442.616 79.7867 437.127 80.6707C436.797 79.128 436.09 77.6026 435.006 76.0946C439.086 75.7364 442.274 75.0951 444.575 74.1764C444.279 74.0782 443.827 73.899 443.218 73.6333C442.61 73.3733 442.158 73.1884 441.862 73.0901L441.416 73.7315L436.629 72.5528C438.107 70.3225 439.063 68.8319 439.492 68.075L434.067 68.1212L433.87 63.6953C437.289 63.6953 439.984 63.678 441.961 63.6491C442.123 63.3891 442.337 62.9962 442.604 62.4704C442.871 61.9446 443.015 61.6673 443.05 61.6326H435.899V52.3361H444.83V50.7645H436.89V45.4026H433.731V41.1732H436.89V35.9096H444.83V33.4482H449.912V35.9096H458.299V41.1732H461.602V45.4026H458.299V50.7645H449.912V52.3361H459.336V53.9076C461.932 49.0196 463.741 42.2017 464.761 33.4482L470.435 34.1878C470.139 36.7474 469.675 39.5497 469.055 42.5946H480.896V48.1529L480.872 48.1645ZM440.819 55.9357V58.0504H444.812V55.9357H440.819ZM444.812 39.7057H441.851V41.5257H444.812V39.7057ZM441.856 46.98H444.818V45.1137H441.856V46.98ZM445.009 67.9825L444.169 69.4096C445.119 69.7043 446.783 70.3457 449.153 71.3279C450.075 70.3457 450.828 69.1959 451.419 67.8843L445.009 67.9825ZM461.486 67.6358L456.85 67.7341C456.16 69.9643 455.157 71.8652 453.842 73.4368C455.024 74.0262 456.438 74.783 458.084 75.7017C461.834 73.7026 464.807 70.9177 467.015 67.3412C465.798 64.458 464.778 61.1935 463.955 57.5535C463.399 58.7033 462.738 59.8184 461.979 60.8989C461.521 60.2113 460.628 59.2117 459.313 57.9001V61.6384H448.116L448.562 61.7366L447.525 63.6029C449.002 63.6029 451.321 63.5798 454.479 63.5278C457.638 63.4816 460.02 63.4353 461.631 63.4064L461.486 67.6358ZM453.1 39.7057H449.895V41.5257H453.1V39.7057ZM449.895 46.98H453.1V45.1137H449.895V46.98ZM454.085 55.9357H449.889V58.0504H454.085V55.9357ZM472.585 48.1645H467.6L467.502 48.4591C468.226 53.0814 469.131 57.0161 470.214 60.2633C471.263 56.889 472.057 52.8561 472.585 48.1645Z" fill="white"/>
<path d="M510.314 33.5581L515.936 35.4244C514.585 38.7351 513.009 41.9649 511.201 45.1138V80.3241H505.475V53.6708C503.962 55.5718 502.583 57.1607 501.331 58.4433C501.07 57.6922 500.589 56.6407 499.899 55.2944C499.21 53.9482 498.619 52.9197 498.12 52.1975C500.519 49.9672 502.815 47.1881 505.005 43.86C507.19 40.532 508.958 37.0999 510.308 33.5581H510.314ZM536.168 72.7031H546.432V78.3596H513.826V72.7031H530.402C532.772 65.2901 534.383 57.7847 535.235 50.181L541.796 51.2152C540.185 59.1482 538.307 66.3128 536.174 72.7089L536.168 72.7031ZM514.806 42.508H526.692V34.1012H532.76V42.508H545.389V48.2108H514.806V42.508ZM527.289 69.8488L521.32 71.1257C521.25 68.6355 520.932 65.5212 520.358 61.783C519.778 58.0447 519.1 54.5837 518.312 51.4059L523.737 50.4699C525.707 57.7153 526.895 64.175 527.289 69.8488Z" fill="white"/>
<path d="M584.405 33.2636H590.572C593.267 37.1983 596.565 40.7806 600.465 44.0104C604.366 47.2402 608.353 49.742 612.427 51.5101C611.245 52.7234 609.894 54.5261 608.382 56.9181C604.47 54.7514 600.593 52.0185 596.767 48.7078C592.937 45.3971 589.934 42.2019 587.761 39.1166C585.692 42.2308 582.829 45.4144 579.178 48.6558C575.527 51.903 571.649 54.6706 567.534 56.9644C566.682 55.3581 565.413 53.7519 563.738 52.1456C567.946 49.9789 571.945 47.1305 575.724 43.5886C579.508 40.0468 582.4 36.6032 584.405 33.2578V33.2636ZM591.459 63.6031V73.6855H609.512V79.0936H566.543V73.6855H572.02V56.2248H577.938V73.6855H585.141V47.5233H591.453V58.3453H604.968V63.6089H591.453L591.459 63.6031Z" fill="white"/>
<path d="M675.906 69.017H661.255C665.694 71.7037 671.021 73.5237 677.239 74.4771C675.762 75.9215 674.411 77.7416 673.194 79.9371C666.581 78.2673 660.925 75.4304 656.225 71.4264V80.4745H650.354V71.721C645.619 75.4593 639.979 78.1807 633.43 79.8851C632.312 77.9496 631.031 76.2798 629.582 74.87C635.899 73.5584 641.208 71.6055 645.514 69.017H631.008V64.048H650.348V61.8351H635.795V57.5075H650.348V55.2484H633.227V50.5741H642.848C642.483 49.3954 641.909 48.0838 641.121 46.6393L641.712 46.5411H631.158V41.6704H637.968C637.412 40.1277 636.357 38.0477 634.81 35.4245L639.991 33.6565C641.799 36.2796 643.063 38.6428 643.787 40.7401L641.318 41.6762H645.908V33.4658H651.53V41.6762H655.28V33.4658H660.954V41.6762H665.439L663.614 41.0868C664.86 39.0183 665.915 36.5974 666.772 33.8067L673.084 35.3321C672.852 35.725 672.261 36.7072 671.31 38.2846C670.36 39.8561 669.647 40.9886 669.189 41.6762H675.75V46.5469H666.228C665.897 47.1362 665.109 48.4825 663.857 50.5798H673.774V55.2541H656.213V57.5133H671.409V61.8409H656.213V64.0538H675.895V69.0228L675.906 69.017ZM659.58 46.5411H647.496C648.383 48.2109 648.957 49.5109 649.223 50.4238L648.383 50.5683H657.807C658.496 49.1585 659.087 47.8122 659.58 46.5353V46.5411Z" fill="white"/>
<path d="M696.863 62.9155L701.5 63.6551C701.007 68.8667 699.987 73.177 698.44 76.5917C697.06 75.7077 695.658 75.0317 694.244 74.5752C695.496 72.0849 696.365 68.1964 696.857 62.9213L696.863 62.9155ZM709.643 59.4719L707.029 59.6683V80.4686H701.998V60.0612L695.339 60.6043L694.748 55.3927C695.078 55.3927 695.687 55.3696 696.573 55.3176C697.46 55.2656 698.167 55.2252 698.695 55.1963C699.552 53.9829 700.225 53.018 700.717 52.2958C699.5 50.1984 697.559 47.7544 694.899 44.9695L697.762 41.0867C698.028 41.3178 698.434 41.7107 698.996 42.2654C700.474 39.4112 701.674 36.4933 702.595 33.512L707.724 35.28C705.192 40.1334 703.302 43.5423 702.05 45.5068C702.705 46.2926 703.25 46.9802 703.679 47.5753C705.093 45.2468 706.542 42.5254 708.02 39.4112L712.755 41.5779C710.715 44.8886 708.628 48.0837 706.49 51.1691L710.437 49.5455C712.604 53.7402 713.955 57.415 714.482 60.5639L710.292 62.3319C710.129 61.3786 709.915 60.431 709.648 59.4777L709.643 59.4719ZM703.824 54.9016L708.014 54.6531C707.62 53.6016 707.11 52.4402 706.484 51.1633C705.696 52.342 704.809 53.59 703.818 54.9016H703.824ZM707.324 63.8515L711.219 62.719C712.633 65.8333 713.502 68.8493 713.833 71.7672L709.637 73.1423C709.405 70.2245 708.634 67.1275 707.319 63.8457L707.324 63.8515ZM715.954 79.001L711.613 76.6899C713.653 74.5579 714.934 71.2009 715.461 66.6075L720.15 67.74C719.397 73.2174 717.994 76.9672 715.96 79.001H715.954ZM727.006 75.4592H729.916C730.373 75.4592 730.698 75.2397 730.878 74.7948C731.057 74.3499 731.167 73.3445 731.196 71.7672C732.216 72.6165 733.729 73.2579 735.734 73.6854C735.474 76.2103 734.964 77.9206 734.204 78.8277C733.445 79.7291 732.234 80.1797 730.553 80.1797H726.259C724.056 80.1797 722.59 79.7522 721.871 78.9028C721.147 78.0477 720.788 76.4415 720.788 74.0841V66.1164H725.575C723.83 64.8684 722.433 63.9671 721.379 63.4124L723.454 61.6906H714.522V38.1285H724.091C724.647 36.4587 725.059 34.864 725.326 33.356L731.938 34.1937C731.382 35.4707 730.756 36.7822 730.066 38.1285H740.672V61.6848H727.203C729.968 63.3546 731.909 64.8164 733.022 66.0644L729.272 69.3116C728.322 68.2311 727.168 67.2315 725.818 66.3129V74.0841C725.818 74.6734 725.893 75.049 726.038 75.2165C726.189 75.3783 726.508 75.465 727 75.465L727.006 75.4592ZM719.211 42.4561V57.311H723.303C722.677 56.427 722.121 55.7856 721.628 55.3927C723.604 54.6416 725.378 53.5265 726.954 52.0473L724.885 50.7184C723.9 51.8336 722.943 52.7176 722.022 53.3762C721.269 52.3593 720.359 51.5735 719.31 51.0131C720.33 50.2273 721.118 49.5397 721.674 48.9446C721.61 48.91 720.834 48.5517 719.356 47.8642L721.97 45.3566C722.364 45.553 722.99 45.8824 723.842 46.3388C724.763 44.929 725.436 43.6348 725.864 42.4561H719.205H719.211ZM735.74 57.311V42.4561H727.406L729.574 42.7508C729.18 43.733 728.965 44.2588 728.93 44.3223H732.135L732.825 44.1779L735.294 45.1139C734.668 47.2459 733.683 49.3086 732.332 51.3078C733.515 52.0589 734.506 52.7696 735.294 53.4225L732.628 56.2767C731.869 55.5892 730.982 54.8843 729.962 54.162C728.71 55.41 727.313 56.4558 725.772 57.311H735.734H735.74ZM730.605 47.1766H727.447L727.25 47.5233C727.116 47.7544 727.018 47.9162 726.954 48.0144C728.009 48.6037 728.78 49.0486 729.272 49.3433C729.73 48.6904 730.176 47.9682 730.605 47.1766ZM733.219 67.8844L737.514 65.816C740.18 69.456 741.97 73.0614 742.892 76.6379L738.302 78.8508C737.943 77.3081 737.293 75.5054 736.355 73.4428C735.416 71.3743 734.372 69.5254 733.219 67.8844Z" fill="white"/>
<path d="M780.72 33.46H786.394C789.187 36.0484 792.485 38.3134 796.287 40.2489C800.083 42.1845 803.989 43.6406 808 44.6286C807.078 45.6108 805.948 47.269 804.598 49.5975C803.149 49.1064 802.181 48.7597 801.688 48.5633V61.6964H766.613V48.5171C765.854 48.8117 764.724 49.222 763.211 49.7477C762.157 47.7486 761.119 46.1886 760.105 45.0735C764.185 43.8948 768.114 42.2308 771.893 40.0814C775.678 37.932 778.616 35.7307 780.726 33.4657L780.72 33.46ZM767.796 48.0144H800.303C797.771 46.9975 795.319 45.8188 792.954 44.4726V46.1944H775.243V44.2761C773.267 45.4548 770.786 46.7028 767.796 48.0144ZM769.372 80.4744V63.3084H799.069V80.3242H792.902V79.0935H775.289V80.4686H769.372V80.4744ZM771.592 57.9985H775.092C774.832 56.3576 774.252 54.6243 773.365 52.7869L777.26 51.6544H771.586V57.9985H771.592ZM792.902 67.2431H775.289V69.2076H792.902V67.2431ZM775.295 75.2108H792.908V73.1943H775.295V75.2108ZM781.41 57.9985V51.6544H777.515C778.57 53.6536 779.242 55.4563 779.538 57.0625L776.28 57.9985H781.41ZM778.402 42.3116H789.402C787.13 40.8672 785.258 39.4574 783.774 38.0822C782.528 39.3303 780.732 40.7401 778.396 42.3116H778.402ZM789.947 51.6544H786.249V57.9985H790.885L787.924 57.2127C788.845 55.1154 789.518 53.2607 789.947 51.6544ZM796.455 57.9985V51.6544H790.978L794.925 52.6367C793.87 54.7687 792.949 56.5541 792.16 57.9985H796.455Z" fill="white"/>
<path d="M89.2401 47.5005H68.0397V115.292H52.1945V47.5005H31V33.2061H89.2401V47.5005Z" fill="white"/>
<path d="M216.204 115.292H162.751V33.2061H216.204V47.5005H178.591V66.7523H210.617V81.0467H178.591V100.992H216.204V115.286V115.292Z" fill="white"/>
<path d="M241.966 100.767L237.063 115.292H220.534L250.057 33.2061H262.477L292.109 115.292H275.58L270.793 100.767H248.248L252.601 87.2753H266.574L256.658 57.4153L237.057 115.292L241.966 100.767Z" fill="white"/>
<path d="M133.501 87.7085H134.429V59.293C134.429 59.1081 134.319 58.9406 134.145 58.8655L106.76 47.2809C106.616 47.2173 106.453 47.2346 106.32 47.3213C106.192 47.408 106.111 47.5524 106.111 47.7084V118.747H107.039V48.4133L133.496 59.605V87.7085H133.501Z" fill="white"/>
<path d="M136.243 88.8695H137.17V56.7446C137.17 56.5597 137.06 56.3922 136.886 56.3171C114.921 47.0263 103.903 42.3809 103.834 42.3809C103.579 42.3809 103.37 42.5889 103.37 42.8431V117.597H104.297V43.5422C108.615 45.368 133.299 55.8086 136.237 57.0508V88.8637L136.243 88.8695Z" fill="white"/>
<path d="M138.984 90.0253H139.917V54.1968C139.917 54.0119 139.807 53.8443 139.633 53.7692C114.013 42.9338 101.169 37.5161 101.104 37.5161C100.849 37.5161 100.64 37.7241 100.64 37.9783V116.447H101.567V38.6775C106.308 40.6824 135.762 53.1394 138.99 54.503C138.99 57.9928 138.99 89.8115 138.99 90.0253H138.984Z" fill="white"/>
<path d="M153.612 47.0033C153.612 46.934 153.589 46.8647 153.56 46.8011C153.56 46.8011 153.56 46.7895 153.554 46.7838C153.508 46.6913 153.427 46.6162 153.328 46.5758L109.502 28.0346C109.386 27.9826 109.252 27.9826 109.137 28.0346L98.1713 32.6742C98.0727 32.7147 97.9974 32.7898 97.951 32.8822C97.951 32.8822 97.951 32.8938 97.9452 32.8996C97.9163 32.9631 97.8931 33.0325 97.8931 33.1018V115.286H98.8204V33.8009L141.719 51.9492V88.7946V90.8746L120.745 99.7494V57.9177L130.76 62.1529V86.547H131.693V61.8466C131.693 61.6618 131.583 61.4942 131.409 61.4191L120.467 56.791L109.502 52.1514C109.432 52.1225 109.351 52.1109 109.276 52.1167C109.2 52.1225 109.125 52.1456 109.061 52.1918C108.928 52.2785 108.853 52.423 108.853 52.579V119.908C108.853 120.064 108.928 120.209 109.061 120.295C109.137 120.347 109.229 120.371 109.316 120.371C109.38 120.371 109.438 120.359 109.496 120.336L153.322 101.795C153.496 101.72 153.606 101.552 153.606 101.367V47.0091L153.612 47.0033Z" fill="white"/>
</g>
<defs>
<clipPath id="clip0_206_225">
<rect width="777" height="94" fill="white" transform="translate(31 28)"/>
</clipPath>
</defs>
</svg>
